<?xml version="1.0" standalone="no"?>
<!DOCTYPE svg PUBLIC "-//W3C//DTD SVG 1.1//EN" "http://www.w3.org/Graphics/SVG/1.1/DTD/svg11.dtd" >
<svg xmlns="http://www.w3.org/2000/svg" xmlns:xlink="http://www.w3.org/1999/xlink" version="1.1">
<metadata>
Created by FontForge 20170731 at Sun Sep 16 20:58:02 2018
 By Aleksey,,,
(c) 2014 The Monotype Corporation. All Rights Reserved. 

Hebrew OpenType Layout logic copyright (c) 2003 &#38; 2007, Ralph Hancock &#38; John Hudson. This layout logic for Biblical Hebrew is open source software under the MIT License; see embedded license description for details.
</metadata>
<defs>
<font id="Arial-BoldItalicMT" horiz-adv-x="1251" >
  <font-face 
    font-family="Arial"
    font-weight="700"
    font-style="italic"
    font-stretch="normal"
    units-per-em="2048"
    panose-1="2 11 7 4 2 2 2 9 2 4"
    ascent="1638"
    descent="-410"
    x-height="1062"
    cap-height="1466"
    bbox="-981 -771 2847 2084"
    underline-thickness="215"
    underline-position="-752"
    slope="-12"
    unicode-range="U+0020-A78C"
  />
<missing-glyph horiz-adv-x="1536" 
d="M256 0v1280h1024v-1280h-1024zM288 32h960v1216h-960v-1216z" />
    <glyph glyph-name=".notdef" horiz-adv-x="1536" 
d="M256 0v1280h1024v-1280h-1024zM288 32h960v1216h-960v-1216z" />
    <glyph glyph-name="glyph1" horiz-adv-x="0" 
 />
    <glyph glyph-name="glyph2" horiz-adv-x="569" 
 />
    <glyph glyph-name="space" unicode=" " horiz-adv-x="569" 
 />
    <glyph glyph-name="space" unicode="&#xa0;" horiz-adv-x="569" 
 />
    <glyph glyph-name="exclam" unicode="!" horiz-adv-x="682" 
d="M418 373h-158l90 748l72 345h301l-77 -371zM184 277h284l-58 -277h-284z" />
    <glyph glyph-name="quotedbl" unicode="&#x22;" horiz-adv-x="971" 
d="M310 945zM310 945l5 273l53 248h306l-53 -248l-104 -273h-207zM674 945l5 273l53 248h306l-53 -248l-104 -273h-207z" />
    <glyph glyph-name="numbersign" unicode="#" horiz-adv-x="1139" 
d="M234 365h-136v220h180l60 295h-240v221h285l79 390h224l-79 -390h221l77 390h232l-80 -390h138v-221h-183l-60 -295h243v-220h-288l-79 -390h-223l77 390h-222l-79 -390h-226zM563 880l-59 -295h222l58 295h-221z" />
    <glyph glyph-name="dollar" unicode="$" horiz-adv-x="1139" 
d="M429 -10q-143 35 -235 149.5t-104 286.5l253 13q19 -172 133 -224l92 442q-159 70 -232.5 180.5t-73.5 230.5q0 108 58.5 209.5t166 158t203.5 56.5l53 -1l18 86h143l-22 -103q129 -32 207 -124t91 -235l-246 -13q-18 111 -97 155l-83 -398q178 -72 255.5 -179.5
t77.5 -245.5q0 -192 -143 -326.5t-375 -134.5l-37 -176h-143zM623 918l76 363q-85 1 -141.5 -53.5t-56.5 -129.5q0 -112 122 -180zM699 596l-84 -401q113 9 174.5 70t61.5 145q0 55 -28 95t-124 91z" />
    <glyph glyph-name="percent" unicode="%" horiz-adv-x="1821" 
d="M186 1011q0 191 103 335.5t288 144.5q126 0 201.5 -80t75.5 -223q0 -118 -51.5 -237t-140.5 -174.5t-199 -55.5q-124 0 -200.5 78t-76.5 212zM397 988q0 -51 22 -74.5t60 -23.5q72 0 120.5 108.5t48.5 229.5q0 44 -23 68.5t-60 24.5q-42 0 -75.5 -34.5t-63 -135
t-29.5 -163.5zM485 -63h-231l1222 1554h230zM1102 229q0 191 103 336t288 145q126 0 201.5 -80t75.5 -223q0 -118 -51.5 -237.5t-140.5 -174.5t-199 -55q-124 0 -200.5 78t-76.5 211zM1312 207q0 -51 22 -74.5t61 -23.5q72 0 120.5 108t48.5 229q0 45 -23 69.5t-60 24.5
q-42 0 -75.5 -34.5t-63.5 -135t-30 -163.5z" />
    <glyph glyph-name="ampersand" unicode="&#x26;" horiz-adv-x="1479" 
d="M1239 638l207 -124q-29 -56 -75.5 -121.5t-86.5 -102.5q57 -61 146 -136l-181 -188q-34 18 -86.5 61t-88.5 81q-72 -57 -181 -95t-235 -38q-228 0 -358 120.5t-130 295.5q0 111 51.5 206.5t133.5 163.5q59 49 192 120q-65 141 -65 246q0 154 112.5 259t296.5 105
q158 0 250.5 -83.5t92.5 -195.5q0 -95 -79.5 -205.5t-261.5 -202.5q57 -96 142 -220q51 -76 82 -109q51 51 122 163zM789 1000q118 60 166 121q34 44 34 89q0 41 -27.5 67.5t-75.5 26.5q-60 0 -100 -41.5t-40 -108.5q0 -64 43 -154zM651 679q-198 -99 -198 -261
q0 -92 59 -151t157 -59q119 0 245 83q-151 184 -263 388z" />
    <glyph glyph-name="quotesingle" unicode="'" horiz-adv-x="487" 
d="M310 945l5 273l53 248h306l-53 -248l-104 -273h-207z" />
    <glyph glyph-name="parenleft" unicode="(" horiz-adv-x="682" 
d="M491 -431h-195q-82 191 -121.5 386.5t-39.5 358.5q0 204 65.5 409.5t200.5 418.5q85 136 273 349h218q-191 -224 -294.5 -421t-154.5 -429t-51 -454q0 -150 22.5 -292t76.5 -326z" />
    <glyph glyph-name="parenright" unicode=")" horiz-adv-x="682" 
d="M241 1491h195q82 -190 121.5 -386t39.5 -358q0 -204 -65.5 -409.5t-200.5 -419.5q-86 -136 -273 -349h-218q190 224 293.5 420t154.5 428.5t51 455.5q0 151 -22 292.5t-76 325.5z" />
    <glyph glyph-name="asterisk" unicode="*" horiz-adv-x="797" 
d="M418 792l-151 117q72 81 150 155q31 30 39 38q-25 4 -143 33q-85 21 -112 31l59 176q131 -53 234 -117q-24 163 -24 266h178q0 -73 -27 -268q20 8 86 39q90 41 166 70l53 -181q-111 -25 -257 -49l120 -135q36 -41 57 -67l-153 -101l-135 223q-61 -108 -140 -230z" />
    <glyph glyph-name="plus" unicode="+" horiz-adv-x="1196" 
d="M549 211v381h-384v263h384v381h256v-381h385v-263h-385v-381h-256z" />
    <glyph glyph-name="comma" unicode="," horiz-adv-x="569" 
d="M146 277h289l-48 -229q-41 -198 -131.5 -280.5t-234.5 -85.5l28 133q72 16 111.5 57.5t58.5 127.5h-132z" />
    <glyph glyph-name="hyphen" unicode="-" horiz-adv-x="682" 
d="M137 667h557l-58 -277h-557z" />
    <glyph glyph-name="hyphen" unicode="&#xad;" horiz-adv-x="682" 
d="M137 667h557l-58 -277h-557z" />
    <glyph glyph-name="period" unicode="." horiz-adv-x="569" 
d="M148 277h284l-58 -277h-284z" />
    <glyph glyph-name="slash" unicode="/" horiz-adv-x="569" 
d="M-89 -25l726 1516h200l-725 -1516h-201z" />
    <glyph glyph-name="zero" unicode="0" horiz-adv-x="1139" 
d="M132 477q0 221 75 448q92 277 236 412t320 135q178 0 292.5 -129t114.5 -375q0 -225 -83.5 -475.5t-225.5 -384t-320 -133.5t-293.5 129t-115.5 373zM414 419q0 -118 38 -166t98 -48q80 0 142 74q83 99 147 390q51 231 51 366q0 110 -38.5 158.5t-98.5 48.5
q-76 0 -135 -73q-87 -106 -150 -373q-54 -231 -54 -377z" />
    <glyph glyph-name="one" unicode="1" horiz-adv-x="1139" 
d="M243 842l54 256q371 162 574 377h175l-309 -1475h-289l213 1016q-90 -58 -207.5 -106t-210.5 -68z" />
    <glyph glyph-name="two" unicode="2" horiz-adv-x="1139" 
d="M541 1009l-281 42q34 204 158.5 312.5t311.5 108.5q205 0 322 -111t117 -282q0 -87 -36 -174.5t-118 -183.5q-59 -68 -193 -192.5t-177.5 -170t-83.5 -96.5h508l-54 -262h-891q14 108 63.5 205.5t123.5 181.5t271 271q148 142 187 185q70 78 96 135t26 103
q0 74 -43.5 120t-110.5 46q-68 0 -119 -51.5t-77 -186.5z" />
    <glyph glyph-name="three" unicode="3" horiz-adv-x="1139" 
d="M104 383l275 33q17 -117 61.5 -162t118.5 -45q98 0 162.5 66t64.5 169q0 90 -52 142.5t-140 52.5q-22 0 -46 -4l50 239q15 -2 29 -2q115 0 175 58.5t60 158.5q0 71 -40.5 112t-106.5 41q-62 0 -111 -45.5t-78 -155.5l-262 52q50 162 139 249q135 130 332 130
q202 0 307 -112.5t105 -269.5q0 -114 -67 -206t-184 -135q93 -49 137 -127t44 -163q0 -162 -115 -298q-157 -186 -405 -186q-186 0 -306.5 106.5t-146.5 301.5z" />
    <glyph glyph-name="four" unicode="4" horiz-adv-x="1139" 
d="M633 299h-577l50 240l793 927h248l-193 -923h178l-51 -244h-178l-63 -299h-270zM684 543l95 457l-387 -457h292z" />
    <glyph glyph-name="five" unicode="5" horiz-adv-x="1139" 
d="M130 420l279 25q-1 -20 -1 -30q0 -102 45.5 -153t118.5 -51q102 0 185.5 97.5t83.5 269.5q0 102 -47 154t-125 52q-56 0 -108.5 -26t-101.5 -79l-236 18l223 749h737l-54 -262h-487l-67 -226q42 19 84 28.5t83 9.5q168 0 276 -113t108 -303q0 -152 -75.5 -299.5
t-209.5 -226.5t-281 -79q-187 0 -307.5 121t-122.5 324z" />
    <glyph glyph-name="six" unicode="6" horiz-adv-x="1139" 
d="M1179 1108l-269 -22q-8 87 -41.5 122t-90.5 35q-73 0 -130 -58q-81 -83 -130 -268q93 61 197 61q170 0 280 -116t110 -316q0 -159 -77 -300.5t-192 -206.5t-243 -65q-123 0 -221.5 61.5t-152 179.5t-53.5 316q0 393 174 667t459 274q164 0 261 -90t119 -274zM442 431
q0 -116 46 -171t114 -55q84 0 144 78q81 105 81 282q0 114 -45 168.5t-110 54.5q-55 0 -111 -41.5t-87.5 -132t-31.5 -183.5z" />
    <glyph glyph-name="seven" unicode="7" horiz-adv-x="1139" 
d="M212 1181l55 265h967l-43 -204q-92 -74 -203 -222.5t-205.5 -332t-154.5 -348.5q-83 -228 -103 -339h-273q18 110 85 302q82 236 205 456t297 423h-627z" />
    <glyph glyph-name="eight" unicode="8" horiz-adv-x="1139" 
d="M440 807q-77 51 -115.5 117.5t-38.5 147.5q0 94 54 191t161.5 153t243.5 56q196 0 306 -102t110 -258q0 -110 -62 -191.5t-186 -135.5q90 -55 134.5 -133.5t44.5 -179.5q0 -166 -106 -302q-154 -196 -421 -196q-194 0 -312 114.5t-118 291.5q0 147 82 263t223 164z
M549 1053q0 -69 42 -111.5t109 -42.5q77 0 135.5 58.5t58.5 136.5q0 71 -43 115t-110 44q-79 0 -135.5 -58t-56.5 -142zM421 375q0 -82 45 -129t117 -47q111 0 171.5 98t60.5 213q0 74 -46.5 121.5t-118.5 47.5q-90 0 -159.5 -83t-69.5 -221z" />
    <glyph glyph-name="nine" unicode="9" horiz-adv-x="1139" 
d="M130 338l269 22q8 -86 41.5 -121t90.5 -35q73 0 129 57q82 83 130 268q-93 -60 -196 -60q-170 0 -280 115.5t-110 315.5q0 224 141 398t374 174q206 0 315 -150t109 -406q0 -395 -174.5 -668t-459.5 -273q-167 0 -267 95.5t-112 267.5zM867 1016q0 116 -46 170.5
t-114 54.5q-84 0 -144 -78q-81 -105 -81 -282q0 -114 45 -168.5t110 -54.5q55 0 111 42t87.5 132.5t31.5 183.5z" />
    <glyph glyph-name="colon" unicode=":" horiz-adv-x="682" 
d="M366 1062h283l-58 -278h-283zM202 277h284l-58 -277h-284z" />
    <glyph glyph-name="semicolon" unicode=";" horiz-adv-x="682" 
d="M371 1062h284l-58 -278h-284zM208 277h289l-48 -229q-41 -198 -131.5 -280.5t-234.5 -85.5l28 133q72 16 111.5 57.5t58.5 127.5h-132z" />
    <glyph glyph-name="less" unicode="&#x3c;" horiz-adv-x="1196" 
d="M1180 167l-1005 437v242l1005 435v-285l-701 -268l701 -278v-283z" />
    <glyph glyph-name="equal" unicode="=" horiz-adv-x="1196" 
d="M165 816v258h1025v-258h-1025zM165 372v259h1025v-259h-1025z" />
    <glyph glyph-name="greater" unicode="&#x3e;" horiz-adv-x="1196" 
d="M175 166v283l702 276l-702 273v281l1006 -435v-240z" />
    <glyph glyph-name="question" unicode="?" 
d="M700 366h-258q20 134 83.5 232.5t254.5 263.5q161 141 189.5 186t28.5 87q0 62 -49 103.5t-150 41.5q-112 0 -183 -61t-101 -195l-263 46q51 195 197 308t355 113q218 0 340 -108.5t122 -259.5q0 -88 -52 -175.5t-285 -280.5q-146 -122 -180 -170t-49 -131zM412 277h284
l-58 -277h-284z" />
    <glyph glyph-name="at" unicode="@" horiz-adv-x="1997" 
d="M1849 19h213q-100 -203 -307 -318q-237 -132 -578 -132q-330 0 -570 111.5t-357 329t-117 473.5q0 281 133 523.5t364 364t528 121.5q252 0 448 -98t299.5 -278.5t103.5 -394.5q0 -255 -157 -461q-197 -260 -505 -260q-83 0 -125 29t-56 85q-118 -114 -272 -114
q-166 0 -275.5 114.5t-109.5 304.5q0 235 132 429q160 236 410 236q178 0 263 -136l25 111h264l-151 -717q-14 -68 -14 -88q0 -25 11.5 -37.5t27.5 -12.5q48 0 124 58q102 76 165 204t63 265q0 246 -178 411.5t-497 165.5q-271 0 -459.5 -110.5t-284 -311t-95.5 -417.5
q0 -211 106.5 -384t299 -252.5t440.5 -79.5q239 0 411 66.5t277 199.5zM768 430q0 -127 51.5 -187t127.5 -60q57 0 107 28q38 20 75 63q53 61 91.5 178t38.5 218q0 113 -52.5 173.5t-132.5 60.5q-86 0 -159 -66.5t-110 -189.5t-37 -218z" />
    <glyph glyph-name="A" unicode="A" horiz-adv-x="1479" 
d="M1044 324h-581l-176 -324h-310l829 1466h335l238 -1466h-286zM1007 568l-85 590l-354 -590h439z" />
    <glyph glyph-name="B" unicode="B" horiz-adv-x="1479" 
d="M82 0l307 1466h501q163 0 228 -10q108 -15 183 -60t114 -120t39 -166q0 -122 -68 -211.5t-210 -135.5q113 -31 176.5 -110.5t63.5 -179.5q0 -132 -75 -250.5t-207 -170.5t-361 -52h-691zM566 874h230q155 0 223 22t102 72t34 107q0 56 -32 92t-91 48q-33 6 -159 6h-234z
M433 236h291q183 0 245.5 23.5t100 77.5t37.5 114q0 73 -54 120.5t-180 47.5h-360z" />
    <glyph glyph-name="C" unicode="C" horiz-adv-x="1479" 
d="M1146 528l304 -46q-89 -247 -267 -377.5t-417 -130.5q-269 0 -420.5 162t-151.5 470q0 250 101.5 457.5t281.5 317.5t392 110q238 0 385 -127.5t173 -347.5l-289 -28q-24 128 -92.5 185.5t-182.5 57.5q-125 0 -233.5 -76t-173.5 -237.5t-65 -322.5q0 -176 84.5 -272
t210.5 -96q117 0 214.5 76t145.5 225z" />
    <glyph glyph-name="D" unicode="D" horiz-adv-x="1479" 
d="M89 0l307 1466h395q165 0 211 -5q91 -9 162.5 -37t130 -78.5t101 -121.5t65.5 -163.5t23 -202.5q0 -237 -90.5 -420.5t-227.5 -291.5q-105 -84 -271 -124q-94 -22 -289 -22h-517zM440 236h153q166 0 240.5 20.5t136.5 76.5q89 81 150 216t61 318q0 156 -50.5 234.5
t-124.5 104.5q-52 18 -185 18h-175z" />
    <glyph glyph-name="E" unicode="E" horiz-adv-x="1366" 
d="M84 0l306 1466h1087l-51 -245h-785l-70 -333h759l-51 -245h-759l-92 -398h853l-52 -245h-1145z" />
    <glyph glyph-name="F" unicode="F" 
d="M80 0l307 1466h1026l-52 -245h-724l-74 -352h710l-51 -245h-710l-130 -624h-302z" />
    <glyph glyph-name="G" unicode="G" horiz-adv-x="1593" 
d="M900 783h656l-132 -629q-116 -75 -284.5 -127t-343.5 -52q-272 0 -417 123q-198 168 -198 487q0 214 85 410q102 236 290 366t442 130t407.5 -118t203.5 -344l-281 -32q-37 124 -119.5 187t-207.5 63q-146 0 -268 -76t-191 -235t-69 -347q0 -185 84 -273.5t246 -88.5
q97 0 199 27.5t176 65.5l45 218h-374z" />
    <glyph glyph-name="H" unicode="H" horiz-adv-x="1479" 
d="M1095 655h-567l-137 -655h-302l307 1466h301l-118 -566h567l119 566h301l-306 -1466h-302z" />
    <glyph glyph-name="I" unicode="I" horiz-adv-x="569" 
d="M71 0l307 1466h301l-306 -1466h-302z" />
    <glyph glyph-name="J" unicode="J" horiz-adv-x="1139" 
d="M932 1466h296l-185 -888q-74 -353 -194 -478t-369 -125q-211 0 -316 97t-105 264q0 35 5 78l279 30q-6 -44 -6 -73q0 -70 40 -107t123 -37q116 0 163 68q35 52 85 293z" />
    <glyph glyph-name="K" unicode="K" horiz-adv-x="1479" 
d="M81 0l306 1466h302l-130 -623l678 623h404l-658 -575l483 -891h-341l-362 698l-285 -249l-94 -449h-303z" />
    <glyph glyph-name="L" unicode="L" 
d="M92 0l307 1466h301l-255 -1221h746l-51 -245h-1048z" />
    <glyph glyph-name="M" unicode="M" horiz-adv-x="1706" 
d="M927 0h-286l-53 1225l-233 -1225h-272l306 1466h430l45 -1027l500 1027h435l-307 -1466h-275l289 1216z" />
    <glyph glyph-name="N" unicode="N" horiz-adv-x="1479" 
d="M1256 0h-281l-396 985l-206 -985h-281l306 1466h282l397 -981l205 981h280z" />
    <glyph glyph-name="O" unicode="O" horiz-adv-x="1593" 
d="M179 575q0 130 39 274q51 193 155.5 335t263.5 224.5t362 82.5q272 0 439.5 -169t167.5 -448q0 -232 -109 -449t-296 -334t-423 -117q-205 0 -344 93t-197 230.5t-58 277.5zM477 581q0 -151 92 -253t242 -102q122 0 234.5 80.5t186 244t73.5 318.5q0 173 -93 271.5
t-237 98.5q-221 0 -359.5 -206t-138.5 -452z" />
    <glyph glyph-name="P" unicode="P" horiz-adv-x="1366" 
d="M385 0h-302l307 1466h596q159 0 251.5 -37.5t146.5 -124t54 -206.5q0 -111 -43 -216t-105.5 -168t-134.5 -95.5t-194 -49.5q-71 -10 -266 -10h-193zM552 802h93q239 0 319 30t126 96t46 145q0 53 -23.5 87t-66 49.5t-189.5 15.5h-216z" />
    <glyph glyph-name="Q" unicode="Q" horiz-adv-x="1593" 
d="M1078 29q-70 -27 -145 -41t-155 -14q-268 0 -433.5 167.5t-165.5 437.5q0 221 103 447t290.5 345.5t426.5 119.5q272 0 439 -168.5t167 -448.5q0 -214 -89.5 -410t-239.5 -318q96 -94 202 -154l-142 -187q-140 68 -258 224zM1103 355q91 92 146.5 238t55.5 275
q0 174 -93 272.5t-237 98.5q-99 0 -183 -45.5t-154.5 -131.5t-115 -213t-44.5 -254q0 -171 94.5 -269.5t241.5 -98.5q41 0 86 6q16 3 19.5 6t3.5 9q0 8 -30 36q-63 60 -134 86l110 168q135 -68 234 -183z" />
    <glyph glyph-name="R" unicode="R" horiz-adv-x="1479" 
d="M392 0h-302l307 1466h651q168 0 261.5 -34.5t151 -126.5t57.5 -223q0 -187 -112 -308.5t-339 -150.5q58 -52 109 -137q101 -172 225 -486h-324q-39 124 -153 387q-62 142 -132 191q-43 29 -150 29h-123zM565 827h160q243 0 322.5 29t124.5 91t45 130q0 80 -65 120
q-40 24 -173 24h-332z" />
    <glyph glyph-name="S" unicode="S" horiz-adv-x="1366" 
d="M130 475l287 15q6 -137 47 -185q66 -78 244 -78q148 0 214 53t66 128q0 65 -54 110q-38 33 -208.5 107t-249 123.5t-123.5 128.5t-45 185q0 185 134 307t388 122q258 0 399.5 -121t155.5 -322l-289 -13q-11 105 -76 161t-192 56q-125 0 -178.5 -44t-53.5 -111
q0 -63 49 -104q49 -42 217 -115q253 -109 322 -177q103 -100 103 -257q0 -194 -153.5 -331.5t-427.5 -137.5q-189 0 -327.5 63.5t-195.5 176.5t-53 260z" />
    <glyph glyph-name="T" unicode="T" 
d="M722 0h-302l256 1221h-430l51 245h1155l-51 -245h-424z" />
    <glyph glyph-name="U" unicode="U" horiz-adv-x="1479" 
d="M391 1466h301l-166 -796l-41 -196q-4 -25 -4 -47q0 -87 63.5 -143.5t184.5 -56.5q109 0 180 41t110 122t79 275l168 801h301l-167 -802q-53 -253 -122 -387t-209 -218t-354 -84q-256 0 -392 125.5t-136 322.5q0 41 7 89q4 32 35 182z" />
    <glyph glyph-name="V" unicode="V" horiz-adv-x="1366" 
d="M817 0h-322l-263 1466h301l186 -1109l607 1109h299z" />
    <glyph glyph-name="W" unicode="W" horiz-adv-x="1933" 
d="M1478 0h-305l-33 1072l-534 -1072h-311l-55 1466h295l13 -1026l503 1026h327l34 -1015l483 1015h292z" />
    <glyph glyph-name="X" unicode="X" horiz-adv-x="1366" 
d="M328 0h-390l647 742l-364 724h315l143 -275q7 -15 98 -203q6 -10 13 -27q122 149 205 244l231 261h379l-671 -772l361 -694h-340l-110 221q-86 175 -114 251q-39 -59 -201 -244z" />
    <glyph glyph-name="Y" unicode="Y" horiz-adv-x="1366" 
d="M821 0h-301l119 571l-404 895h321l182 -414q65 -149 87 -215q37 65 86 138l139 194l207 297h350l-672 -923z" />
    <glyph glyph-name="Z" unicode="Z" 
d="M51 0l48 231l844 990h-683l51 245h1057l-44 -230l-853 -996q136 3 157 3q96 0 265 2h346l-51 -245h-1137z" />
    <glyph glyph-name="bracketleft" unicode="[" horiz-adv-x="682" 
d="M554 -190l-45 -214h-489l391 1870h488l-46 -223h-219l-299 -1433h219z" />
    <glyph glyph-name="backslash" unicode="\" horiz-adv-x="569" 
d="M387 -25l-227 1516h201l227 -1516h-201z" />
    <glyph glyph-name="bracketright" unicode="]" horiz-adv-x="682" 
d="M232 1252l45 214h491l-391 -1870h-491l47 224h221l299 1432h-221z" />
    <glyph glyph-name="asciicircum" unicode="^" horiz-adv-x="1196" 
d="M215 692l376 799h223l366 -799h-284l-198 489l-197 -489h-286z" />
    <glyph glyph-name="underscore" unicode="_" horiz-adv-x="1139" 
d="M-19 -405v182h1168v-182h-1168z" />
    <glyph glyph-name="grave" unicode="`" horiz-adv-x="682" 
d="M274 1499h276l128 -299h-194z" />
    <glyph glyph-name="a" unicode="a" horiz-adv-x="1139" 
d="M487 761l-280 24q48 142 167.5 222t316.5 80q205 0 303 -82.5t98 -201.5q0 -48 -8.5 -102t-59.5 -284q-42 -190 -42 -266q0 -68 24 -151h-279q-17 58 -21 120q-63 -70 -145 -107.5t-165 -37.5q-132 0 -218 86.5t-86 222.5q0 152 94.5 243t337.5 110q205 17 274 41
q18 60 18 96q0 46 -37 77t-110 31q-77 0 -121.5 -31.5t-60.5 -89.5zM760 495q-26 -7 -69 -13q-216 -26 -282 -76q-47 -36 -47 -97q0 -50 36 -84.5t95 -34.5q65 0 122.5 31.5t86 81t50.5 154.5z" />
    <glyph glyph-name="b" unicode="b" 
d="M74 0l306 1466h288l-103 -490q79 60 147.5 85.5t149.5 25.5q168 0 269 -112.5t101 -327.5q0 -145 -47.5 -281.5t-127 -222t-167 -127t-183.5 -41.5q-228 0 -335 200l-37 -175h-261zM461 433q0 -107 60.5 -174t142.5 -67q72 0 137.5 52t109 166t43.5 230
q0 113 -58.5 177.5t-141.5 64.5q-108 0 -186 -100q-107 -137 -107 -349z" />
    <glyph glyph-name="c" unicode="c" horiz-adv-x="1139" 
d="M802 400l279 -45q-69 -186 -204 -283t-313 -97q-203 0 -322 121t-119 333q0 173 72 327t217 242.5t318 88.5q188 0 300 -98t126 -258l-273 -29q-10 89 -54.5 131t-116.5 42q-83 0 -155 -62t-110.5 -185.5t-38.5 -231.5q0 -94 46 -145t115 -51t133 50t100 150z" />
    <glyph glyph-name="d" unicode="d" 
d="M1063 0h-272l24 115q-78 -75 -153.5 -107.5t-170.5 -32.5q-165 0 -267.5 112.5t-102.5 332.5q0 255 144 461t381 206q214 0 321 -170l115 549h287zM400 432q0 -114 57.5 -178t141.5 -64q78 0 145.5 53.5t108 163.5t40.5 211q0 115 -62 186t-143 71q-126 0 -207 -140
t-81 -303z" />
    <glyph glyph-name="e" unicode="e" horiz-adv-x="1139" 
d="M1116 442h-720q-1 -17 -1 -26q0 -106 60.5 -171t147.5 -65q143 0 223 148l257 -43q-75 -155 -200.5 -232.5t-281.5 -77.5q-214 0 -348 135.5t-134 358.5q0 218 121 388q165 230 471 230q195 0 310 -120.5t115 -337.5q0 -104 -20 -187zM874 617q1 19 1 29q0 118 -53 177
t-142 59t-159.5 -67t-95.5 -198h449z" />
    <glyph glyph-name="f" unicode="f" horiz-adv-x="682" 
d="M822 1062l-44 -210h-203l-178 -852h-287l178 852h-160l44 210h160l23 109q28 134 53 181q34 64 101.5 101.5t176.5 37.5q132 0 278 -48l-56 -205q-103 35 -167 35q-49 0 -73 -31q-16 -20 -33 -105l-16 -75h203z" />
    <glyph glyph-name="g" unicode="g" 
d="M67 -56l303 -44q0 -46 15 -69.5t48.5 -40t91.5 -16.5q91 0 146 36q41 28 67 90q16 39 41 170l10 50q-149 -124 -308 -124q-156 0 -256 110t-100 322q0 187 68 343t191 236t251 80q106 0 194 -56t137 -157l40 188h269l-184 -885q-45 -213 -76 -304t-71 -145t-101 -90.5
t-144 -52.5t-180 -16q-225 0 -340 77t-115 256q0 19 3 42zM405 457q0 -121 54.5 -184.5t136.5 -63.5q75 0 145.5 57t108 162t37.5 203q0 113 -61 182t-141 69q-77 0 -141.5 -61t-106.5 -188q-32 -98 -32 -176z" />
    <glyph glyph-name="h" unicode="h" 
d="M373 0h-287l307 1466h287l-110 -522q97 76 181 109.5t180 33.5q129 0 204 -74t75 -194q0 -64 -28 -198l-130 -621h-287l133 633q21 103 21 132q0 53 -33 85t-90 32q-72 0 -138 -50q-86 -66 -131 -162q-25 -53 -66 -249z" />
    <glyph glyph-name="i" unicode="i" horiz-adv-x="569" 
d="M388 1466h287l-54 -260h-287zM304 1062h287l-222 -1062h-287z" />
    <glyph glyph-name="j" unicode="j" horiz-adv-x="569" 
d="M390 1466h288l-54 -260h-288zM306 1062h288l-189 -899q-80 -385 -137 -467q-86 -127 -276 -127q-118 0 -216 32l45 237q69 -17 116 -17q58 0 93 45t92 316z" />
    <glyph glyph-name="k" unicode="k" horiz-adv-x="1139" 
d="M77 0l307 1466h287l-160 -763l374 359h373l-427 -386l227 -676h-287l-146 491l-194 -172l-67 -319h-287z" />
    <glyph glyph-name="l" unicode="l" horiz-adv-x="569" 
d="M80 0l307 1466h286l-306 -1466h-287z" />
    <glyph glyph-name="m" unicode="m" horiz-adv-x="1821" 
d="M295 1062h270l-27 -129q158 154 332 154q120 0 185 -50t83 -138q55 80 158 134t214 54q127 0 198 -68t71 -180q0 -55 -28 -190l-136 -649h-287l136 649q25 122 25 138q0 44 -26.5 69.5t-79.5 25.5q-107 0 -191 -113q-61 -81 -104 -287l-101 -482h-287l134 642
q23 111 23 144q0 42 -28.5 69t-78.5 27q-47 0 -97 -28t-87.5 -77t-64.5 -126q-12 -36 -39 -163l-102 -488h-287z" />
    <glyph glyph-name="n" unicode="n" 
d="M308 1062h272l-28 -138q102 88 190.5 125.5t186.5 37.5q131 0 206.5 -75t75.5 -199q0 -56 -33 -212l-125 -601h-287l126 603q28 135 28 161q0 55 -32.5 86.5t-90.5 31.5q-63 0 -140 -53t-121 -140q-32 -62 -72 -253l-91 -436h-287z" />
    <glyph glyph-name="o" unicode="o" 
d="M124 441q0 295 166.5 470.5t437.5 175.5q235 0 367 -129.5t132 -348.5q0 -258 -165 -446t-442 -188q-150 0 -266 60t-173 170t-57 236zM942 646q0 102 -59.5 163.5t-153.5 61.5q-93 0 -165 -57.5t-112 -167t-40 -201.5q0 -114 62 -181t156 -67q118 0 198 101
q114 143 114 348z" />
    <glyph glyph-name="p" unicode="p" 
d="M295 1062h272l-23 -109q87 72 163 103t163 31q167 0 268.5 -115t101.5 -343q0 -287 -175 -485q-150 -169 -355 -169q-211 0 -319 171l-115 -551h-287zM468 453q0 -124 60.5 -192.5t142.5 -68.5q71 0 137 51.5t109.5 171t43.5 221.5q0 119 -57 182.5t-145 63.5
q-82 0 -149.5 -58.5t-104.5 -172t-37 -198.5z" />
    <glyph glyph-name="q" unicode="q" 
d="M1016 1062h264l-306 -1467h-287l103 495q-76 -62 -143 -88.5t-152 -26.5q-169 0 -271 113t-102 329q0 171 69 333t191.5 249.5t265.5 87.5q230 0 333 -192zM399 422q0 -107 58 -170t140 -63q73 0 141 49.5t110.5 163.5t42.5 219q0 119 -61 186.5t-141 67.5
q-66 0 -134.5 -52t-112 -171.5t-43.5 -229.5z" />
    <glyph glyph-name="r" unicode="r" horiz-adv-x="797" 
d="M288 1062h268l-43 -206q150 231 325 231q62 0 133 -31l-110 -235q-39 14 -83 14q-74 0 -150.5 -56t-119.5 -149.5t-85 -296.5l-70 -333h-287z" />
    <glyph glyph-name="s" unicode="s" horiz-adv-x="1139" 
d="M45 297l278 44q37 -88 92 -124.5t150 -36.5q98 0 157 44q41 30 41 73q0 29 -21 52q-22 22 -119 54q-260 86 -322 136q-97 78 -97 204t94 217q131 127 389 127q205 0 310 -75t133 -203l-265 -46q-21 58 -68 87q-64 39 -154 39t-129.5 -30t-39.5 -69q0 -40 40 -66
q25 -16 161 -56q210 -61 281 -120q100 -83 100 -200q0 -151 -127 -262t-358 -111q-230 0 -355.5 84.5t-170.5 237.5z" />
    <glyph glyph-name="t" unicode="t" horiz-adv-x="682" 
d="M154 849l44 213h140l35 170l329 198l-77 -368h175l-44 -213h-176l-93 -445q-25 -121 -25 -138q0 -33 21 -51.5t76 -18.5q19 0 95 7l-45 -213q-74 -15 -152 -15q-152 0 -221 58.5t-69 162.5q0 49 37 226l89 427h-139z" />
    <glyph glyph-name="u" unicode="u" 
d="M302 1062h287l-131 -629q-24 -113 -24 -141q0 -46 34 -79t87 -33q38 0 75 14.5t76 44t70 67.5t58 100q19 46 41 150l106 506h287l-222 -1062h-268l30 144q-176 -169 -383 -169q-131 0 -206 75t-75 201q0 55 34 219z" />
    <glyph glyph-name="v" unicode="v" horiz-adv-x="1139" 
d="M613 0h-247l-213 1062h282l75 -463q31 -188 37 -250q8 17 69.5 129.5t75.5 135.5l264 448h310z" />
    <glyph glyph-name="w" unicode="w" horiz-adv-x="1593" 
d="M1192 0h-270l-52 676l-324 -676h-266l-133 1062h255l74 -712l331 712h261l36 -712l329 712h288z" />
    <glyph glyph-name="x" unicode="x" horiz-adv-x="1139" 
d="M571 298l-264 -298h-352l491 544l-270 518h305l155 -303l269 303h349l-493 -551l268 -511h-305z" />
    <glyph glyph-name="y" unicode="y" horiz-adv-x="1139" 
d="M171 1062h286l72 -529q27 -204 30 -286q56 163 154 344l254 471h304l-656 -1166q-81 -145 -127.5 -203t-112 -91t-157.5 -33q-91 0 -205 32l25 214q52 -15 101 -15q132 0 217 200z" />
    <glyph glyph-name="z" unicode="z" horiz-adv-x="1024" 
d="M34 0l41 194l582 644h-475l47 224h833l-35 -171l-587 -659h511l-49 -232h-868z" />
    <glyph glyph-name="braceleft" unicode="{" horiz-adv-x="797" 
d="M86 410l52 240q73 4 115.5 22.5t78.5 63t58 103.5t49 187q38 183 77 260t93.5 119.5t149.5 68.5q63 17 193 17h52l-51 -239q-114 0 -151 -14.5t-55 -44.5q-14 -21 -45 -147q-56 -222 -75 -270q-36 -87 -85 -141.5t-138 -104.5q59 -39 87 -94.5t28 -145.5q0 -35 -12 -107
q-33 -195 -41.5 -231t-8.5 -60q0 -27 14.5 -46t42.5 -28t125 -9l-52 -240h-53q-138 0 -206 22.5t-105 74.5t-37 134q0 67 35 226.5t35 212.5q0 87 -37.5 126.5t-132.5 44.5z" />
    <glyph glyph-name="bar" unicode="|" horiz-adv-x="573" 
d="M176 -431v1922h223v-1922h-223z" />
    <glyph glyph-name="braceright" unicode="}" horiz-adv-x="797" 
d="M692 410q-89 -4 -140.5 -36t-88.5 -103.5t-73 -245t-75 -250.5t-93.5 -119.5t-148.5 -68.5q-64 -18 -194 -18h-53l52 240q108 0 147 15t59 46q14 21 45 144q55 220 72 264q35 87 89 148.5t136 103.5q-66 49 -91 100t-25 140q0 36 12 106q32 192 41 231.5t9 66.5t-12.5 44
t-41 25.5t-128.5 8.5l52 239h53q138 0 206 -22.5t105 -74t37 -132.5q0 -68 -35 -227.5t-35 -212.5q0 -87 37.5 -127t133.5 -45z" />
    <glyph glyph-name="asciitilde" unicode="~" horiz-adv-x="1196" 
d="M137 519v259q71 77 155 112q61 26 145 26q63 0 121 -15t209 -77q100 -41 158 -41q143 0 274 141v-270q-48 -50 -131.5 -92t-160.5 -42q-51 0 -102.5 13t-152.5 58q-154 67 -242 67q-140 0 -273 -139z" />
    <glyph glyph-name="exclamdown" unicode="&#xa1;" horiz-adv-x="682" 
d="M566 784h-284l58 278h284zM332 689h158l-92 -749l-72 -344h-302l77 370z" />
    <glyph glyph-name="cent" unicode="&#xa2;" horiz-adv-x="1139" 
d="M347 18q-102 47 -164.5 155t-62.5 258q0 180 76 334.5t220 238t305 83.5q30 0 64 -3l155 378l121 -49l-147 -359q103 -41 167 -125t71 -198l-252 -26q-10 95 -69 148l-271 -661q11 -1 16 -1q68 0 130 48t107 160l264 -41q-64 -184 -198.5 -283.5t-308.5 -99.5
q-44 0 -96 8l-155 -378l-122 48zM439 243l268 651q-96 -6 -170 -75t-110.5 -189.5t-36.5 -225.5q0 -108 49 -161z" />
    <glyph glyph-name="sterling" unicode="&#xa3;" horiz-adv-x="1139" 
d="M333 841q-17 86 -17 164q0 209 141 347.5t359 138.5q190 0 305.5 -107t128.5 -289l-257 -25q-17 107 -65.5 153t-122.5 46q-92 0 -158.5 -75.5t-66.5 -210.5q0 -50 15 -142h253l-47 -224h-195q-6 -113 -52 -201.5t-160 -191.5q74 30 148 30q38 0 98 -11q86 -16 136 -16
q111 0 228 53l86 -244q-87 -36 -136 -47q-65 -14 -133 -14q-98 0 -233.5 37t-221.5 37q-137 0 -294 -86l-30 259q100 43 174.5 120t106.5 146q24 50 33 129h-230l47 224h160z" />
    <glyph glyph-name="currency" unicode="&#xa4;" horiz-adv-x="1139" 
d="M267 941l-132 131l166 178l136 -136q53 29 107.5 43t110.5 14q57 0 112 -14t107 -43l134 134l167 -169l-132 -133q28 -51 42 -105.5t14 -112.5q0 -57 -14 -111.5t-42 -106.5l134 -133l-167 -171l-136 136q-50 -28 -104.5 -42.5t-113.5 -14.5q-56 0 -110 14t-106 42
l-130 -131l-170 168l130 132q-28 52 -42.5 106.5t-14.5 111.5t13.5 110.5t40.5 102.5zM454 728q0 -84 59.5 -143t142.5 -59q84 0 143 59t59 143t-59 143t-143 59t-143 -59t-59 -143z" />
    <glyph glyph-name="yen" unicode="&#xa5;" horiz-adv-x="1139" 
d="M647 0h-283l58 278h-373l40 193h373l27 127h-373l40 193h272l-204 675h292l71 -259q27 -101 79 -368q121 241 245 432l127 195h327l-463 -675h279l-40 -193h-369l-26 -127h368l-40 -193h-368z" />
    <glyph glyph-name="brokenbar" unicode="&#xa6;" horiz-adv-x="573" 
d="M176 701v790h223v-790h-223zM176 -431v791h223v-791h-223z" />
    <glyph glyph-name="section" unicode="&#xa7;" horiz-adv-x="1139" 
d="M44 -87l261 59q27 -110 79 -155.5t129 -45.5q68 0 103 32t35 79q0 34 -27.5 77.5t-260.5 267.5q-124 118 -174 198.5t-50 172.5q0 118 67 205.5t201 159.5q-60 97 -60 191q0 138 101 237.5t301 99.5q181 0 279 -85t119 -256l-259 -25q-6 88 -45.5 128t-104.5 40
q-61 0 -96.5 -35t-35.5 -91q0 -41 24 -82t148 -153q214 -192 264 -281t50 -179q0 -104 -66 -197t-194 -157q84 -117 84 -223q0 -135 -108.5 -232t-300.5 -97q-188 0 -310.5 96t-152.5 251zM521 819q-79 -49 -106.5 -91.5t-27.5 -91.5q0 -48 34 -95q22 -29 172 -174
q105 -101 113 -109q71 27 116 82q29 35 29 80q0 38 -24 80.5t-108 123.5q-185 180 -198 195z" />
    <glyph glyph-name="dieresis" unicode="&#xa8;" horiz-adv-x="682" 
d="M224 1468h246l-51 -245h-246zM645 1468h246l-51 -245h-246z" />
    <glyph glyph-name="copyright" unicode="&#xa9;" horiz-adv-x="1509" 
d="M855 1496q197 0 378 -99t284.5 -282.5t103.5 -384.5q0 -200 -101.5 -381.5t-283 -283t-381.5 -101.5t-381.5 101.5t-283 283t-101.5 381.5q0 201 103.5 384.5t284.5 282.5t378 99zM855 1345q-158 0 -303.5 -79t-228.5 -226.5t-83 -309.5q0 -160 81.5 -306t227.5 -227.5
t306 -81.5t306 81.5t227.5 227.5t81.5 306q0 161 -83 309t-228.5 227t-303.5 79zM1041 616l161 -54q-38 -126 -126 -193t-210 -67q-171 0 -279 112t-108 309q0 129 48 230t138.5 151t202.5 50q123 0 205.5 -58.5t128.5 -184.5l-162 -38q-28 73 -72.5 106t-105.5 33
q-91 0 -149 -68.5t-58 -214.5t57 -215t137 -69q67 0 116 39.5t76 131.5z" />
    <glyph glyph-name="ordfeminine" unicode="&#xaa;" horiz-adv-x="758" 
d="M427 1253l-192 26q42 102 126 157t211 55q140 0 206 -56.5t66 -141.5q0 -70 -41.5 -229.5t-41.5 -200.5q0 -53 21 -104h-192q-8 22 -11 47q-91 -63 -197 -63q-98 0 -156 57.5t-58 145.5q0 80 46.5 135t137.5 78q58 14 284 37q14 53 14 81q0 25 -21 41.5t-67 16.5
q-90 0 -135 -82zM592 1054q-163 -19 -195.5 -41.5t-32.5 -58.5q0 -28 21 -47.5t56 -19.5q54 0 91 34.5t60 132.5z" />
    <glyph glyph-name="guillemotleft" unicode="&#xab;" horiz-adv-x="1139" 
d="M577 553l389 424h244l-354 -446l127 -460h-206zM168 552l412 425h241l-361 -444l132 -462h-201z" />
    <glyph glyph-name="logicalnot" unicode="&#xac;" horiz-adv-x="1196" 
d="M933 376v441h-768v257h1025v-698h-257z" />
    <glyph glyph-name="registered" unicode="&#xae;" horiz-adv-x="1509" 
d="M855 1496q197 0 378 -98.5t284.5 -282.5t103.5 -385q0 -200 -101.5 -381.5t-283 -283t-381.5 -101.5t-381.5 101.5t-283 283t-101.5 381.5q0 201 103.5 385t284.5 282.5t378 98.5zM856 1346q-158 0 -303 -79t-228.5 -227t-83.5 -310q0 -161 81.5 -307t227.5 -228t306 -82
q161 0 306.5 82t227.5 228t82 307q0 162 -83.5 310t-229 227t-303.5 79zM509 320v813h165q232 0 260 -2q82 -7 127.5 -32.5t76 -78t30.5 -116.5q0 -88 -57.5 -150.5t-161.5 -77.5q37 -14 57 -30.5t55 -62.5q9 -12 60 -99l96 -164h-204l-68 132q-69 133 -114 167.5t-114 34.5
h-43v-334h-165zM674 782h67q143 0 177.5 11t54.5 38.5t20 62.5q0 34 -19.5 60.5t-55.5 38t-177 11.5h-67v-222z" />
    <glyph glyph-name="macron" unicode="&#xaf;" horiz-adv-x="1131" 
d="M140 1552v183h1168v-183h-1168z" />
    <glyph glyph-name="degree" unicode="&#xb0;" horiz-adv-x="819" 
d="M225 1172q0 133 93.5 226t225.5 93t225.5 -93.5t93.5 -225.5t-93.5 -225.5t-225.5 -93.5t-225.5 93.5t-93.5 225.5zM391 1172q0 -63 45 -108t108 -45t108 45t45 108t-45 108t-108 45t-108 -45t-45 -108z" />
    <glyph glyph-name="plusminus" unicode="&#xb1;" horiz-adv-x="1124" 
d="M514 356v381h-384v263h384v381h256v-381h385v-263h-385v-381h-256zM130 0v263h1025v-263h-1025z" />
    <glyph glyph-name="uni00B2" unicode="&#xb2;" horiz-adv-x="682" 
d="M437 1226l-189 23q22 115 96.5 175t195.5 60q132 0 201.5 -61t69.5 -148q0 -62 -46 -132t-215 -192q-26 -18 -78 -66h284l-39 -158h-549q13 87 58.5 150t217.5 201q132 104 155.5 139t23.5 59q0 29 -21 49t-58 20q-39 0 -65 -25t-42 -94z" />
    <glyph glyph-name="uni00B3" unicode="&#xb3;" horiz-adv-x="682" 
d="M156 944l186 18q10 -61 32.5 -82t64.5 -21q56 0 88.5 30t32.5 72q0 37 -25.5 60t-73.5 23q-17 0 -46 -5l38 150q18 -2 30 -2q62 0 92 26.5t30 66.5q0 28 -17 43q-22 19 -58 19q-35 0 -60.5 -22t-42.5 -79l-180 30q34 93 81 135q85 78 215 78q122 0 188.5 -59t66.5 -141
q0 -43 -19 -81.5t-49 -57.5q-41 -25 -48 -31l-1 -7q4 -6 35 -34q40 -37 40 -109q0 -91 -89.5 -170t-228.5 -79q-122 0 -193.5 59t-88.5 170z" />
    <glyph glyph-name="acute" unicode="&#xb4;" horiz-adv-x="682" 
d="M585 1496h306l-324 -300h-191z" />
    <glyph glyph-name="mu" unicode="&#xb5;" horiz-adv-x="1180" 
d="M235 1062h287l-102 -492l-26 -120q-6 -41 -6 -79q0 -82 47.5 -132t116.5 -50q79 0 141 62.5t103 254.5l117 556h284l-224 -1062h-256l21 99q-79 -81 -122 -102.5t-93 -21.5q-66 0 -112.5 31t-89.5 107l-110 -524h-287z" />
    <glyph glyph-name="paragraph" unicode="&#xb6;" horiz-adv-x="1139" 
d="M727 -403h-243v1047q-190 14 -292 122t-102 286q0 105 41 192.5t110.5 138.5t163.5 71q56 12 219 12h597v-261h-113v-1608h-237v1608h-144v-1608z" />
    <glyph glyph-name="periodcentered" unicode="&#xb7;" horiz-adv-x="682" 
d="M338 872h283l-57 -278h-284z" />
    <glyph glyph-name="cedilla" unicode="&#xb8;" horiz-adv-x="682" 
d="M14 -421l48 116l57 -1q85 0 163 24q49 15 66 35.5t17 42.5q0 29 -26.5 49.5t-89.5 20.5q-32 0 -90 -9l34 99q72 18 131 18q110 0 166.5 -48t56.5 -117q0 -84 -88 -146q-122 -88 -348 -88q-63 0 -97 4z" />
    <glyph glyph-name="uni00B9" unicode="&#xb9;" horiz-adv-x="682" 
d="M235 1141l39 155q123 48 175 75q102 54 170 115h122l-188 -759h-196l123 492q-118 -56 -245 -78z" />
    <glyph glyph-name="ordmasculine" unicode="&#xba;" horiz-adv-x="748" 
d="M148 1050q0 171 105 306t280 135q141 0 228.5 -86.5t87.5 -220.5q0 -96 -48.5 -208t-138 -173t-204.5 -61q-140 0 -225 85.5t-85 222.5zM350 1026q0 -53 30 -84t79 -31q82 0 134 97.5t52 200.5q0 54 -29.5 84.5t-78.5 30.5q-82 0 -134.5 -95t-52.5 -203z" />
    <glyph glyph-name="guillemotright" unicode="&#xbb;" horiz-adv-x="1139" 
d="M679 496l-389 -425h-244l353 447l-126 459h206zM1088 497l-413 -426h-240l361 445l-133 461h202z" />
    <glyph glyph-name="onequarter" unicode="&#xbc;" horiz-adv-x="1708" 
d="M235 1139l39 155q123 48 175 75q102 55 170 115h122l-188 -758h-196l123 491q-118 -56 -245 -78zM378 -61h-174l1342 1545h174zM1377 106h-352l35 141l474 465h167l-114 -466h105l-37 -140h-105l-37 -148h-173zM1415 246l60 227l-227 -227h167z" />
    <glyph glyph-name="onehalf" unicode="&#xbd;" horiz-adv-x="1708" 
d="M235 1139l39 155q6 3 15 6q201 70 330 184h123l-189 -758h-196l123 491l-20 -9q-98 -47 -225 -69zM348 -61h-174l1342 1545h174zM1337 457l-190 23q23 115 97 175t196 60q132 0 201.5 -61t69.5 -148q0 -62 -46.5 -132t-214.5 -192q-26 -19 -78 -66h284l-39 -158h-549
q12 86 58 149.5t218 200.5q131 105 155 140t24 59q0 29 -21.5 48.5t-57.5 19.5q-39 0 -65 -24.5t-42 -93.5z" />
    <glyph glyph-name="threequarters" unicode="&#xbe;" horiz-adv-x="1708" 
d="M155 944l186 18q10 -61 32.5 -82t64.5 -21q56 0 88.5 30t32.5 72q0 37 -25.5 60t-73.5 23q-17 0 -46 -5l38 150q18 -2 30 -2q62 0 92 26.5t30 66.5q0 28 -17 43q-22 19 -58 19q-35 0 -60.5 -22t-42.5 -79l-180 30q34 93 81 135q85 78 215 78q122 0 188.5 -59t66.5 -141
q0 -43 -19 -81.5t-49 -57.5q-41 -25 -48 -31l-1 -7q4 -6 35 -34q40 -37 40 -109q0 -91 -89.5 -170t-228.5 -79q-122 0 -193.5 59t-88.5 170zM402 -61h-174l1342 1545h174zM1377 106h-352l35 141l474 465h166l-113 -466h104l-37 -140h-105l-37 -148h-172zM1414 246l61 227
l-227 -227h166z" />
    <glyph glyph-name="questiondown" unicode="&#xbf;" 
d="M909 784h-284l58 278h284zM621 696h258q-20 -134 -83.5 -232.5t-254.5 -264.5q-161 -140 -189.5 -185.5t-28.5 -87.5q0 -62 49 -103t150 -41q112 0 183 61t102 194l262 -46q-50 -194 -196.5 -307t-355.5 -113q-218 0 -340 108.5t-122 258.5q0 89 52 176t285 281
q146 122 180 170t49 131z" />
    <glyph glyph-name="Agrave" unicode="&#xc0;" horiz-adv-x="1479" 
d="M0 0zM1044 324h-581l-176 -324h-310l829 1466h335l238 -1466h-286zM1007 568l-85 590l-354 -590h439zM758 1854h276l128 -299h-194z" />
    <glyph glyph-name="Aacute" unicode="&#xc1;" horiz-adv-x="1479" 
d="M0 0zM1044 324h-581l-176 -324h-310l829 1466h335l238 -1466h-286zM1007 568l-85 590l-354 -590h439zM1099 1851h306l-324 -300h-191z" />
    <glyph glyph-name="Acircumflex" unicode="&#xc2;" horiz-adv-x="1479" 
d="M0 0zM1044 324h-581l-176 -324h-310l829 1466h335l238 -1466h-286zM1007 568l-85 590l-354 -590h439zM1011 1731l-176 -178h-236l297 301h268l122 -301h-198z" />
    <glyph glyph-name="Atilde" unicode="&#xc3;" horiz-adv-x="1479" 
d="M0 0zM1044 324h-581l-176 -324h-310l829 1466h335l238 -1466h-286zM1007 568l-85 590l-354 -590h439zM764 1548h-126q27 122 64 171q54 70 134 70q52 0 186 -49q78 -28 107 -28q23 0 39 14.5t30 63.5h128q-19 -123 -75.5 -181.5t-126.5 -58.5q-45 0 -144 40t-126 40
q-30 0 -52 -17.5t-38 -64.5z" />
    <glyph glyph-name="Adieresis" unicode="&#xc4;" horiz-adv-x="1479" 
d="M0 0zM1044 324h-581l-176 -324h-310l829 1466h335l238 -1466h-286zM1007 568l-85 590l-354 -590h439zM727 1794h246l-51 -245h-246zM1148 1794h246l-51 -245h-246z" />
    <glyph glyph-name="Aring" unicode="&#xc5;" horiz-adv-x="1479" 
d="M0 0zM1044 305h-581l-176 -324h-310l829 1466h335l238 -1466h-286zM1007 549l-85 590l-354 -590h439zM781 1556q0 80 56.5 136.5t136.5 56.5t136.5 -56.5t56.5 -136.5t-56.5 -136.5t-136.5 -56.5t-136.5 56.5t-56.5 136.5zM890 1556q0 -35 24.5 -59.5t59.5 -24.5
t59.5 24.5t24.5 59.5t-24.5 60t-59.5 25t-59.5 -25t-24.5 -60z" />
    <glyph glyph-name="AE" unicode="&#xc6;" horiz-adv-x="2048" 
d="M941 367h-489l-208 -367h-310l852 1466h1383l-51 -245h-718l-70 -335h690l-52 -245h-689l-83 -396h775l-51 -245h-1056zM992 612l127 609h-179l-346 -609h398z" />
    <glyph glyph-name="Ccedilla" unicode="&#xc7;" horiz-adv-x="1479" 
d="M194 0zM1146 528l304 -46q-89 -247 -267 -377.5t-417 -130.5q-269 0 -420.5 162t-151.5 470q0 250 101.5 457.5t281.5 317.5t392 110q238 0 385 -127.5t173 -347.5l-289 -28q-24 128 -92.5 185.5t-182.5 57.5q-125 0 -233.5 -76t-173.5 -237.5t-65 -322.5
q0 -176 84.5 -272t210.5 -96q117 0 214.5 76t145.5 225zM406 -415l48 116l57 -1q85 0 163 24q49 15 66 35.5t17 42.5q0 29 -26.5 49.5t-89.5 20.5q-32 0 -90 -9l34 99q72 18 131 18q110 0 166.5 -48t56.5 -117q0 -84 -88 -146q-122 -88 -348 -88q-63 0 -97 4z" />
    <glyph glyph-name="Egrave" unicode="&#xc8;" horiz-adv-x="1366" 
d="M84 0zM84 0l306 1466h1087l-51 -245h-785l-70 -333h759l-51 -245h-759l-92 -398h853l-52 -245h-1145zM781 1854h276l128 -299h-194z" />
    <glyph glyph-name="Eacute" unicode="&#xc9;" horiz-adv-x="1366" 
d="M84 0zM84 0l306 1466h1087l-51 -245h-785l-70 -333h759l-51 -245h-759l-92 -398h853l-52 -245h-1145zM1075 1851h306l-324 -300h-191z" />
    <glyph glyph-name="Ecircumflex" unicode="&#xca;" horiz-adv-x="1366" 
d="M84 0zM84 0l306 1466h1087l-51 -245h-785l-70 -333h759l-51 -245h-759l-92 -398h853l-52 -245h-1145zM978 1731l-176 -178h-236l297 301h268l122 -301h-198z" />
    <glyph glyph-name="Edieresis" unicode="&#xcb;" horiz-adv-x="1366" 
d="M84 0zM84 0l306 1466h1087l-51 -245h-785l-70 -333h759l-51 -245h-759l-92 -398h853l-52 -245h-1145zM679 1794h246l-51 -245h-246zM1100 1794h246l-51 -245h-246z" />
    <glyph glyph-name="Igrave" unicode="&#xcc;" horiz-adv-x="569" 
d="M71 0zM71 0l307 1466h301l-306 -1466h-302zM380 1854h276l128 -299h-194z" />
    <glyph glyph-name="Iacute" unicode="&#xcd;" horiz-adv-x="569" 
d="M71 0zM71 0l307 1466h301l-306 -1466h-302zM618 1851h306l-324 -300h-191z" />
    <glyph glyph-name="Icircumflex" unicode="&#xce;" horiz-adv-x="569" 
d="M71 0zM71 0l307 1466h301l-306 -1466h-302zM598 1731l-176 -178h-236l297 301h268l122 -301h-198z" />
    <glyph glyph-name="Idieresis" unicode="&#xcf;" horiz-adv-x="569" 
d="M71 0zM71 0l307 1466h301l-306 -1466h-302zM260 1794h246l-51 -245h-246zM681 1794h246l-51 -245h-246z" />
    <glyph glyph-name="Eth" unicode="&#xd0;" horiz-adv-x="1479" 
d="M89 0l137 641h-151l38 178h150l138 647h390q166 0 212 -5q91 -9 162.5 -37t129.5 -78.5t101 -121.5t66 -163.5t23 -202.5q0 -238 -90 -418.5t-208.5 -277.5t-284.5 -138q-96 -24 -296 -24h-517zM441 236h152q166 0 240.5 20.5t136.5 76.5q90 82 150.5 216.5t60.5 317.5
q0 156 -50.5 234.5t-123.5 104.5q-53 18 -186 18h-170l-86 -405h313l-38 -177h-313z" />
    <glyph glyph-name="Ntilde" unicode="&#xd1;" horiz-adv-x="1479" 
d="M92 0zM1256 0h-281l-396 985l-206 -985h-281l306 1466h282l397 -981l205 981h280zM782 1548h-126q27 122 64 171q54 70 134 70q52 0 186 -49q78 -28 107 -28q23 0 39 14.5t30 63.5h128q-19 -123 -75.5 -181.5t-126.5 -58.5q-45 0 -144 40t-126 40q-30 0 -52 -17.5
t-38 -64.5z" />
    <glyph glyph-name="Ograve" unicode="&#xd2;" horiz-adv-x="1593" 
d="M179 0zM179 575q0 130 39 274q51 193 155.5 335t263.5 224.5t362 82.5q272 0 439.5 -169t167.5 -448q0 -232 -109 -449t-296 -334t-423 -117q-205 0 -344 93t-197 230.5t-58 277.5zM477 581q0 -151 92 -253t242 -102q122 0 234.5 80.5t186 244t73.5 318.5
q0 173 -93 271.5t-237 98.5q-221 0 -359.5 -206t-138.5 -452zM771 1854h276l128 -299h-194z" />
    <glyph glyph-name="Oacute" unicode="&#xd3;" horiz-adv-x="1593" 
d="M179 0zM179 575q0 130 39 274q51 193 155.5 335t263.5 224.5t362 82.5q272 0 439.5 -169t167.5 -448q0 -232 -109 -449t-296 -334t-423 -117q-205 0 -344 93t-197 230.5t-58 277.5zM477 581q0 -151 92 -253t242 -102q122 0 234.5 80.5t186 244t73.5 318.5
q0 173 -93 271.5t-237 98.5q-221 0 -359.5 -206t-138.5 -452zM1159 1851h306l-324 -300h-191z" />
    <glyph glyph-name="Ocircumflex" unicode="&#xd4;" horiz-adv-x="1593" 
d="M179 0zM179 575q0 130 39 274q51 193 155.5 335t263.5 224.5t362 82.5q272 0 439.5 -169t167.5 -448q0 -232 -109 -449t-296 -334t-423 -117q-205 0 -344 93t-197 230.5t-58 277.5zM477 581q0 -151 92 -253t242 -102q122 0 234.5 80.5t186 244t73.5 318.5
q0 173 -93 271.5t-237 98.5q-221 0 -359.5 -206t-138.5 -452zM1093 1731l-176 -178h-236l297 301h268l122 -301h-198z" />
    <glyph glyph-name="Otilde" unicode="&#xd5;" horiz-adv-x="1593" 
d="M179 0zM179 575q0 130 39 274q51 193 155.5 335t263.5 224.5t362 82.5q272 0 439.5 -169t167.5 -448q0 -232 -109 -449t-296 -334t-423 -117q-205 0 -344 93t-197 230.5t-58 277.5zM477 581q0 -151 92 -253t242 -102q122 0 234.5 80.5t186 244t73.5 318.5
q0 173 -93 271.5t-237 98.5q-221 0 -359.5 -206t-138.5 -452zM800 1548h-126q27 122 64 171q54 70 134 70q52 0 186 -49q78 -28 107 -28q23 0 39 14.5t30 63.5h128q-19 -123 -75.5 -181.5t-126.5 -58.5q-45 0 -144 40t-126 40q-30 0 -52 -17.5t-38 -64.5z" />
    <glyph glyph-name="Odieresis" unicode="&#xd6;" horiz-adv-x="1593" 
d="M179 0zM179 575q0 130 39 274q51 193 155.5 335t263.5 224.5t362 82.5q272 0 439.5 -169t167.5 -448q0 -232 -109 -449t-296 -334t-423 -117q-205 0 -344 93t-197 230.5t-58 277.5zM477 581q0 -151 92 -253t242 -102q122 0 234.5 80.5t186 244t73.5 318.5
q0 173 -93 271.5t-237 98.5q-221 0 -359.5 -206t-138.5 -452zM709 1794h246l-51 -245h-246zM1130 1794h246l-51 -245h-246z" />
    <glyph glyph-name="multiply" unicode="&#xd7;" horiz-adv-x="1196" 
d="M191 420l302 302l-304 303l186 186l304 -303l302 302l181 -182l-302 -302l305 -305l-186 -186l-305 305l-302 -302z" />
    <glyph glyph-name="Oslash" unicode="&#xd8;" horiz-adv-x="1593" 
d="M309 172q-138 167 -138 398q0 234 105 460t292 343.5t421 117.5q206 0 344 -89l140 168l138 -114l-144 -173q131 -160 131 -410q0 -238 -112.5 -455t-298 -330t-411.5 -113q-198 0 -329 80l-147 -177l-141 114zM506 409l646 775q-79 55 -186 55q-125 0 -241 -83
t-185.5 -245t-69.5 -320q0 -95 36 -182zM1265 1040l-638 -768q84 -55 181 -55q118 0 230.5 80t189 244t76.5 332q0 81 -39 167z" />
    <glyph glyph-name="Ugrave" unicode="&#xd9;" horiz-adv-x="1479" 
d="M187 0zM391 1466h301l-166 -796l-41 -196q-4 -25 -4 -47q0 -87 63.5 -143.5t184.5 -56.5q109 0 180 41t110 122t79 275l168 801h301l-167 -802q-53 -253 -122 -387t-209 -218t-354 -84q-256 0 -392 125.5t-136 322.5q0 41 7 89q4 32 35 182zM737 1854h276l128 -299h-194z
" />
    <glyph glyph-name="Uacute" unicode="&#xda;" horiz-adv-x="1479" 
d="M187 0zM391 1466h301l-166 -796l-41 -196q-4 -25 -4 -47q0 -87 63.5 -143.5t184.5 -56.5q109 0 180 41t110 122t79 275l168 801h301l-167 -802q-53 -253 -122 -387t-209 -218t-354 -84q-256 0 -392 125.5t-136 322.5q0 41 7 89q4 32 35 182zM1002 1851h306l-324 -300
h-191z" />
    <glyph glyph-name="Ucircumflex" unicode="&#xdb;" horiz-adv-x="1479" 
d="M187 0zM391 1466h301l-166 -796l-41 -196q-4 -25 -4 -47q0 -87 63.5 -143.5t184.5 -56.5q109 0 180 41t110 122t79 275l168 801h301l-167 -802q-53 -253 -122 -387t-209 -218t-354 -84q-256 0 -392 125.5t-136 322.5q0 41 7 89q4 32 35 182zM1017 1731l-176 -178h-236
l297 301h268l122 -301h-198z" />
    <glyph glyph-name="Udieresis" unicode="&#xdc;" horiz-adv-x="1479" 
d="M187 0zM391 1466h301l-166 -796l-41 -196q-4 -25 -4 -47q0 -87 63.5 -143.5t184.5 -56.5q109 0 180 41t110 122t79 275l168 801h301l-167 -802q-53 -253 -122 -387t-209 -218t-354 -84q-256 0 -392 125.5t-136 322.5q0 41 7 89q4 32 35 182zM694 1794h246l-51 -245h-246z
M1115 1794h246l-51 -245h-246z" />
    <glyph glyph-name="Yacute" unicode="&#xdd;" horiz-adv-x="1366" 
d="M235 0zM821 0h-301l119 571l-404 895h321l182 -414q65 -149 87 -215q37 65 86 138l139 194l207 297h350l-672 -923zM1042 1851h306l-324 -300h-191z" />
    <glyph glyph-name="Thorn" unicode="&#xde;" horiz-adv-x="1366" 
d="M385 0h-302l312 1466h301l-59 -280h289q133 0 188 -10q74 -14 132.5 -58.5t95.5 -125.5t37 -178q0 -105 -43 -210.5t-106 -169t-135.5 -96t-195.5 -49.5q-69 -9 -263 -9h-194zM494 522h92q239 0 319 30.5t126 97t46 145.5q0 49 -25 86t-63.5 50.5t-190.5 13.5h-214z" />
    <glyph glyph-name="germandbls" unicode="&#xdf;" 
d="M359 0h-287l201 961q42 198 89.5 293t164 166t295.5 71q185 0 277 -80t92 -199q0 -57 -24 -110.5t-96 -138.5t-88.5 -115.5t-16.5 -54.5q0 -25 12 -50q20 -38 94 -137t96 -153.5t22 -117.5q0 -90 -46.5 -177.5t-131.5 -135t-191 -47.5q-110 0 -207.5 54.5t-157.5 140.5
l204 115q29 -42 57 -58.5t65 -16.5q52 0 86 34t34 85q0 33 -13.5 63t-65.5 96q-90 112 -117 171.5t-27 108.5q0 46 23.5 100t114.5 176q47 63 58.5 89t11.5 52q0 41 -26.5 66.5t-72.5 25.5q-92 0 -152 -90q-41 -61 -86 -272z" />
    <glyph glyph-name="agrave" unicode="&#xe0;" horiz-adv-x="1139" 
d="M92 0zM487 761l-280 24q48 142 167.5 222t316.5 80q205 0 303 -82.5t98 -201.5q0 -48 -8.5 -102t-59.5 -284q-42 -190 -42 -266q0 -68 24 -151h-279q-17 58 -21 120q-63 -70 -145 -107.5t-165 -37.5q-132 0 -218 86.5t-86 222.5q0 152 94.5 243t337.5 110q205 17 274 41
q18 60 18 96q0 46 -37 77t-110 31q-77 0 -121.5 -31.5t-60.5 -89.5zM760 495q-26 -7 -69 -13q-216 -26 -282 -76q-47 -36 -47 -97q0 -50 36 -84.5t95 -34.5q65 0 122.5 31.5t86 81t50.5 154.5zM520 1499h276l128 -299h-194z" />
    <glyph glyph-name="aacute" unicode="&#xe1;" horiz-adv-x="1139" 
d="M92 0zM487 761l-280 24q48 142 167.5 222t316.5 80q205 0 303 -82.5t98 -201.5q0 -48 -8.5 -102t-59.5 -284q-42 -190 -42 -266q0 -68 24 -151h-279q-17 58 -21 120q-63 -70 -145 -107.5t-165 -37.5q-132 0 -218 86.5t-86 222.5q0 152 94.5 243t337.5 110q205 17 274 41
q18 60 18 96q0 46 -37 77t-110 31q-77 0 -121.5 -31.5t-60.5 -89.5zM760 495q-26 -7 -69 -13q-216 -26 -282 -76q-47 -36 -47 -97q0 -50 36 -84.5t95 -34.5q65 0 122.5 31.5t86 81t50.5 154.5zM856 1496h306l-324 -300h-191z" />
    <glyph glyph-name="acircumflex" unicode="&#xe2;" horiz-adv-x="1139" 
d="M92 0zM487 761l-280 24q48 142 167.5 222t316.5 80q205 0 303 -82.5t98 -201.5q0 -48 -8.5 -102t-59.5 -284q-42 -190 -42 -266q0 -68 24 -151h-279q-17 58 -21 120q-63 -70 -145 -107.5t-165 -37.5q-132 0 -218 86.5t-86 222.5q0 152 94.5 243t337.5 110q205 17 274 41
q18 60 18 96q0 46 -37 77t-110 31q-77 0 -121.5 -31.5t-60.5 -89.5zM760 495q-26 -7 -69 -13q-216 -26 -282 -76q-47 -36 -47 -97q0 -50 36 -84.5t95 -34.5q65 0 122.5 31.5t86 81t50.5 154.5zM789 1375l-176 -178h-236l297 301h268l122 -301h-198z" />
    <glyph glyph-name="atilde" unicode="&#xe3;" horiz-adv-x="1139" 
d="M92 0zM487 761l-280 24q48 142 167.5 222t316.5 80q205 0 303 -82.5t98 -201.5q0 -48 -8.5 -102t-59.5 -284q-42 -190 -42 -266q0 -68 24 -151h-279q-17 58 -21 120q-63 -70 -145 -107.5t-165 -37.5q-132 0 -218 86.5t-86 222.5q0 152 94.5 243t337.5 110q205 17 274 41
q18 60 18 96q0 46 -37 77t-110 31q-77 0 -121.5 -31.5t-60.5 -89.5zM760 495q-26 -7 -69 -13q-216 -26 -282 -76q-47 -36 -47 -97q0 -50 36 -84.5t95 -34.5q65 0 122.5 31.5t86 81t50.5 154.5zM564 1213h-126q27 122 64 171q54 70 134 70q52 0 186 -49q78 -28 107 -28
q23 0 39 14.5t30 63.5h128q-19 -123 -75.5 -181.5t-126.5 -58.5q-45 0 -144 40t-126 40q-30 0 -52 -17.5t-38 -64.5z" />
    <glyph glyph-name="adieresis" unicode="&#xe4;" horiz-adv-x="1139" 
d="M92 0zM487 761l-280 24q48 142 167.5 222t316.5 80q205 0 303 -82.5t98 -201.5q0 -48 -8.5 -102t-59.5 -284q-42 -190 -42 -266q0 -68 24 -151h-279q-17 58 -21 120q-63 -70 -145 -107.5t-165 -37.5q-132 0 -218 86.5t-86 222.5q0 152 94.5 243t337.5 110q205 17 274 41
q18 60 18 96q0 46 -37 77t-110 31q-77 0 -121.5 -31.5t-60.5 -89.5zM760 495q-26 -7 -69 -13q-216 -26 -282 -76q-47 -36 -47 -97q0 -50 36 -84.5t95 -34.5q65 0 122.5 31.5t86 81t50.5 154.5zM467 1468h246l-51 -245h-246zM888 1468h246l-51 -245h-246z" />
    <glyph glyph-name="aring" unicode="&#xe5;" horiz-adv-x="1139" 
d="M92 0zM487 761l-280 24q48 142 167.5 222t316.5 80q205 0 303 -82.5t98 -201.5q0 -48 -8.5 -102t-59.5 -284q-42 -190 -42 -266q0 -68 24 -151h-279q-17 58 -21 120q-63 -70 -145 -107.5t-165 -37.5q-132 0 -218 86.5t-86 222.5q0 152 94.5 243t337.5 110q205 17 274 41
q18 60 18 96q0 46 -37 77t-110 31q-77 0 -121.5 -31.5t-60.5 -89.5zM760 495q-26 -7 -69 -13q-216 -26 -282 -76q-47 -36 -47 -97q0 -50 36 -84.5t95 -34.5q65 0 122.5 31.5t86 81t50.5 154.5zM538 1351q0 80 56.5 136.5t136.5 56.5t136.5 -56.5t56.5 -136.5t-56.5 -136.5
t-136.5 -56.5t-136.5 56.5t-56.5 136.5zM647 1351q0 -35 24.5 -59.5t59.5 -24.5t59.5 24.5t24.5 59.5t-24.5 60t-59.5 25t-59.5 -25t-24.5 -60z" />
    <glyph glyph-name="ae" unicode="&#xe6;" horiz-adv-x="1821" 
d="M1754 440h-732q4 -116 67.5 -183t153.5 -67q144 0 221 138l258 -41q-172 -312 -490 -312q-282 0 -396 248q-184 -248 -439 -248q-154 0 -244 86.5t-90 224.5q0 119 57.5 198t145 109.5t250.5 45.5q212 19 272 42q8 33 8 57q0 71 -39 107.5t-122 36.5q-75 0 -116.5 -29
t-63.5 -95l-275 28q38 133 159.5 217t318.5 84q144 0 231 -42q62 -30 100 -91q138 133 353 133q195 0 313 -121t118 -334q0 -97 -19 -192zM1512 615q1 20 1 33q0 114 -53.5 174t-140.5 60q-93 0 -169.5 -68t-104.5 -199h467zM751 501q-286 -31 -375 -92q-54 -37 -54 -97
q0 -49 37 -84t99 -35q94 0 167 71q97 92 126 237z" />
    <glyph glyph-name="ccedilla" unicode="&#xe7;" horiz-adv-x="1139" 
d="M123 0zM802 400l279 -45q-69 -186 -204 -283t-313 -97q-203 0 -322 121t-119 333q0 173 72 327t217 242.5t318 88.5q188 0 300 -98t126 -258l-273 -29q-10 89 -54.5 131t-116.5 42q-83 0 -155 -62t-110.5 -185.5t-38.5 -231.5q0 -94 46 -145t115 -51t133 50t100 150z
M275 -413l48 116l57 -1q85 0 163 24q49 15 66 35.5t17 42.5q0 29 -26.5 49.5t-89.5 20.5q-32 0 -90 -9l34 99q72 18 131 18q110 0 166.5 -48t56.5 -117q0 -84 -88 -146q-122 -88 -348 -88q-63 0 -97 4z" />
    <glyph glyph-name="egrave" unicode="&#xe8;" horiz-adv-x="1139" 
d="M119 0zM1116 442h-720q-1 -17 -1 -26q0 -106 60.5 -171t147.5 -65q143 0 223 148l257 -43q-75 -155 -200.5 -232.5t-281.5 -77.5q-214 0 -348 135.5t-134 358.5q0 218 121 388q165 230 471 230q195 0 310 -120.5t115 -337.5q0 -104 -20 -187zM874 617q1 19 1 29
q0 118 -53 177t-142 59t-159.5 -67t-95.5 -198h449zM508 1499h276l128 -299h-194z" />
    <glyph glyph-name="eacute" unicode="&#xe9;" horiz-adv-x="1139" 
d="M119 0zM1116 442h-720q-1 -17 -1 -26q0 -106 60.5 -171t147.5 -65q143 0 223 148l257 -43q-75 -155 -200.5 -232.5t-281.5 -77.5q-214 0 -348 135.5t-134 358.5q0 218 121 388q165 230 471 230q195 0 310 -120.5t115 -337.5q0 -104 -20 -187zM874 617q1 19 1 29
q0 118 -53 177t-142 59t-159.5 -67t-95.5 -198h449zM845 1496h306l-324 -300h-191z" />
    <glyph glyph-name="ecircumflex" unicode="&#xea;" horiz-adv-x="1139" 
d="M119 0zM1116 442h-720q-1 -17 -1 -26q0 -106 60.5 -171t147.5 -65q143 0 223 148l257 -43q-75 -155 -200.5 -232.5t-281.5 -77.5q-214 0 -348 135.5t-134 358.5q0 218 121 388q165 230 471 230q195 0 310 -120.5t115 -337.5q0 -104 -20 -187zM874 617q1 19 1 29
q0 118 -53 177t-142 59t-159.5 -67t-95.5 -198h449zM790 1375l-176 -178h-236l297 301h268l122 -301h-198z" />
    <glyph glyph-name="edieresis" unicode="&#xeb;" horiz-adv-x="1139" 
d="M119 0zM1116 442h-720q-1 -17 -1 -26q0 -106 60.5 -171t147.5 -65q143 0 223 148l257 -43q-75 -155 -200.5 -232.5t-281.5 -77.5q-214 0 -348 135.5t-134 358.5q0 218 121 388q165 230 471 230q195 0 310 -120.5t115 -337.5q0 -104 -20 -187zM874 617q1 19 1 29
q0 118 -53 177t-142 59t-159.5 -67t-95.5 -198h449zM431 1468h246l-51 -245h-246zM852 1468h246l-51 -245h-246z" />
    <glyph glyph-name="igrave" unicode="&#xec;" horiz-adv-x="569" 
d="M82 0zM304 1062h287l-222 -1062h-287zM307 1499h276l128 -299h-194z" />
    <glyph glyph-name="iacute" unicode="&#xed;" horiz-adv-x="569" 
d="M82 0zM304 1062h287l-222 -1062h-287zM540 1496h306l-324 -300h-191z" />
    <glyph glyph-name="icircumflex" unicode="&#xee;" horiz-adv-x="569" 
d="M82 0zM304 1062h287l-222 -1062h-287zM523 1375l-176 -178h-236l297 301h268l122 -301h-198z" />
    <glyph glyph-name="idieresis" unicode="&#xef;" horiz-adv-x="569" 
d="M82 0zM304 1062h287l-222 -1062h-287zM188 1468h246l-51 -245h-246zM609 1468h246l-51 -245h-246z" />
    <glyph glyph-name="eth" unicode="&#xf0;" 
d="M688 1466h271q26 -37 51 -75l202 75l33 -99l-179 -67q98 -177 135.5 -315.5t37.5 -315.5q0 -257 -136 -453q-167 -242 -470 -242q-218 0 -337 97q-172 138 -172 376q0 237 138 411q161 204 414 204q95 0 167 -33q55 -25 116 -91q-35 160 -103 285l-242 -87l-35 99l224 80
q-42 67 -115 151zM943 607q0 107 -60.5 169t-154.5 62q-152 0 -236.5 -138.5t-84.5 -278.5q0 -105 59.5 -166t156.5 -61q90 0 166 63t115 170.5t39 179.5z" />
    <glyph glyph-name="ntilde" unicode="&#xf1;" 
d="M86 0zM308 1062h272l-28 -138q102 88 190.5 125.5t186.5 37.5q131 0 206.5 -75t75.5 -199q0 -56 -33 -212l-125 -601h-287l126 603q28 135 28 161q0 55 -32.5 86.5t-90.5 31.5q-63 0 -140 -53t-121 -140q-32 -62 -72 -253l-91 -436h-287zM607 1213h-126q27 122 64 171
q54 70 134 70q52 0 186 -49q78 -28 107 -28q23 0 39 14.5t30 63.5h128q-19 -123 -75.5 -181.5t-126.5 -58.5q-45 0 -144 40t-126 40q-30 0 -52 -17.5t-38 -64.5z" />
    <glyph glyph-name="ograve" unicode="&#xf2;" 
d="M124 0zM124 441q0 295 166.5 470.5t437.5 175.5q235 0 367 -129.5t132 -348.5q0 -258 -165 -446t-442 -188q-150 0 -266 60t-173 170t-57 236zM942 646q0 102 -59.5 163.5t-153.5 61.5q-93 0 -165 -57.5t-112 -167t-40 -201.5q0 -114 62 -181t156 -67q118 0 198 101
q114 143 114 348zM555 1499h276l128 -299h-194z" />
    <glyph glyph-name="oacute" unicode="&#xf3;" 
d="M124 0zM124 441q0 295 166.5 470.5t437.5 175.5q235 0 367 -129.5t132 -348.5q0 -258 -165 -446t-442 -188q-150 0 -266 60t-173 170t-57 236zM942 646q0 102 -59.5 163.5t-153.5 61.5q-93 0 -165 -57.5t-112 -167t-40 -201.5q0 -114 62 -181t156 -67q118 0 198 101
q114 143 114 348zM792 1496h306l-324 -300h-191z" />
    <glyph glyph-name="ocircumflex" unicode="&#xf4;" 
d="M124 0zM124 441q0 295 166.5 470.5t437.5 175.5q235 0 367 -129.5t132 -348.5q0 -258 -165 -446t-442 -188q-150 0 -266 60t-173 170t-57 236zM942 646q0 102 -59.5 163.5t-153.5 61.5q-93 0 -165 -57.5t-112 -167t-40 -201.5q0 -114 62 -181t156 -67q118 0 198 101
q114 143 114 348zM837 1375l-176 -178h-236l297 301h268l122 -301h-198z" />
    <glyph glyph-name="otilde" unicode="&#xf5;" 
d="M124 0zM124 441q0 295 166.5 470.5t437.5 175.5q235 0 367 -129.5t132 -348.5q0 -258 -165 -446t-442 -188q-150 0 -266 60t-173 170t-57 236zM942 646q0 102 -59.5 163.5t-153.5 61.5q-93 0 -165 -57.5t-112 -167t-40 -201.5q0 -114 62 -181t156 -67q118 0 198 101
q114 143 114 348zM566 1213h-126q27 122 64 171q54 70 134 70q52 0 186 -49q78 -28 107 -28q23 0 39 14.5t30 63.5h128q-19 -123 -75.5 -181.5t-126.5 -58.5q-45 0 -144 40t-126 40q-30 0 -52 -17.5t-38 -64.5z" />
    <glyph glyph-name="odieresis" unicode="&#xf6;" 
d="M124 0zM124 441q0 295 166.5 470.5t437.5 175.5q235 0 367 -129.5t132 -348.5q0 -258 -165 -446t-442 -188q-150 0 -266 60t-173 170t-57 236zM942 646q0 102 -59.5 163.5t-153.5 61.5q-93 0 -165 -57.5t-112 -167t-40 -201.5q0 -114 62 -181t156 -67q118 0 198 101
q114 143 114 348zM478 1468h246l-51 -245h-246zM899 1468h246l-51 -245h-246z" />
    <glyph glyph-name="divide" unicode="&#xf7;" horiz-adv-x="1124" 
d="M502 981v281h281v-281h-281zM130 592v263h1025v-263h-1025zM502 185v281h281v-281h-281z" />
    <glyph glyph-name="oslash" unicode="&#xf8;" 
d="M1002 1026l124 144l111 -94l-122 -142q109 -125 109 -326q0 -257 -165 -445t-441 -188q-156 0 -275 64l-127 -146l-108 96l122 141q-109 129 -109 324q0 229 126 406q161 227 479 227q165 0 276 -61zM846 845q-54 34 -125 34q-62 0 -112 -25.5t-97.5 -81.5t-78.5 -134
q-44 -110 -44 -213q0 -47 15 -93zM937 728l-442 -512q55 -31 125 -31q93 0 169 58.5t120.5 174t44.5 213.5q0 46 -17 97z" />
    <glyph glyph-name="ugrave" unicode="&#xf9;" 
d="M144 0zM302 1062h287l-131 -629q-24 -113 -24 -141q0 -46 34 -79t87 -33q38 0 75 14.5t76 44t70 67.5t58 100q19 46 41 150l106 506h287l-222 -1062h-268l30 144q-176 -169 -383 -169q-131 0 -206 75t-75 201q0 55 34 219zM590 1499h276l128 -299h-194z" />
    <glyph glyph-name="uacute" unicode="&#xfa;" 
d="M144 0zM302 1062h287l-131 -629q-24 -113 -24 -141q0 -46 34 -79t87 -33q38 0 75 14.5t76 44t70 67.5t58 100q19 46 41 150l106 506h287l-222 -1062h-268l30 144q-176 -169 -383 -169q-131 0 -206 75t-75 201q0 55 34 219zM839 1496h306l-324 -300h-191z" />
    <glyph glyph-name="ucircumflex" unicode="&#xfb;" 
d="M144 0zM302 1062h287l-131 -629q-24 -113 -24 -141q0 -46 34 -79t87 -33q38 0 75 14.5t76 44t70 67.5t58 100q19 46 41 150l106 506h287l-222 -1062h-268l30 144q-176 -169 -383 -169q-131 0 -206 75t-75 201q0 55 34 219zM848 1375l-176 -178h-236l297 301h268l122 -301
h-198z" />
    <glyph glyph-name="udieresis" unicode="&#xfc;" 
d="M144 0zM302 1062h287l-131 -629q-24 -113 -24 -141q0 -46 34 -79t87 -33q38 0 75 14.5t76 44t70 67.5t58 100q19 46 41 150l106 506h287l-222 -1062h-268l30 144q-176 -169 -383 -169q-131 0 -206 75t-75 201q0 55 34 219zM537 1468h246l-51 -245h-246zM958 1468h246
l-51 -245h-246z" />
    <glyph glyph-name="yacute" unicode="&#xfd;" horiz-adv-x="1139" 
d="M13 0zM171 1062h286l72 -529q27 -204 30 -286q56 163 154 344l254 471h304l-656 -1166q-81 -145 -127.5 -203t-112 -91t-157.5 -33q-91 0 -205 32l25 214q52 -15 101 -15q132 0 217 200zM761 1496h306l-324 -300h-191z" />
    <glyph glyph-name="thorn" unicode="&#xfe;" 
d="M379 1466h287l-102 -491q145 112 300 112q167 0 268.5 -115t101.5 -342q0 -288 -175 -486q-149 -169 -355 -169q-211 0 -319 171l-117 -551h-287zM462 453q0 -124 60.5 -192.5t142.5 -68.5q71 0 137 51t109.5 171t43.5 222q0 119 -57 182.5t-144 63.5q-83 0 -150 -58
t-104.5 -171.5t-37.5 -199.5z" />
    <glyph glyph-name="ydieresis" unicode="&#xff;" horiz-adv-x="1139" 
d="M13 0zM171 1062h286l72 -529q27 -204 30 -286q56 163 154 344l254 471h304l-656 -1166q-81 -145 -127.5 -203t-112 -91t-157.5 -33q-91 0 -205 32l25 214q52 -15 101 -15q132 0 217 200zM448 1468h246l-51 -245h-246zM869 1468h246l-51 -245h-246z" />
    <glyph glyph-name="Amacron" unicode="&#x100;" horiz-adv-x="1479" 
d="M0 0zM1044 324h-581l-176 -324h-310l829 1466h335l238 -1466h-286zM1007 568l-85 590l-354 -590h439zM712 1789h640l-40 -193h-640z" />
    <glyph glyph-name="amacron" unicode="&#x101;" horiz-adv-x="1139" 
d="M92 0zM487 761l-280 24q48 142 167.5 222t316.5 80q205 0 303 -82.5t98 -201.5q0 -48 -8.5 -102t-59.5 -284q-42 -190 -42 -266q0 -68 24 -151h-279q-17 58 -21 120q-63 -70 -145 -107.5t-165 -37.5q-132 0 -218 86.5t-86 222.5q0 152 94.5 243t337.5 110q205 17 274 41
q18 60 18 96q0 46 -37 77t-110 31q-77 0 -121.5 -31.5t-60.5 -89.5zM760 495q-26 -7 -69 -13q-216 -26 -282 -76q-47 -36 -47 -97q0 -50 36 -84.5t95 -34.5q65 0 122.5 31.5t86 81t50.5 154.5zM464 1427h640l-40 -193h-640z" />
    <glyph glyph-name="Abreve" unicode="&#x102;" horiz-adv-x="1479" 
d="M0 0zM1044 324h-581l-176 -324h-310l829 1466h335l238 -1466h-286zM1007 568l-85 590l-354 -590h439zM665 1819h139q23 -81 61.5 -113t97.5 -32q119 0 197 145h132q-41 -138 -133 -214t-205 -76q-117 0 -193 72.5t-96 217.5z" />
    <glyph glyph-name="abreve" unicode="&#x103;" horiz-adv-x="1139" 
d="M92 0zM487 761l-280 24q48 142 167.5 222t316.5 80q205 0 303 -82.5t98 -201.5q0 -48 -8.5 -102t-59.5 -284q-42 -190 -42 -266q0 -68 24 -151h-279q-17 58 -21 120q-63 -70 -145 -107.5t-165 -37.5q-132 0 -218 86.5t-86 222.5q0 152 94.5 243t337.5 110q205 17 274 41
q18 60 18 96q0 46 -37 77t-110 31q-77 0 -121.5 -31.5t-60.5 -89.5zM760 495q-26 -7 -69 -13q-216 -26 -282 -76q-47 -36 -47 -97q0 -50 36 -84.5t95 -34.5q65 0 122.5 31.5t86 81t50.5 154.5zM484 1488h139q23 -81 61.5 -113t97.5 -32q119 0 197 145h132
q-41 -138 -133 -214t-205 -76q-117 0 -193 72.5t-96 217.5z" />
    <glyph glyph-name="Aogonek" unicode="&#x104;" horiz-adv-x="1479" 
d="M0 0zM1044 324h-581l-176 -324h-310l829 1466h335l238 -1466h-286zM1007 568l-85 590l-354 -590h439zM1336 -215l-35 -167q-93 -40 -160 -40q-106 0 -153 56q-31 37 -31 91q0 79 65 164q48 62 118 111h167q-43 -28 -76 -72q-44 -60 -44 -106q0 -56 62 -56q17 0 42 7z" />
    <glyph glyph-name="aogonek" unicode="&#x105;" horiz-adv-x="1139" 
d="M92 0zM487 761l-280 24q48 142 167.5 222t316.5 80q205 0 303 -82.5t98 -201.5q0 -48 -8.5 -102t-59.5 -284q-42 -190 -42 -266q0 -68 24 -151h-279q-17 58 -21 120q-63 -70 -145 -107.5t-165 -37.5q-132 0 -218 86.5t-86 222.5q0 152 94.5 243t337.5 110q205 17 274 41
q18 60 18 96q0 46 -37 77t-110 31q-77 0 -121.5 -31.5t-60.5 -89.5zM760 495q-26 -7 -69 -13q-216 -26 -282 -76q-47 -36 -47 -97q0 -50 36 -84.5t95 -34.5q65 0 122.5 31.5t86 81t50.5 154.5zM973 -215l-35 -167q-93 -40 -160 -40q-106 0 -153 56q-31 37 -31 91
q0 79 65 164q48 62 118 111h167q-43 -28 -76 -72q-44 -60 -44 -106q0 -56 62 -56q17 0 42 7z" />
    <glyph glyph-name="Cacute" unicode="&#x106;" horiz-adv-x="1479" 
d="M194 0zM1146 528l304 -46q-89 -247 -267 -377.5t-417 -130.5q-269 0 -420.5 162t-151.5 470q0 250 101.5 457.5t281.5 317.5t392 110q238 0 385 -127.5t173 -347.5l-289 -28q-24 128 -92.5 185.5t-182.5 57.5q-125 0 -233.5 -76t-173.5 -237.5t-65 -322.5
q0 -176 84.5 -272t210.5 -96q117 0 214.5 76t145.5 225zM1025 1851h306l-324 -300h-191z" />
    <glyph glyph-name="cacute" unicode="&#x107;" horiz-adv-x="1139" 
d="M123 0zM802 400l279 -45q-69 -186 -204 -283t-313 -97q-203 0 -322 121t-119 333q0 173 72 327t217 242.5t318 88.5q188 0 300 -98t126 -258l-273 -29q-10 89 -54.5 131t-116.5 42q-83 0 -155 -62t-110.5 -185.5t-38.5 -231.5q0 -94 46 -145t115 -51t133 50t100 150z
M763 1496h306l-324 -300h-191z" />
    <glyph glyph-name="Ccircumflex" unicode="&#x108;" horiz-adv-x="1479" 
d="M194 0zM1146 528l304 -46q-89 -247 -267 -377.5t-417 -130.5q-269 0 -420.5 162t-151.5 470q0 250 101.5 457.5t281.5 317.5t392 110q238 0 385 -127.5t173 -347.5l-289 -28q-24 128 -92.5 185.5t-182.5 57.5q-125 0 -233.5 -76t-173.5 -237.5t-65 -322.5
q0 -176 84.5 -272t210.5 -96q117 0 214.5 76t145.5 225zM1054 1776l-176 -178h-236l297 301h268l122 -301h-198z" />
    <glyph glyph-name="ccircumflex" unicode="&#x109;" horiz-adv-x="1139" 
d="M123 0zM802 400l279 -45q-69 -186 -204 -283t-313 -97q-203 0 -322 121t-119 333q0 173 72 327t217 242.5t318 88.5q188 0 300 -98t126 -258l-273 -29q-10 89 -54.5 131t-116.5 42q-83 0 -155 -62t-110.5 -185.5t-38.5 -231.5q0 -94 46 -145t115 -51t133 50t100 150z
M824 1375l-176 -178h-236l297 301h268l122 -301h-198z" />
    <glyph glyph-name="Cdotaccent" unicode="&#x10a;" horiz-adv-x="1479" 
d="M194 0zM1146 528l304 -46q-89 -247 -267 -377.5t-417 -130.5q-269 0 -420.5 162t-151.5 470q0 250 101.5 457.5t281.5 317.5t392 110q238 0 385 -127.5t173 -347.5l-289 -28q-24 128 -92.5 185.5t-182.5 57.5q-125 0 -233.5 -76t-173.5 -237.5t-65 -322.5
q0 -176 84.5 -272t210.5 -96q117 0 214.5 76t145.5 225zM917 1861h287l-55 -263h-287z" />
    <glyph glyph-name="cdotaccent" unicode="&#x10b;" horiz-adv-x="1139" 
d="M123 0zM802 400l279 -45q-69 -186 -204 -283t-313 -97q-203 0 -322 121t-119 333q0 173 72 327t217 242.5t318 88.5q188 0 300 -98t126 -258l-273 -29q-10 89 -54.5 131t-116.5 42q-83 0 -155 -62t-110.5 -185.5t-38.5 -231.5q0 -94 46 -145t115 -51t133 50t100 150z
M658 1490h287l-55 -263h-287z" />
    <glyph glyph-name="Ccaron" unicode="&#x10c;" horiz-adv-x="1479" 
d="M194 0zM1146 528l304 -46q-89 -247 -267 -377.5t-417 -130.5q-269 0 -420.5 162t-151.5 470q0 250 101.5 457.5t281.5 317.5t392 110q238 0 385 -127.5t173 -347.5l-289 -28q-24 128 -92.5 185.5t-182.5 57.5q-125 0 -233.5 -76t-173.5 -237.5t-65 -322.5
q0 -176 84.5 -272t210.5 -96q117 0 214.5 76t145.5 225zM991 1670l176 178h236l-297 -301h-268l-122 301h198z" />
    <glyph glyph-name="ccaron" unicode="&#x10d;" horiz-adv-x="1139" 
d="M123 0zM802 400l279 -45q-69 -186 -204 -283t-313 -97q-203 0 -322 121t-119 333q0 173 72 327t217 242.5t318 88.5q188 0 300 -98t126 -258l-273 -29q-10 89 -54.5 131t-116.5 42q-83 0 -155 -62t-110.5 -185.5t-38.5 -231.5q0 -94 46 -145t115 -51t133 50t100 150z
M774 1320l176 178h236l-297 -301h-268l-122 301h198z" />
    <glyph glyph-name="Dcaron" unicode="&#x10e;" horiz-adv-x="1479" 
d="M89 0zM89 0l307 1466h395q165 0 211 -5q91 -9 162.5 -37t130 -78.5t101 -121.5t65.5 -163.5t23 -202.5q0 -237 -90.5 -420.5t-227.5 -291.5q-105 -84 -271 -124q-94 -22 -289 -22h-517zM440 236h153q166 0 240.5 20.5t136.5 76.5q89 81 150 216t61 318q0 156 -50.5 234.5
t-124.5 104.5q-52 18 -185 18h-175zM869 1676l176 178h236l-297 -301h-268l-122 301h198z" />
    <glyph glyph-name="dcaron" unicode="&#x10f;" horiz-adv-x="1515" 
d="M1491 1466h261l-43 -206q-38 -179 -119.5 -253.5t-210.5 -76.5l25 119q65 15 100.5 52.5t53.5 114.5h-119zM1063 0h-272l24 115q-78 -75 -153.5 -107.5t-170.5 -32.5q-165 0 -267.5 112.5t-102.5 332.5q0 255 144 461t381 206q214 0 321 -170l115 549h287zM400 432
q0 -114 57.5 -178t141.5 -64q78 0 145.5 53.5t108 163.5t40.5 211q0 115 -62 186t-143 71q-126 0 -207 -140t-81 -303z" />
    <glyph glyph-name="Dcroat" unicode="&#x110;" horiz-adv-x="1479" 
d="M75 0zM89 0l137 641h-151l38 178h150l138 647h390q166 0 212 -5q91 -9 162.5 -37t129.5 -78.5t101 -121.5t66 -163.5t23 -202.5q0 -238 -90 -418.5t-208.5 -277.5t-284.5 -138q-96 -24 -296 -24h-517zM441 236h152q166 0 240.5 20.5t136.5 76.5q90 82 150.5 216.5
t60.5 317.5q0 156 -50.5 234.5t-123.5 104.5q-53 18 -186 18h-170l-86 -405h313l-38 -177h-313z" />
    <glyph glyph-name="dcroat" unicode="&#x111;" 
d="M1023 1185h-325l38 178h324l22 103h287l-22 -103h143l-38 -178h-142l-247 -1185h-272l24 115q-78 -75 -153.5 -107.5t-170.5 -32.5q-165 0 -267.5 112.5t-102.5 332.5q0 255 144 461t381 206q214 0 321 -170zM400 432q0 -114 57.5 -178t141.5 -64q78 0 145.5 53.5
t108 163.5t40.5 211q0 115 -62 186t-143 71q-126 0 -207 -140t-81 -303z" />
    <glyph glyph-name="Emacron" unicode="&#x112;" horiz-adv-x="1366" 
d="M84 0zM84 0l306 1466h1087l-51 -245h-785l-70 -333h759l-51 -245h-759l-92 -398h853l-52 -245h-1145zM675 1789h640l-40 -193h-640z" />
    <glyph glyph-name="emacron" unicode="&#x113;" horiz-adv-x="1139" 
d="M119 0zM1116 442h-720q-1 -17 -1 -26q0 -106 60.5 -171t147.5 -65q143 0 223 148l257 -43q-75 -155 -200.5 -232.5t-281.5 -77.5q-214 0 -348 135.5t-134 358.5q0 218 121 388q165 230 471 230q195 0 310 -120.5t115 -337.5q0 -104 -20 -187zM874 617q1 19 1 29
q0 118 -53 177t-142 59t-159.5 -67t-95.5 -198h449zM477 1427h640l-40 -193h-640z" />
    <glyph glyph-name="Ebreve" unicode="&#x114;" horiz-adv-x="1366" 
d="M84 0zM84 0l306 1466h1087l-51 -245h-785l-70 -333h759l-51 -245h-759l-92 -398h853l-52 -245h-1145zM684 1879h139q23 -81 61.5 -113t97.5 -32q119 0 197 145h132q-41 -138 -133 -214t-205 -76q-117 0 -193 72.5t-96 217.5z" />
    <glyph glyph-name="ebreve" unicode="&#x115;" horiz-adv-x="1139" 
d="M119 0zM1116 442h-720q-1 -17 -1 -26q0 -106 60.5 -171t147.5 -65q143 0 223 148l257 -43q-75 -155 -200.5 -232.5t-281.5 -77.5q-214 0 -348 135.5t-134 358.5q0 218 121 388q165 230 471 230q195 0 310 -120.5t115 -337.5q0 -104 -20 -187zM874 617q1 19 1 29
q0 118 -53 177t-142 59t-159.5 -67t-95.5 -198h449zM464 1488h139q23 -81 61.5 -113t97.5 -32q119 0 197 145h132q-41 -138 -133 -214t-205 -76q-117 0 -193 72.5t-96 217.5z" />
    <glyph glyph-name="Edotaccent" unicode="&#x116;" horiz-adv-x="1366" 
d="M84 0zM84 0l306 1466h1087l-51 -245h-785l-70 -333h759l-51 -245h-759l-92 -398h853l-52 -245h-1145zM860 1861h287l-55 -263h-287z" />
    <glyph glyph-name="edotaccent" unicode="&#x117;" horiz-adv-x="1139" 
d="M119 0zM1116 442h-720q-1 -17 -1 -26q0 -106 60.5 -171t147.5 -65q143 0 223 148l257 -43q-75 -155 -200.5 -232.5t-281.5 -77.5q-214 0 -348 135.5t-134 358.5q0 218 121 388q165 230 471 230q195 0 310 -120.5t115 -337.5q0 -104 -20 -187zM874 617q1 19 1 29
q0 118 -53 177t-142 59t-159.5 -67t-95.5 -198h449zM642 1490h287l-55 -263h-287z" />
    <glyph glyph-name="Eogonek" unicode="&#x118;" horiz-adv-x="1366" 
d="M84 0zM84 0l306 1466h1087l-51 -245h-785l-70 -333h759l-51 -245h-759l-92 -398h853l-52 -245h-1145zM1091 -215l-35 -167q-93 -40 -160 -40q-106 0 -153 56q-31 37 -31 91q0 79 65 164q48 62 118 111h167q-43 -28 -76 -72q-44 -60 -44 -106q0 -56 62 -56q17 0 42 7z" />
    <glyph glyph-name="eogonek" unicode="&#x119;" horiz-adv-x="1139" 
d="M119 0zM1116 442h-720q-1 -17 -1 -26q0 -106 60.5 -171t147.5 -65q143 0 223 148l257 -43q-75 -155 -200.5 -232.5t-281.5 -77.5q-214 0 -348 135.5t-134 358.5q0 218 121 388q165 230 471 230q195 0 310 -120.5t115 -337.5q0 -104 -20 -187zM874 617q1 19 1 29
q0 118 -53 177t-142 59t-159.5 -67t-95.5 -198h449zM787 -215l-35 -167q-93 -40 -160 -40q-106 0 -153 56q-31 37 -31 91q0 79 65 164q48 62 118 111h167q-43 -28 -76 -72q-44 -60 -44 -106q0 -56 62 -56q17 0 42 7z" />
    <glyph glyph-name="Ecaron" unicode="&#x11a;" horiz-adv-x="1366" 
d="M84 0zM84 0l306 1466h1087l-51 -245h-785l-70 -333h759l-51 -245h-759l-92 -398h853l-52 -245h-1145zM935 1676l176 178h236l-297 -301h-268l-122 301h198z" />
    <glyph glyph-name="ecaron" unicode="&#x11b;" horiz-adv-x="1139" 
d="M119 0zM1116 442h-720q-1 -17 -1 -26q0 -106 60.5 -171t147.5 -65q143 0 223 148l257 -43q-75 -155 -200.5 -232.5t-281.5 -77.5q-214 0 -348 135.5t-134 358.5q0 218 121 388q165 230 471 230q195 0 310 -120.5t115 -337.5q0 -104 -20 -187zM874 617q1 19 1 29
q0 118 -53 177t-142 59t-159.5 -67t-95.5 -198h449zM725 1320l176 178h236l-297 -301h-268l-122 301h198z" />
    <glyph glyph-name="Gcircumflex" unicode="&#x11c;" horiz-adv-x="1593" 
d="M181 0zM900 783h656l-132 -629q-116 -75 -284.5 -127t-343.5 -52q-272 0 -417 123q-198 168 -198 487q0 214 85 410q102 236 290 366t442 130t407.5 -118t203.5 -344l-281 -32q-37 124 -119.5 187t-207.5 63q-146 0 -268 -76t-191 -235t-69 -347q0 -185 84 -273.5
t246 -88.5q97 0 199 27.5t176 65.5l45 218h-374zM1111 1776l-176 -178h-236l297 301h268l122 -301h-198z" />
    <glyph glyph-name="gcircumflex" unicode="&#x11d;" 
d="M64 0zM67 -56l303 -44q0 -46 15 -69.5t48.5 -40t91.5 -16.5q91 0 146 36q41 28 67 90q16 39 41 170l10 50q-149 -124 -308 -124q-156 0 -256 110t-100 322q0 187 68 343t191 236t251 80q106 0 194 -56t137 -157l40 188h269l-184 -885q-45 -213 -76 -304t-71 -145
t-101 -90.5t-144 -52.5t-180 -16q-225 0 -340 77t-115 256q0 19 3 42zM405 457q0 -121 54.5 -184.5t136.5 -63.5q75 0 145.5 57t108 162t37.5 203q0 113 -61 182t-141 69q-77 0 -141.5 -61t-106.5 -188q-32 -98 -32 -176zM812 1375l-176 -178h-236l297 301h268l122 -301
h-198z" />
    <glyph glyph-name="Gbreve" unicode="&#x11e;" horiz-adv-x="1593" 
d="M181 0zM900 783h656l-132 -629q-116 -75 -284.5 -127t-343.5 -52q-272 0 -417 123q-198 168 -198 487q0 214 85 410q102 236 290 366t442 130t407.5 -118t203.5 -344l-281 -32q-37 124 -119.5 187t-207.5 63q-146 0 -268 -76t-191 -235t-69 -347q0 -185 84 -273.5
t246 -88.5q97 0 199 27.5t176 65.5l45 218h-374zM761 1819h139q23 -81 61.5 -113t97.5 -32q119 0 197 145h132q-41 -138 -133 -214t-205 -76q-117 0 -193 72.5t-96 217.5z" />
    <glyph glyph-name="gbreve" unicode="&#x11f;" 
d="M64 0zM67 -56l303 -44q0 -46 15 -69.5t48.5 -40t91.5 -16.5q91 0 146 36q41 28 67 90q16 39 41 170l10 50q-149 -124 -308 -124q-156 0 -256 110t-100 322q0 187 68 343t191 236t251 80q106 0 194 -56t137 -157l40 188h269l-184 -885q-45 -213 -76 -304t-71 -145
t-101 -90.5t-144 -52.5t-180 -16q-225 0 -340 77t-115 256q0 19 3 42zM405 457q0 -121 54.5 -184.5t136.5 -63.5q75 0 145.5 57t108 162t37.5 203q0 113 -61 182t-141 69q-77 0 -141.5 -61t-106.5 -188q-32 -98 -32 -176zM502 1488h139q23 -81 61.5 -113t97.5 -32
q119 0 197 145h132q-41 -138 -133 -214t-205 -76q-117 0 -193 72.5t-96 217.5z" />
    <glyph glyph-name="Gdotaccent" unicode="&#x120;" horiz-adv-x="1593" 
d="M181 0zM900 783h656l-132 -629q-116 -75 -284.5 -127t-343.5 -52q-272 0 -417 123q-198 168 -198 487q0 214 85 410q102 236 290 366t442 130t407.5 -118t203.5 -344l-281 -32q-37 124 -119.5 187t-207.5 63q-146 0 -268 -76t-191 -235t-69 -347q0 -185 84 -273.5
t246 -88.5q97 0 199 27.5t176 65.5l45 218h-374zM930 1861h287l-55 -263h-287z" />
    <glyph glyph-name="gdotaccent" unicode="&#x121;" 
d="M64 0zM67 -56l303 -44q0 -46 15 -69.5t48.5 -40t91.5 -16.5q91 0 146 36q41 28 67 90q16 39 41 170l10 50q-149 -124 -308 -124q-156 0 -256 110t-100 322q0 187 68 343t191 236t251 80q106 0 194 -56t137 -157l40 188h269l-184 -885q-45 -213 -76 -304t-71 -145
t-101 -90.5t-144 -52.5t-180 -16q-225 0 -340 77t-115 256q0 19 3 42zM405 457q0 -121 54.5 -184.5t136.5 -63.5q75 0 145.5 57t108 162t37.5 203q0 113 -61 182t-141 69q-77 0 -141.5 -61t-106.5 -188q-32 -98 -32 -176zM674 1490h287l-55 -263h-287z" />
    <glyph glyph-name="uni0122" unicode="&#x122;" horiz-adv-x="1593" 
d="M181 0zM900 783h656l-132 -629q-116 -75 -284.5 -127t-343.5 -52q-272 0 -417 123q-198 168 -198 487q0 214 85 410q102 236 290 366t442 130t407.5 -118t203.5 -344l-281 -32q-37 124 -119.5 187t-207.5 63q-146 0 -268 -76t-191 -235t-69 -347q0 -185 84 -273.5
t246 -88.5q97 0 199 27.5t176 65.5l45 218h-374zM621 -109h308l-30 -146q-60 -287 -360 -306l32 156q121 15 135 113h-123z" />
    <glyph glyph-name="uni0123" unicode="&#x123;" 
d="M898 1189h-307l30 146q59 287 360 306l-33 -156q-121 -15 -135 -113h123zM66 -56l304 -44q0 -126 159 -126q86 0 133.5 30.5t70 82t46.5 183.5l10 50q-147 -124 -309 -124q-151 0 -253 107.5t-102 328.5q0 164 60 319.5t184.5 245.5t266.5 90q119 0 203 -62.5t127 -150.5
l40 188h269l-184 -885q-56 -264 -104.5 -375t-157 -172t-308.5 -61q-166 0 -258.5 33t-145.5 107t-53 193q0 18 2 42zM405 457q0 -117 53.5 -182.5t137.5 -65.5q126 0 208.5 130t82.5 291q0 104 -57.5 178t-144.5 74q-126 0 -203 -145.5t-77 -279.5z" />
    <glyph glyph-name="Hcircumflex" unicode="&#x124;" horiz-adv-x="1479" 
d="M89 0zM1095 655h-567l-137 -655h-302l307 1466h301l-118 -566h567l119 566h301l-306 -1466h-302zM1048 1776l-176 -178h-236l297 301h268l122 -301h-198z" />
    <glyph glyph-name="hcircumflex" unicode="&#x125;" 
d="M86 0zM373 0h-287l307 1466h287l-110 -522q97 76 181 109.5t180 33.5q129 0 204 -74t75 -194q0 -64 -28 -198l-130 -621h-287l133 633q21 103 21 132q0 53 -33 85t-90 32q-72 0 -138 -50q-86 -66 -131 -162q-25 -53 -66 -249zM955 1731l-176 -178h-236l297 301h268
l122 -301h-198z" />
    <glyph glyph-name="Hbar" unicode="&#x126;" horiz-adv-x="1479" 
d="M318 1094h-147l38 177h146l41 195h301l-41 -195h568l41 195h301l-41 -195h150l-38 -177h-149l-228 -1094h-302l137 655h-567l-137 -655h-302zM619 1094l-40 -194h567l41 194h-568z" />
    <glyph glyph-name="hbar" unicode="&#x127;" 
d="M619 1178l-49 -234q175 143 361 143q141 0 210 -79.5t69 -188.5q0 -64 -28 -198l-130 -621h-287l133 633q21 101 21 138q0 44 -31.5 77.5t-90.5 33.5q-77 0 -155 -63t-109.5 -136t-71.5 -262l-88 -421h-287l246 1178h-122l38 177h121l24 111h287l-23 -111h303l-38 -177
h-303z" />
    <glyph glyph-name="Itilde" unicode="&#x128;" horiz-adv-x="569" 
d="M71 0zM71 0l307 1466h301l-306 -1466h-302zM354 1598h-126q27 122 64 171q54 70 134 70q52 0 186 -49q78 -28 107 -28q23 0 39 14.5t30 63.5h128q-19 -123 -75.5 -181.5t-126.5 -58.5q-45 0 -144 40t-126 40q-30 0 -52 -17.5t-38 -64.5z" />
    <glyph glyph-name="itilde" unicode="&#x129;" horiz-adv-x="569" 
d="M82 0zM304 1062h287l-222 -1062h-287zM275 1213h-126q27 122 64 171q54 70 134 70q52 0 186 -49q78 -28 107 -28q23 0 39 14.5t30 63.5h128q-19 -123 -75.5 -181.5t-126.5 -58.5q-45 0 -144 40t-126 40q-30 0 -52 -17.5t-38 -64.5z" />
    <glyph glyph-name="Imacron" unicode="&#x12a;" horiz-adv-x="569" 
d="M71 0zM71 0l307 1466h301l-306 -1466h-302zM267 1789h640l-40 -193h-640z" />
    <glyph glyph-name="imacron" unicode="&#x12b;" horiz-adv-x="569" 
d="M82 0zM304 1062h287l-222 -1062h-287zM189 1427h640l-40 -193h-640z" />
    <glyph glyph-name="Ibreve" unicode="&#x12c;" horiz-adv-x="569" 
d="M71 0zM71 0l307 1466h301l-306 -1466h-302zM296 1879h139q23 -81 61.5 -113t97.5 -32q119 0 197 145h132q-41 -138 -133 -214t-205 -76q-117 0 -193 72.5t-96 217.5z" />
    <glyph glyph-name="ibreve" unicode="&#x12d;" horiz-adv-x="569" 
d="M82 0zM304 1062h287l-222 -1062h-287zM211 1488h139q23 -81 61.5 -113t97.5 -32q119 0 197 145h132q-41 -138 -133 -214t-205 -76q-117 0 -193 72.5t-96 217.5z" />
    <glyph glyph-name="Iogonek" unicode="&#x12e;" horiz-adv-x="569" 
d="M0 0zM71 0l307 1466h301l-306 -1466h-302zM325 -215l-35 -167q-93 -40 -160 -40q-106 0 -153 56q-31 37 -31 91q0 79 65 164q48 62 118 111h167q-43 -28 -76 -72q-44 -60 -44 -106q0 -56 62 -56q17 0 42 7z" />
    <glyph glyph-name="iogonek" unicode="&#x12f;" horiz-adv-x="569" 
d="M0 0zM388 1466h287l-54 -260h-287zM304 1062h287l-222 -1062h-287zM336 -215l-35 -167q-93 -40 -160 -40q-106 0 -153 56q-31 37 -31 91q0 79 65 164q48 62 118 111h167q-43 -28 -76 -72q-44 -60 -44 -106q0 -56 62 -56q17 0 42 7z" />
    <glyph glyph-name="Idotaccent" unicode="&#x130;" horiz-adv-x="569" 
d="M71 0zM71 0l307 1466h301l-306 -1466h-302zM459 1811h287l-55 -263h-287z" />
    <glyph glyph-name="dotlessi" unicode="&#x131;" horiz-adv-x="569" 
d="M304 1062h287l-222 -1062h-287z" />
    <glyph glyph-name="IJ" unicode="&#x132;" horiz-adv-x="1602" 
d="M71 0zM71 0l307 1466h301l-306 -1466h-302zM1403 1466h296l-185 -888q-74 -353 -194 -478t-369 -125q-211 0 -316 97t-105 264q0 35 5 78l279 30q-6 -44 -6 -73q0 -70 40 -107t123 -37q116 0 163 68q35 52 85 293z" />
    <glyph glyph-name="ij" unicode="&#x133;" horiz-adv-x="1139" 
d="M95 0zM401 1466h287l-54 -260h-287zM317 1062h287l-222 -1062h-287zM950 1466h288l-54 -260h-288zM866 1062h288l-189 -899q-80 -385 -137 -467q-86 -127 -276 -127q-118 0 -216 32l45 237q69 -17 116 -17q58 0 93 45t92 316z" />
    <glyph glyph-name="Jcircumflex" unicode="&#x134;" horiz-adv-x="1139" 
d="M59 0zM932 1466h296l-185 -888q-74 -353 -194 -478t-369 -125q-211 0 -316 97t-105 264q0 35 5 78l279 30q-6 -44 -6 -73q0 -70 40 -107t123 -37q116 0 163 68q35 52 85 293zM1131 1776l-176 -178h-236l297 301h268l122 -301h-198z" />
    <glyph glyph-name="jcircumflex" unicode="&#x135;" horiz-adv-x="569" 
d="M515 1375l-176 -178h-237l297 301h269l122 -301h-198zM306 1062h288l-189 -899q-46 -221 -85.5 -352.5t-124.5 -186.5t-203 -55q-119 0 -216 32l45 237q69 -17 116 -17q61 0 95.5 48.5t89.5 312.5z" />
    <glyph glyph-name="uni0136" unicode="&#x136;" horiz-adv-x="1479" 
d="M81 0zM81 0l306 1466h302l-130 -623l678 623h404l-658 -575l483 -891h-341l-362 698l-285 -249l-94 -449h-303zM591 -109h308l-30 -146q-60 -287 -360 -306l32 156q121 15 135 113h-123z" />
    <glyph glyph-name="uni0137" unicode="&#x137;" horiz-adv-x="1139" 
d="M77 0zM77 0l307 1466h287l-160 -763l374 359h373l-427 -386l227 -676h-287l-146 491l-194 -172l-67 -319h-287zM391 -109h308l-30 -146q-60 -287 -360 -306l32 156q121 15 135 113h-123z" />
    <glyph glyph-name="kgreenlandic" unicode="&#x138;" horiz-adv-x="1139" 
d="M82 0l226 1062h287l-79 -359l374 359h373l-427 -386l227 -676h-287l-146 491l-194 -172l-67 -319h-287z" />
    <glyph glyph-name="Lacute" unicode="&#x139;" 
d="M92 0zM92 0l307 1466h301l-255 -1221h746l-51 -245h-1048zM776 1851h306l-324 -300h-191z" />
    <glyph glyph-name="lacute" unicode="&#x13a;" horiz-adv-x="569" 
d="M80 0zM80 0l307 1466h286l-306 -1466h-287zM560 1841h306l-324 -300h-191z" />
    <glyph glyph-name="uni013B" unicode="&#x13b;" 
d="M92 0zM92 0l307 1466h301l-255 -1221h746l-51 -245h-1048zM461 -109h308l-30 -146q-60 -287 -360 -306l32 156q121 15 135 113h-123z" />
    <glyph glyph-name="uni013C" unicode="&#x13c;" horiz-adv-x="569" 
d="M0 0zM80 0l307 1466h286l-306 -1466h-287zM51 -109h308l-30 -146q-60 -287 -360 -306l32 156q121 15 135 113h-123z" />
    <glyph glyph-name="Lcaron" unicode="&#x13d;" 
d="M92 0l307 1466h301l-255 -1221h746l-51 -245h-1048zM964 1466h289l-48 -229q-41 -199 -131.5 -281.5t-234.5 -85.5l28 133q72 16 111.5 58t58.5 127h-132z" />
    <glyph glyph-name="lcaron" unicode="&#x13e;" horiz-adv-x="811" 
d="M790 1466h261l-43 -206q-38 -179 -119.5 -253.5t-210.5 -76.5l25 119q65 15 100.5 52.5t53.5 114.5h-119zM77 0l307 1466h286l-306 -1466h-287z" />
    <glyph glyph-name="Ldot" unicode="&#x13f;" 
d="M92 0zM92 0l307 1466h301l-255 -1221h746l-51 -245h-1048zM623 872h283l-57 -278h-284z" />
    <glyph glyph-name="ldot" unicode="&#x140;" horiz-adv-x="981" 
d="M80 0zM80 0l307 1466h286l-306 -1466h-287zM713 872h283l-57 -278h-284z" />
    <glyph glyph-name="Lslash" unicode="&#x141;" 
d="M265 786l142 680h302l-103 -495l372 203l-49 -235l-373 -204l-102 -490h745l-51 -245h-1047l115 550l-186 -101l49 236z" />
    <glyph glyph-name="lslash" unicode="&#x142;" horiz-adv-x="569" 
d="M245 770l146 696h287l-111 -532l110 57l-40 -192l-111 -57l-155 -742h-287l121 578l-144 -75l40 192z" />
    <glyph glyph-name="Nacute" unicode="&#x143;" horiz-adv-x="1479" 
d="M92 0zM1256 0h-281l-396 985l-206 -985h-281l306 1466h282l397 -981l205 981h280zM982 1851h306l-324 -300h-191z" />
    <glyph glyph-name="nacute" unicode="&#x144;" 
d="M86 0zM308 1062h272l-28 -138q102 88 190.5 125.5t186.5 37.5q131 0 206.5 -75t75.5 -199q0 -56 -33 -212l-125 -601h-287l126 603q28 135 28 161q0 55 -32.5 86.5t-90.5 31.5q-63 0 -140 -53t-121 -140q-32 -62 -72 -253l-91 -436h-287zM832 1496h306l-324 -300h-191z
" />
    <glyph glyph-name="uni0145" unicode="&#x145;" horiz-adv-x="1479" 
d="M92 0zM1256 0h-281l-396 985l-206 -985h-281l306 1466h282l397 -981l205 981h280zM511 -109h308l-30 -146q-60 -287 -360 -306l32 156q121 15 135 113h-123z" />
    <glyph glyph-name="uni0146" unicode="&#x146;" 
d="M86 0zM308 1062h272l-28 -138q102 88 190.5 125.5t186.5 37.5q131 0 206.5 -75t75.5 -199q0 -56 -33 -212l-125 -601h-287l126 603q28 135 28 161q0 55 -32.5 86.5t-90.5 31.5q-63 0 -140 -53t-121 -140q-32 -62 -72 -253l-91 -436h-287zM391 -109h308l-30 -146
q-60 -287 -360 -306l32 156q121 15 135 113h-123z" />
    <glyph glyph-name="Ncaron" unicode="&#x147;" horiz-adv-x="1479" 
d="M92 0zM1256 0h-281l-396 985l-206 -985h-281l306 1466h282l397 -981l205 981h280zM984 1676l176 178h236l-297 -301h-268l-122 301h198z" />
    <glyph glyph-name="ncaron" unicode="&#x148;" 
d="M86 0zM308 1062h272l-28 -138q102 88 190.5 125.5t186.5 37.5q131 0 206.5 -75t75.5 -199q0 -56 -33 -212l-125 -601h-287l126 603q28 135 28 161q0 55 -32.5 86.5t-90.5 31.5q-63 0 -140 -53t-121 -140q-32 -62 -72 -253l-91 -436h-287zM806 1320l176 178h236l-297 -301
h-268l-122 301h198z" />
    <glyph glyph-name="napostrophe" unicode="&#x149;" horiz-adv-x="1451" 
d="M83 0zM208 1466h289l-48 -229q-41 -199 -131.5 -281.5t-234.5 -85.5l28 133q72 16 111 57.5t59 127.5h-132zM499 1062h272l-28 -138q102 88 190.5 125.5t186.5 37.5q131 0 206.5 -75t75.5 -199q0 -56 -33 -212l-125 -601h-287l126 603q28 135 28 161q0 55 -32.5 86.5
t-90.5 31.5q-63 0 -140 -53t-121 -140q-32 -62 -72 -253l-91 -436h-287z" />
    <glyph glyph-name="Eng" unicode="&#x14a;" horiz-adv-x="1481" 
d="M400 1466h297l-41 -208q223 233 452 233q170 0 284 -115t114 -346q0 -187 -38 -397t-117.5 -377t-181 -224.5t-228.5 -57.5q-180 0 -311 92l148 209q69 -57 127 -57q69 0 126.5 69t116 305.5t58.5 414.5q0 116 -62.5 172t-155.5 56q-106 0 -203 -65t-146.5 -157
t-84.5 -265l-154 -748h-301z" />
    <glyph glyph-name="eng" unicode="&#x14b;" 
d="M1175 601l-110 -521q-45 -216 -80.5 -309.5t-112.5 -147.5t-206 -54q-124 0 -230 36l99 230q46 -14 89 -14q62 0 91.5 48.5t75.5 272.5l97 461q28 137 28 168q0 49 -33.5 80t-88.5 31q-72 0 -152.5 -61.5t-113 -137t-68.5 -247.5l-91 -436h-287l222 1062h272l-28 -138
q183 163 377 163q140 0 211 -80.5t71 -183.5q0 -65 -32 -222z" />
    <glyph glyph-name="Omacron" unicode="&#x14c;" horiz-adv-x="1593" 
d="M179 0zM179 575q0 130 39 274q51 193 155.5 335t263.5 224.5t362 82.5q272 0 439.5 -169t167.5 -448q0 -232 -109 -449t-296 -334t-423 -117q-205 0 -344 93t-197 230.5t-58 277.5zM477 581q0 -151 92 -253t242 -102q122 0 234.5 80.5t186 244t73.5 318.5
q0 173 -93 271.5t-237 98.5q-221 0 -359.5 -206t-138.5 -452zM788 1789h640l-40 -193h-640z" />
    <glyph glyph-name="omacron" unicode="&#x14d;" 
d="M124 0zM124 441q0 295 166.5 470.5t437.5 175.5q235 0 367 -129.5t132 -348.5q0 -258 -165 -446t-442 -188q-150 0 -266 60t-173 170t-57 236zM942 646q0 102 -59.5 163.5t-153.5 61.5q-93 0 -165 -57.5t-112 -167t-40 -201.5q0 -114 62 -181t156 -67q118 0 198 101
q114 143 114 348zM517 1427h640l-40 -193h-640z" />
    <glyph glyph-name="Obreve" unicode="&#x14e;" horiz-adv-x="1593" 
d="M179 0zM179 575q0 130 39 274q51 193 155.5 335t263.5 224.5t362 82.5q272 0 439.5 -169t167.5 -448q0 -232 -109 -449t-296 -334t-423 -117q-205 0 -344 93t-197 230.5t-58 277.5zM477 581q0 -151 92 -253t242 -102q122 0 234.5 80.5t186 244t73.5 318.5
q0 173 -93 271.5t-237 98.5q-221 0 -359.5 -206t-138.5 -452zM785 1879h139q23 -81 61.5 -113t97.5 -32q119 0 197 145h132q-41 -138 -133 -214t-205 -76q-117 0 -193 72.5t-96 217.5z" />
    <glyph glyph-name="obreve" unicode="&#x14f;" 
d="M124 0zM124 441q0 295 166.5 470.5t437.5 175.5q235 0 367 -129.5t132 -348.5q0 -258 -165 -446t-442 -188q-150 0 -266 60t-173 170t-57 236zM942 646q0 102 -59.5 163.5t-153.5 61.5q-93 0 -165 -57.5t-112 -167t-40 -201.5q0 -114 62 -181t156 -67q118 0 198 101
q114 143 114 348zM541 1488h139q23 -81 61.5 -113t97.5 -32q119 0 197 145h132q-41 -138 -133 -214t-205 -76q-117 0 -193 72.5t-96 217.5z" />
    <glyph glyph-name="Ohungarumlaut" unicode="&#x150;" horiz-adv-x="1593" 
d="M179 0zM179 575q0 130 39 274q51 193 155.5 335t263.5 224.5t362 82.5q272 0 439.5 -169t167.5 -448q0 -232 -109 -449t-296 -334t-423 -117q-205 0 -344 93t-197 230.5t-58 277.5zM477 581q0 -151 92 -253t242 -102q122 0 234.5 80.5t186 244t73.5 318.5
q0 173 -93 271.5t-237 98.5q-221 0 -359.5 -206t-138.5 -452zM1247 1846h290l-329 -297h-164zM848 1846h297l-336 -297h-159z" />
    <glyph glyph-name="ohungarumlaut" unicode="&#x151;" 
d="M124 0zM124 441q0 295 166.5 470.5t437.5 175.5q235 0 367 -129.5t132 -348.5q0 -258 -165 -446t-442 -188q-150 0 -266 60t-173 170t-57 236zM942 646q0 102 -59.5 163.5t-153.5 61.5q-93 0 -165 -57.5t-112 -167t-40 -201.5q0 -114 62 -181t156 -67q118 0 198 101
q114 143 114 348zM986 1491h290l-329 -297h-164zM587 1491h297l-336 -297h-159z" />
    <glyph glyph-name="OE" unicode="&#x152;" horiz-adv-x="2048" 
d="M1256 1466h953l-51 -245h-667l-68 -327h647l-51 -245h-648l-84 -404h734l-51 -245h-1021l25 118q-64 -74 -138.5 -108.5t-179.5 -34.5q-219 0 -367 159.5t-148 439.5q0 257 100 478.5t276.5 330t352.5 108.5q115 0 209 -50.5t142 -138.5zM411 541q0 -151 82.5 -237
t214.5 -86q95 0 166.5 44.5t119 125t84.5 234.5q52 213 52 343t-74 207t-192 77q-126 0 -230.5 -91t-170.5 -292q-52 -162 -52 -325z" />
    <glyph glyph-name="oe" unicode="&#x153;" horiz-adv-x="1933" 
d="M1908 439h-716q-2 -124 58 -191.5t148 -67.5q148 0 225 149l255 -45q-171 -309 -482 -309q-236 0 -370 159q-79 -79 -181 -119t-228 -40q-149 0 -263.5 58t-174.5 171.5t-60 248.5q0 163 71 314.5t208.5 235.5t337.5 84q117 0 210.5 -37t162.5 -111q171 148 391 148
q201 0 317 -120.5t116 -340.5q0 -104 -25 -187zM1668 616q1 20 1 35q0 115 -52.5 173t-138.5 58q-88 0 -155 -61.5t-102 -204.5h447zM405 415q0 -97 60.5 -158.5t153.5 -61.5q144 0 228 131.5t84 294.5q0 120 -60.5 185t-153.5 65q-122 0 -199 -97q-113 -143 -113 -359z" />
    <glyph glyph-name="Racute" unicode="&#x154;" horiz-adv-x="1479" 
d="M90 0zM392 0h-302l307 1466h651q168 0 261.5 -34.5t151 -126.5t57.5 -223q0 -187 -112 -308.5t-339 -150.5q58 -52 109 -137q101 -172 225 -486h-324q-39 124 -153 387q-62 142 -132 191q-43 29 -150 29h-123zM565 827h160q243 0 322.5 29t124.5 91t45 130q0 80 -65 120
q-40 24 -173 24h-332zM938 1851h306l-324 -300h-191z" />
    <glyph glyph-name="racute" unicode="&#x155;" horiz-adv-x="797" 
d="M66 0zM288 1062h268l-43 -206q150 231 325 231q62 0 133 -31l-110 -235q-39 14 -83 14q-74 0 -150.5 -56t-119.5 -149.5t-85 -296.5l-70 -333h-287zM702 1496h306l-324 -300h-191z" />
    <glyph glyph-name="uni0156" unicode="&#x156;" horiz-adv-x="1479" 
d="M90 0zM392 0h-302l307 1466h651q168 0 261.5 -34.5t151 -126.5t57.5 -223q0 -187 -112 -308.5t-339 -150.5q58 -52 109 -137q101 -172 225 -486h-324q-39 124 -153 387q-62 142 -132 191q-43 29 -150 29h-123zM565 827h160q243 0 322.5 29t124.5 91t45 130q0 80 -65 120
q-40 24 -173 24h-332zM571 -109h308l-30 -146q-60 -287 -360 -306l32 156q121 15 135 113h-123z" />
    <glyph glyph-name="uni0157" unicode="&#x157;" horiz-adv-x="797" 
d="M0 0zM288 1062h268l-43 -206q150 231 325 231q62 0 133 -31l-110 -235q-39 14 -83 14q-74 0 -150.5 -56t-119.5 -149.5t-85 -296.5l-70 -333h-287zM41 -109h308l-30 -146q-60 -287 -360 -306l32 156q121 15 135 113h-123z" />
    <glyph glyph-name="Rcaron" unicode="&#x158;" horiz-adv-x="1479" 
d="M90 0zM392 0h-302l307 1466h651q168 0 261.5 -34.5t151 -126.5t57.5 -223q0 -187 -112 -308.5t-339 -150.5q58 -52 109 -137q101 -172 225 -486h-324q-39 124 -153 387q-62 142 -132 191q-43 29 -150 29h-123zM565 827h160q243 0 322.5 29t124.5 91t45 130q0 80 -65 120
q-40 24 -173 24h-332zM910 1676l176 178h236l-297 -301h-268l-122 301h198z" />
    <glyph glyph-name="rcaron" unicode="&#x159;" horiz-adv-x="797" 
d="M66 0zM288 1062h268l-43 -206q150 231 325 231q62 0 133 -31l-110 -235q-39 14 -83 14q-74 0 -150.5 -56t-119.5 -149.5t-85 -296.5l-70 -333h-287zM652 1320l176 178h236l-297 -301h-268l-122 301h198z" />
    <glyph glyph-name="Sacute" unicode="&#x15a;" horiz-adv-x="1366" 
d="M126 0zM130 475l287 15q6 -137 47 -185q66 -78 244 -78q148 0 214 53t66 128q0 65 -54 110q-38 33 -208.5 107t-249 123.5t-123.5 128.5t-45 185q0 185 134 307t388 122q258 0 399.5 -121t155.5 -322l-289 -13q-11 105 -76 161t-192 56q-125 0 -178.5 -44t-53.5 -111
q0 -63 49 -104q49 -42 217 -115q253 -109 322 -177q103 -100 103 -257q0 -194 -153.5 -331.5t-427.5 -137.5q-189 0 -327.5 63.5t-195.5 176.5t-53 260zM892 1851h306l-324 -300h-191z" />
    <glyph glyph-name="sacute" unicode="&#x15b;" horiz-adv-x="1139" 
d="M45 0zM45 297l278 44q37 -88 92 -124.5t150 -36.5q98 0 157 44q41 30 41 73q0 29 -21 52q-22 22 -119 54q-260 86 -322 136q-97 78 -97 204t94 217q131 127 389 127q205 0 310 -75t133 -203l-265 -46q-21 58 -68 87q-64 39 -154 39t-129.5 -30t-39.5 -69q0 -40 40 -66
q25 -16 161 -56q210 -61 281 -120q100 -83 100 -200q0 -151 -127 -262t-358 -111q-230 0 -355.5 84.5t-170.5 237.5zM735 1496h306l-324 -300h-191z" />
    <glyph glyph-name="Scircumflex" unicode="&#x15c;" horiz-adv-x="1366" 
d="M126 0zM130 475l287 15q6 -137 47 -185q66 -78 244 -78q148 0 214 53t66 128q0 65 -54 110q-38 33 -208.5 107t-249 123.5t-123.5 128.5t-45 185q0 185 134 307t388 122q258 0 399.5 -121t155.5 -322l-289 -13q-11 105 -76 161t-192 56q-125 0 -178.5 -44t-53.5 -111
q0 -63 49 -104q49 -42 217 -115q253 -109 322 -177q103 -100 103 -257q0 -194 -153.5 -331.5t-427.5 -137.5q-189 0 -327.5 63.5t-195.5 176.5t-53 260zM1001 1776l-176 -178h-236l297 301h268l122 -301h-198z" />
    <glyph glyph-name="scircumflex" unicode="&#x15d;" horiz-adv-x="1139" 
d="M45 0zM45 297l278 44q37 -88 92 -124.5t150 -36.5q98 0 157 44q41 30 41 73q0 29 -21 52q-22 22 -119 54q-260 86 -322 136q-97 78 -97 204t94 217q131 127 389 127q205 0 310 -75t133 -203l-265 -46q-21 58 -68 87q-64 39 -154 39t-129.5 -30t-39.5 -69q0 -40 40 -66
q25 -16 161 -56q210 -61 281 -120q100 -83 100 -200q0 -151 -127 -262t-358 -111q-230 0 -355.5 84.5t-170.5 237.5zM818 1375l-176 -178h-236l297 301h268l122 -301h-198z" />
    <glyph glyph-name="Scedilla" unicode="&#x15e;" horiz-adv-x="1366" 
d="M126 0zM130 475l287 15q6 -137 47 -185q66 -78 244 -78q148 0 214 53t66 128q0 65 -54 110q-38 33 -208.5 107t-249 123.5t-123.5 128.5t-45 185q0 185 134 307t388 122q258 0 399.5 -121t155.5 -322l-289 -13q-11 105 -76 161t-192 56q-125 0 -178.5 -44t-53.5 -111
q0 -63 49 -104q49 -42 217 -115q253 -109 322 -177q103 -100 103 -257q0 -194 -153.5 -331.5t-427.5 -137.5q-189 0 -327.5 63.5t-195.5 176.5t-53 260zM396 -421l48 116l57 -1q85 0 163 24q49 15 66 35.5t17 42.5q0 29 -26.5 49.5t-89.5 20.5q-32 0 -90 -9l34 99
q72 18 131 18q110 0 166.5 -48t56.5 -117q0 -84 -88 -146q-122 -88 -348 -88q-63 0 -97 4z" />
    <glyph glyph-name="scedilla" unicode="&#x15f;" horiz-adv-x="1139" 
d="M45 0zM45 297l278 44q37 -88 92 -124.5t150 -36.5q98 0 157 44q41 30 41 73q0 29 -21 52q-22 22 -119 54q-260 86 -322 136q-97 78 -97 204t94 217q131 127 389 127q205 0 310 -75t133 -203l-265 -46q-21 58 -68 87q-64 39 -154 39t-129.5 -30t-39.5 -69q0 -40 40 -66
q25 -16 161 -56q210 -61 281 -120q100 -83 100 -200q0 -151 -127 -262t-358 -111q-230 0 -355.5 84.5t-170.5 237.5zM175 -413l48 116l57 -1q85 0 163 24q49 15 66 35.5t17 42.5q0 29 -26.5 49.5t-89.5 20.5q-32 0 -90 -9l34 99q72 18 131 18q110 0 166.5 -48t56.5 -117
q0 -84 -88 -146q-122 -88 -348 -88q-63 0 -97 4z" />
    <glyph glyph-name="Scaron" unicode="&#x160;" horiz-adv-x="1366" 
d="M126 0zM130 475l287 15q6 -137 47 -185q66 -78 244 -78q148 0 214 53t66 128q0 65 -54 110q-38 33 -208.5 107t-249 123.5t-123.5 128.5t-45 185q0 185 134 307t388 122q258 0 399.5 -121t155.5 -322l-289 -13q-11 105 -76 161t-192 56q-125 0 -178.5 -44t-53.5 -111
q0 -63 49 -104q49 -42 217 -115q253 -109 322 -177q103 -100 103 -257q0 -194 -153.5 -331.5t-427.5 -137.5q-189 0 -327.5 63.5t-195.5 176.5t-53 260zM891 1676l176 178h236l-297 -301h-268l-122 301h198z" />
    <glyph glyph-name="scaron" unicode="&#x161;" horiz-adv-x="1139" 
d="M45 0zM45 297l278 44q37 -88 92 -124.5t150 -36.5q98 0 157 44q41 30 41 73q0 29 -21 52q-22 22 -119 54q-260 86 -322 136q-97 78 -97 204t94 217q131 127 389 127q205 0 310 -75t133 -203l-265 -46q-21 58 -68 87q-64 39 -154 39t-129.5 -30t-39.5 -69q0 -40 40 -66
q25 -16 161 -56q210 -61 281 -120q100 -83 100 -200q0 -151 -127 -262t-358 -111q-230 0 -355.5 84.5t-170.5 237.5zM716 1320l176 178h236l-297 -301h-268l-122 301h198z" />
    <glyph glyph-name="uni0162" unicode="&#x162;" 
d="M214 0zM722 0h-302l256 1221h-430l51 245h1155l-51 -245h-424zM214 -421l48 116l57 -1q85 0 163 24q49 15 66 35.5t17 42.5q0 29 -26.5 49.5t-89.5 20.5q-32 0 -90 -9l34 99q72 18 131 18q110 0 166.5 -48t56.5 -117q0 -84 -88 -146q-122 -88 -348 -88q-63 0 -97 4z" />
    <glyph glyph-name="uni0163" unicode="&#x163;" horiz-adv-x="682" 
d="M34 0zM154 849l44 213h140l35 170l329 198l-77 -368h175l-44 -213h-176l-93 -445q-25 -121 -25 -138q0 -33 21 -51.5t76 -18.5q19 0 95 7l-45 -213q-74 -15 -152 -15q-152 0 -221 58.5t-69 162.5q0 49 37 226l89 427h-139zM34 -421l48 116l57 -1q85 0 163 24
q49 15 66 35.5t17 42.5q0 29 -26.5 49.5t-89.5 20.5q-32 0 -90 -9l34 99q72 18 131 18q110 0 166.5 -48t56.5 -117q0 -84 -88 -146q-122 -88 -348 -88q-63 0 -97 4z" />
    <glyph glyph-name="Tcaron" unicode="&#x164;" 
d="M246 0zM722 0h-302l256 1221h-430l51 245h1155l-51 -245h-424zM895 1676l176 178h236l-297 -301h-268l-122 301h198z" />
    <glyph glyph-name="tcaron" unicode="&#x165;" horiz-adv-x="981" 
d="M959 1466h260l-43 -206q-37 -179 -118.5 -253.5t-210.5 -76.5l25 119q64 15 100 52.5t53 114.5h-119zM157 849l44 213h140l35 170l329 198l-77 -368h175l-44 -213h-176l-93 -445q-25 -121 -25 -138q0 -33 21 -51.5t76 -18.5q19 0 95 7l-45 -213q-74 -15 -152 -15
q-152 0 -221 58.5t-69 162.5q0 49 37 226l89 427h-139z" />
    <glyph glyph-name="Tbar" unicode="&#x166;" 
d="M543 582h-338l37 177h338l96 462h-430l52 245h1154l-51 -245h-423l-97 -462h337l-37 -177h-337l-122 -582h-301z" />
    <glyph glyph-name="tbar" unicode="&#x167;" horiz-adv-x="682" 
d="M246 623l47 226h-139l44 213h140l35 170l329 198l-77 -368h175l-44 -213h-176l-47 -226h201l-37 -178h-201q-34 -164 -34 -179q0 -70 93 -70q29 0 99 7l-45 -213q-73 -15 -149 -15q-293 0 -293 220q0 53 42 250h-165l38 178h164z" />
    <glyph glyph-name="Utilde" unicode="&#x168;" horiz-adv-x="1479" 
d="M187 0zM391 1466h301l-166 -796l-41 -196q-4 -25 -4 -47q0 -87 63.5 -143.5t184.5 -56.5q109 0 180 41t110 122t79 275l168 801h301l-167 -802q-53 -253 -122 -387t-209 -218t-354 -84q-256 0 -392 125.5t-136 322.5q0 41 7 89q4 32 35 182zM800 1598h-126q27 122 64 171
q54 70 134 70q52 0 186 -49q78 -28 107 -28q23 0 39 14.5t30 63.5h128q-19 -123 -75.5 -181.5t-126.5 -58.5q-45 0 -144 40t-126 40q-30 0 -52 -17.5t-38 -64.5z" />
    <glyph glyph-name="utilde" unicode="&#x169;" 
d="M144 0zM302 1062h287l-131 -629q-24 -113 -24 -141q0 -46 34 -79t87 -33q38 0 75 14.5t76 44t70 67.5t58 100q19 46 41 150l106 506h287l-222 -1062h-268l30 144q-176 -169 -383 -169q-131 0 -206 75t-75 201q0 55 34 219zM616 1213h-126q27 122 64 171q54 70 134 70
q52 0 186 -49q78 -28 107 -28q23 0 39 14.5t30 63.5h128q-19 -123 -75.5 -181.5t-126.5 -58.5q-45 0 -144 40t-126 40q-30 0 -52 -17.5t-38 -64.5z" />
    <glyph glyph-name="Umacron" unicode="&#x16a;" horiz-adv-x="1479" 
d="M187 0zM391 1466h301l-166 -796l-41 -196q-4 -25 -4 -47q0 -87 63.5 -143.5t184.5 -56.5q109 0 180 41t110 122t79 275l168 801h301l-167 -802q-53 -253 -122 -387t-209 -218t-354 -84q-256 0 -392 125.5t-136 322.5q0 41 7 89q4 32 35 182zM719 1789h640l-40 -193h-640z
" />
    <glyph glyph-name="umacron" unicode="&#x16b;" 
d="M144 0zM302 1062h287l-131 -629q-24 -113 -24 -141q0 -46 34 -79t87 -33q38 0 75 14.5t76 44t70 67.5t58 100q19 46 41 150l106 506h287l-222 -1062h-268l30 144q-176 -169 -383 -169q-131 0 -206 75t-75 201q0 55 34 219zM545 1427h640l-40 -193h-640z" />
    <glyph glyph-name="Ubreve" unicode="&#x16c;" horiz-adv-x="1479" 
d="M187 0zM391 1466h301l-166 -796l-41 -196q-4 -25 -4 -47q0 -87 63.5 -143.5t184.5 -56.5q109 0 180 41t110 122t79 275l168 801h301l-167 -802q-53 -253 -122 -387t-209 -218t-354 -84q-256 0 -392 125.5t-136 322.5q0 41 7 89q4 32 35 182zM731 1879h139
q23 -81 61.5 -113t97.5 -32q119 0 197 145h132q-41 -138 -133 -214t-205 -76q-117 0 -193 72.5t-96 217.5z" />
    <glyph glyph-name="ubreve" unicode="&#x16d;" 
d="M144 0zM302 1062h287l-131 -629q-24 -113 -24 -141q0 -46 34 -79t87 -33q38 0 75 14.5t76 44t70 67.5t58 100q19 46 41 150l106 506h287l-222 -1062h-268l30 144q-176 -169 -383 -169q-131 0 -206 75t-75 201q0 55 34 219zM535 1488h139q23 -81 61.5 -113t97.5 -32
q119 0 197 145h132q-41 -138 -133 -214t-205 -76q-117 0 -193 72.5t-96 217.5z" />
    <glyph glyph-name="Uring" unicode="&#x16e;" horiz-adv-x="1479" 
d="M187 0zM391 1466h301l-166 -796l-41 -196q-4 -25 -4 -47q0 -87 63.5 -143.5t184.5 -56.5q109 0 180 41t110 122t79 275l168 801h301l-167 -802q-53 -253 -122 -387t-209 -218t-354 -84q-256 0 -392 125.5t-136 322.5q0 41 7 89q4 32 35 182zM785 1661q0 80 56.5 136.5
t136.5 56.5t136.5 -56.5t56.5 -136.5t-56.5 -136.5t-136.5 -56.5t-136.5 56.5t-56.5 136.5zM894 1661q0 -35 24.5 -59.5t59.5 -24.5t59.5 24.5t24.5 59.5t-24.5 60t-59.5 25t-59.5 -25t-24.5 -60z" />
    <glyph glyph-name="uring" unicode="&#x16f;" 
d="M144 0zM302 1062h287l-131 -629q-24 -113 -24 -141q0 -46 34 -79t87 -33q38 0 75 14.5t76 44t70 67.5t58 100q19 46 41 150l106 506h287l-222 -1062h-268l30 144q-176 -169 -383 -169q-131 0 -206 75t-75 201q0 55 34 219zM637 1351q0 80 56.5 136.5t136.5 56.5
t136.5 -56.5t56.5 -136.5t-56.5 -136.5t-136.5 -56.5t-136.5 56.5t-56.5 136.5zM746 1351q0 -35 24.5 -59.5t59.5 -24.5t59.5 24.5t24.5 59.5t-24.5 60t-59.5 25t-59.5 -25t-24.5 -60z" />
    <glyph glyph-name="Uhungarumlaut" unicode="&#x170;" horiz-adv-x="1479" 
d="M187 0zM391 1466h301l-166 -796l-41 -196q-4 -25 -4 -47q0 -87 63.5 -143.5t184.5 -56.5q109 0 180 41t110 122t79 275l168 801h301l-167 -802q-53 -253 -122 -387t-209 -218t-354 -84q-256 0 -392 125.5t-136 322.5q0 41 7 89q4 32 35 182zM1211 1846h290l-329 -297
h-164zM812 1846h297l-336 -297h-159z" />
    <glyph glyph-name="uhungarumlaut" unicode="&#x171;" 
d="M144 0zM302 1062h287l-131 -629q-24 -113 -24 -141q0 -46 34 -79t87 -33q38 0 75 14.5t76 44t70 67.5t58 100q19 46 41 150l106 506h287l-222 -1062h-268l30 144q-176 -169 -383 -169q-131 0 -206 75t-75 201q0 55 34 219zM1045 1491h290l-329 -297h-164zM646 1491h297
l-336 -297h-159z" />
    <glyph glyph-name="Uogonek" unicode="&#x172;" horiz-adv-x="1479" 
d="M187 0zM391 1466h301l-166 -796l-41 -196q-4 -25 -4 -47q0 -87 63.5 -143.5t184.5 -56.5q109 0 180 41t110 122t79 275l168 801h301l-167 -802q-53 -253 -122 -387t-209 -218t-354 -84q-256 0 -392 125.5t-136 322.5q0 41 7 89q4 32 35 182zM927 -215l-35 -167
q-93 -40 -160 -40q-106 0 -153 56q-31 37 -31 91q0 79 65 164q48 62 118 111h167q-43 -28 -76 -72q-44 -60 -44 -106q0 -56 62 -56q17 0 42 7z" />
    <glyph glyph-name="uogonek" unicode="&#x173;" 
d="M144 0zM302 1062h287l-131 -629q-24 -113 -24 -141q0 -46 34 -79t87 -33q38 0 75 14.5t76 44t70 67.5t58 100q19 46 41 150l106 506h287l-222 -1062h-268l30 144q-176 -169 -383 -169q-131 0 -206 75t-75 201q0 55 34 219zM1021 -215l-35 -167q-93 -40 -160 -40
q-106 0 -153 56q-31 37 -31 91q0 79 65 164q48 62 118 111h167q-43 -28 -76 -72q-44 -60 -44 -106q0 -56 62 -56q17 0 42 7z" />
    <glyph glyph-name="Wcircumflex" unicode="&#x174;" horiz-adv-x="1933" 
d="M240 0zM1478 0h-305l-33 1072l-534 -1072h-311l-55 1466h295l13 -1026l503 1026h327l34 -1015l483 1015h292zM1281 1776l-176 -178h-236l297 301h268l122 -301h-198z" />
    <glyph glyph-name="wcircumflex" unicode="&#x175;" horiz-adv-x="1593" 
d="M147 0zM1192 0h-270l-52 676l-324 -676h-266l-133 1062h255l74 -712l331 712h261l36 -712l329 712h288zM983 1375l-176 -178h-236l297 301h268l122 -301h-198z" />
    <glyph glyph-name="Ycircumflex" unicode="&#x176;" horiz-adv-x="1366" 
d="M235 0zM821 0h-301l119 571l-404 895h321l182 -414q65 -149 87 -215q37 65 86 138l139 194l207 297h350l-672 -923zM997 1776l-176 -178h-236l297 301h268l122 -301h-198z" />
    <glyph glyph-name="ycircumflex" unicode="&#x177;" horiz-adv-x="1139" 
d="M13 0zM171 1062h286l72 -529q27 -204 30 -286q56 163 154 344l254 471h304l-656 -1166q-81 -145 -127.5 -203t-112 -91t-157.5 -33q-91 0 -205 32l25 214q52 -15 101 -15q132 0 217 200zM805 1375l-176 -178h-236l297 301h268l122 -301h-198z" />
    <glyph glyph-name="Ydieresis" unicode="&#x178;" horiz-adv-x="1366" 
d="M235 0zM821 0h-301l119 571l-404 895h321l182 -414q65 -149 87 -215q37 65 86 138l139 194l207 297h350l-672 -923zM636 1794h246l-51 -245h-246zM1057 1794h246l-51 -245h-246z" />
    <glyph glyph-name="Zacute" unicode="&#x179;" 
d="M51 0zM51 0l48 231l844 990h-683l51 245h1057l-44 -230l-853 -996q136 3 157 3q96 0 265 2h346l-51 -245h-1137zM844 1851h306l-324 -300h-191z" />
    <glyph glyph-name="zacute" unicode="&#x17a;" horiz-adv-x="1024" 
d="M34 0zM34 0l41 194l582 644h-475l47 224h833l-35 -171l-587 -659h511l-49 -232h-868zM671 1496h306l-324 -300h-191z" />
    <glyph glyph-name="Zdotaccent" unicode="&#x17b;" 
d="M51 0zM51 0l48 231l844 990h-683l51 245h1057l-44 -230l-853 -996q136 3 157 3q96 0 265 2h346l-51 -245h-1137zM751 1811h287l-55 -263h-287z" />
    <glyph glyph-name="zdotaccent" unicode="&#x17c;" horiz-adv-x="1024" 
d="M34 0zM34 0l41 194l582 644h-475l47 224h833l-35 -171l-587 -659h511l-49 -232h-868zM547 1490h287l-55 -263h-287z" />
    <glyph glyph-name="Zcaron" unicode="&#x17d;" 
d="M51 0zM51 0l48 231l844 990h-683l51 245h1057l-44 -230l-853 -996q136 3 157 3q96 0 265 2h346l-51 -245h-1137zM859 1676l176 178h236l-297 -301h-268l-122 301h198z" />
    <glyph glyph-name="zcaron" unicode="&#x17e;" horiz-adv-x="1024" 
d="M34 0zM34 0l41 194l582 644h-475l47 224h833l-35 -171l-587 -659h511l-49 -232h-868zM669 1320l176 178h236l-297 -301h-268l-122 301h198z" />
    <glyph glyph-name="longs" unicode="&#x17f;" horiz-adv-x="569" 
d="M367 0h-287l245 1171q28 134 59 192t100.5 93t171.5 35q132 0 278 -48l-55 -205q-104 35 -168 35q-49 0 -68.5 -25.5t-37.5 -110.5z" />
    <glyph glyph-name="uni0180" unicode="&#x180;" 
d="M1232 647q0 -316 -174 -503q-157 -169 -351 -169q-228 0 -335 200l-37 -175h-261l247 1185h-142l38 178h142l21 103h288l-22 -103h325l-38 -178h-324l-44 -209q146 111 297 111q187 0 284 -130q86 -116 86 -310zM954 640q0 100 -49 167q-55 75 -151 75q-108 0 -186 -100
q-107 -137 -107 -349q0 -95 53 -165q58 -76 150 -76q164 0 247 218q43 113 43 230z" />
    <glyph glyph-name="uni0181" unicode="&#x181;" horiz-adv-x="1630" 
d="M1605 1110q0 -257 -278 -347q107 -29 172 -104q68 -78 68 -186q0 -138 -77.5 -254.5t-204.5 -166.5q-132 -52 -361 -52h-691l258 1221q-112 0 -149 -72q-24 -48 -24 -170l-204 -38q-5 50 -5 103q0 196 103 305q112 117 331 117h498q159 0 228 -10q220 -32 297 -180
q39 -75 39 -166zM1306 1075q0 116 -123 140q-31 6 -159 6h-234l-73 -347h230q120 0 176 11q106 19 149 83q34 50 34 107zM1258 451q0 168 -234 168h-360l-80 -383h291q138 0 189 10q107 20 157 91q37 53 37 114z" />
    <glyph glyph-name="uni0182" unicode="&#x182;" horiz-adv-x="1450" 
d="M1452 1466l-56 -245h-741l-65 -312h237q192 0 287 -23q161 -38 231 -154q61 -101 61 -238q0 -247 -180 -378q-160 -116 -416 -116h-718l315 1466h1045zM1106 471q0 150 -139 182q-60 14 -190 14h-238l-92 -427h300q116 0 168 11q89 20 142 82q49 58 49 138z" />
    <glyph glyph-name="uni0183" unicode="&#x183;" 
d="M1232 647q0 -316 -174 -503q-157 -169 -351 -169q-228 0 -335 200l-37 -175h-261l306 1466h831l-49 -227h-541l-56 -263q146 111 297 111q187 0 284 -130q86 -116 86 -310zM954 640q0 100 -49 167q-55 75 -151 75q-108 0 -186 -100q-107 -137 -107 -349q0 -95 53 -165
q58 -76 150 -76q164 0 247 218q43 113 43 230z" />
    <glyph glyph-name="uni0184" unicode="&#x184;" horiz-adv-x="1450" 
d="M1396 491q0 -247 -180 -377q-158 -114 -416 -114h-718l215 996l-110 165l7 33l444 272h58l-116 -557h237q191 0 291 -24q164 -40 232 -157q56 -97 56 -237zM1096 471q0 147 -135 181q-59 15 -194 15h-238l-92 -427h300q359 0 359 231z" />
    <glyph glyph-name="uni0185" unicode="&#x185;" 
d="M1232 647q0 -316 -174 -503q-157 -169 -351 -169q-228 0 -335 200l-37 -175h-261l230 1086l-91 155l7 33l391 192h57l-103 -490q146 111 297 111q187 0 284 -130q86 -116 86 -310zM954 640q0 100 -49 167q-55 75 -151 75q-108 0 -186 -100q-107 -137 -107 -349
q0 -95 53 -165q58 -76 150 -76q164 0 247 218q43 113 43 230z" />
    <glyph glyph-name="uni0186" unicode="&#x186;" horiz-adv-x="1479" 
d="M1491 859q0 -251 -101 -457q-98 -200 -274 -313q-179 -115 -400 -115q-231 0 -379 122q-152 126 -179 353l289 28q46 -243 275 -243q281 0 407 314q65 162 65 322q0 153 -69 253q-80 115 -226 115q-131 0 -229 -89q-88 -80 -131 -212l-304 46q86 240 257 371
q179 137 427 137q286 0 434 -176q138 -164 138 -456z" />
    <glyph glyph-name="uni0187" unicode="&#x187;" horiz-adv-x="1479" 
d="M1946 1671l-80 -196q-64 16 -125 16q-115 0 -144 -138l-70 -337l-289 -28q-46 243 -275 243q-281 0 -407 -313q-65 -161 -65 -323q0 -152 70 -253q80 -115 225 -115q132 0 229 88q88 80 131 213l304 -46q-86 -238 -258 -370q-179 -138 -426 -138q-285 0 -433 177
q-139 164 -139 455q0 238 93 439q101 221 290 336q180 110 392 110q216 0 357 -105q67 321 393 321q120 0 227 -36z" />
    <glyph glyph-name="uni0188" unicode="&#x188;" horiz-adv-x="1139" 
d="M1550 1266l-79 -196q-64 16 -126 16q-114 0 -143 -138l-46 -217l-273 -29q-19 173 -171 173q-188 0 -265 -247q-39 -125 -39 -232q0 -82 38 -136q44 -60 123 -60q161 0 233 200l279 -45q-141 -380 -517 -380q-207 0 -325 124q-116 121 -116 330q0 177 70 324
q77 159 220 246.5t317 87.5q126 0 218 -44q29 124 140 195q101 64 235 64q120 0 227 -36z" />
    <glyph glyph-name="uni0189" unicode="&#x189;" horiz-adv-x="1479" 
d="M75 0zM75 0zM89 0l137 641h-151l38 178h150l138 647h390q166 0 212 -5q91 -9 162.5 -37t129.5 -78.5t101 -121.5t66 -163.5t23 -202.5q0 -238 -90 -418.5t-208.5 -277.5t-284.5 -138q-96 -24 -296 -24h-517zM441 236h152q166 0 240.5 20.5t136.5 76.5q90 82 150.5 216.5
t60.5 317.5q0 156 -50.5 234.5t-123.5 104.5q-53 18 -186 18h-170l-86 -405h313l-38 -177h-313z" />
    <glyph glyph-name="uni018A" unicode="&#x18a;" horiz-adv-x="1623" 
d="M1628 858q0 -211 -78 -393q-83 -194 -240 -319q-107 -85 -271 -124q-92 -22 -289 -22h-517l259 1224q-112 0 -150 -74q-24 -49 -24 -171l-204 -38q-5 50 -5 103q0 196 103 305q111 117 331 117h392q162 0 211 -5q181 -19 293 -115q121 -105 166 -285q23 -93 23 -203z
M1325 867q0 278 -175 339q-52 18 -185 18h-175l-206 -988h153q137 0 200 12q105 20 177 85q211 191 211 534z" />
    <glyph glyph-name="uni018B" unicode="&#x18b;" horiz-adv-x="1366" 
d="M1450 1466l-307 -1466h-596q-297 0 -398 162q-54 87 -54 206q0 234 149 384q114 115 328 145q71 10 266 10h193l63 314h-675l56 245h975zM981 664h-93q-179 0 -242 -11q-140 -25 -203 -115q-46 -66 -46 -145q0 -103 90 -136q44 -16 189 -16h216z" />
    <glyph glyph-name="uni018C" unicode="&#x18c;" 
d="M1369 1466l-306 -1466h-272l24 115q-146 -140 -324 -140q-186 0 -284 133q-86 119 -86 312q0 253 133 448q150 219 392 219q214 0 321 -170l69 322h-546l49 227h830zM893 618q0 99 -52 173q-58 84 -153 84q-136 0 -219 -161q-69 -132 -69 -282q0 -99 49 -167
q54 -75 150 -75q174 0 254 217q40 109 40 211z" />
    <glyph glyph-name="uni018D" unicode="&#x18d;" horiz-adv-x="1250" 
d="M1227 594q0 -219 -127 -368q-122 -142 -339 -197q87 -90 205 -245l-41 -189h-915l53 245h511q-110 134 -204 218q-117 104 -169 188q-69 110 -69 240q0 257 172 429t429 172q230 0 362 -131.5t132 -361.5zM953 634q0 101 -56 168q-59 70 -159 70q-139 0 -237 -141
q-89 -128 -89 -273q0 -103 58 -168q60 -68 161 -68q143 0 238 138q84 124 84 274z" />
    <glyph glyph-name="uni018E" unicode="&#x18e;" horiz-adv-x="1366" 
d="M1455 1466l-306 -1466h-1087l51 245h785l70 333h-759l51 245h759l92 398h-853l52 245h1145z" />
    <glyph glyph-name="uni018F" unicode="&#x18f;" horiz-adv-x="1531" 
d="M1544 852q0 -371 -211 -617q-223 -260 -588 -260q-265 0 -415.5 168.5t-150.5 459.5q0 138 30 251h1032q0 162 -74 264q-84 115 -240 115q-117 0 -202 -60q-89 -63 -119 -174l-291 63q42 198 231 319q173 110 386 110q295 0 456 -173q156 -168 156 -466zM1203 610h-724
q0 -196 84 -292q79 -90 217 -90q153 0 271 120q102 103 152 262z" />
    <glyph glyph-name="uni018F" unicode="&#x4d8;" horiz-adv-x="1531" 
d="M1544 852q0 -371 -211 -617q-223 -260 -588 -260q-265 0 -415.5 168.5t-150.5 459.5q0 138 30 251h1032q0 162 -74 264q-84 115 -240 115q-117 0 -202 -60q-89 -63 -119 -174l-291 63q42 198 231 319q173 110 386 110q295 0 456 -173q156 -168 156 -466zM1203 610h-724
q0 -196 84 -292q79 -90 217 -90q153 0 271 120q102 103 152 262z" />
    <glyph glyph-name="uni0190" unicode="&#x190;" horiz-adv-x="1316" 
d="M1384 1133l-303 -67q-13 184 -198 184q-94 0 -167 -47q-106 -68 -106 -198q0 -74 55 -118q63 -50 184 -50h34l-47 -221h-67q-120 0 -203 -40q-135 -65 -135 -198q0 -161 230 -161q122 0 198 51q70 47 130 159l252 -89q-110 -206 -270 -290q-140 -73 -370 -73
q-205 0 -333 76q-151 89 -151 263q0 338 380 459q-175 105 -175 280q0 225 243 353q161 85 366 85q436 0 453 -358z" />
    <glyph glyph-name="uni0191" unicode="&#x191;" 
d="M1413 1466l-52 -245h-724l-74 -352h710l-51 -245h-710l-96 -461q-63 -302 -112 -398q-100 -196 -312 -196q-118 0 -216 32l45 237q69 -17 116 -17q79 0 128 138q18 48 54 223l268 1284h1026z" />
    <glyph glyph-name="florin" unicode="&#x192;" horiz-adv-x="1139" 
d="M276 851l36 211h202l16 89q28 153 48 196q32 66 88 100q74 44 209 44t267 -41l-54 -226q-94 28 -158 28q-54 0 -80 -24t-43 -110l-11 -56h208l-37 -211h-205l-173 -978q-20 -119 -52.5 -177t-97.5 -92.5t-179 -34.5q-156 0 -280 40l57 221q109 -23 167 -23q62 0 87 38
q20 29 37 133l150 873h-202z" />
    <glyph glyph-name="uni0193" unicode="&#x193;" horiz-adv-x="1593" 
d="M2025 1671l-80 -196q-64 16 -125 16q-115 0 -144 -138l-67 -324l-281 -32q-75 250 -327 250q-324 0 -459 -311q-69 -159 -69 -347q0 -362 330 -362q194 0 375 93l45 218h-374l51 245h656l-132 -629q-277 -179 -628 -179q-272 0 -417 123q-198 168 -198 487q0 214 85 410
q102 237 288 365q190 131 444 131q251 0 404 -115q69 331 396 331q120 0 227 -36z" />
    <glyph glyph-name="uni0194" unicode="&#x194;" horiz-adv-x="1271" 
d="M1530 1466l-750 -1189l56 -265q13 -62 13 -117q0 -159 -103 -245q-97 -81 -261 -81q-253 0 -253 198q0 102 92 245l170 265l-249 1189h314l155 -804l502 804h314zM596 -122q0 35 -20 112q-79 -109 -79 -150q0 -40 39 -40q60 0 60 78z" />
    <glyph glyph-name="uni0195" unicode="&#x195;" horiz-adv-x="1912" 
d="M1954 1062l-118 -562q-56 -268 -178 -392q-130 -133 -368 -133q-228 0 -333 107q-108 110 -108 250q0 63 20 160l29 141q21 102 21 132q0 117 -123 117q-72 0 -138 -50q-86 -65 -131 -162q-25 -54 -66 -249l-88 -421h-287l307 1466h287l-110 -522q183 143 361 143
q125 0 202 -72t77 -196q0 -68 -28 -198l-38 -177q-15 -70 -15 -111q0 -144 168 -144q187 0 249 296l121 577h287z" />
    <glyph glyph-name="uni0196" unicode="&#x196;" horiz-adv-x="569" 
d="M80 0zM80 0l307 1466h286l-306 -1466h-287z" />
    <glyph glyph-name="uni0197" unicode="&#x197;" horiz-adv-x="569" 
d="M693 819l-38 -178h-148l-134 -641h-302l134 641h-150l38 178h150l135 647h301l-135 -647h149z" />
    <glyph glyph-name="uni0198" unicode="&#x198;" horiz-adv-x="1479" 
d="M1641 1466l-658 -575l483 -891h-341l-362 698l-285 -249l-94 -449h-303l244 1171q36 175 97 240q76 80 248 80q114 0 248 -40l-56 -205q-76 27 -137 27q-49 0 -73 -31q-16 -20 -33 -105l-60 -294l678 623h404z" />
    <glyph glyph-name="uni0199" unicode="&#x199;" horiz-adv-x="1139" 
d="M1258 1062l-427 -386l227 -676h-287l-146 491l-194 -172l-67 -319h-287l245 1171q28 134 53 181q74 139 278 139q132 0 278 -48l-56 -205q-103 35 -167 35q-49 0 -73 -31q-15 -19 -33 -105l-91 -434l374 359h373z" />
    <glyph glyph-name="uni019A" unicode="&#x19a;" horiz-adv-x="569" 
d="M693 819l-38 -178h-154l-134 -641h-287l134 641h-159l38 178h159l135 647h286l-135 -647h155z" />
    <glyph glyph-name="uni019B" unicode="&#x19b;" horiz-adv-x="1139" 
d="M1087 0h-270l-125 713l-408 -713h-310l644 1048l-24 123l-297 -76l-36 185l298 74l-21 112h255l10 -52l208 52l39 -178l-210 -54z" />
    <glyph glyph-name="uni019C" unicode="&#x19c;" horiz-adv-x="1865" 
d="M1952 1466l-308 -1466h-280l27 129q-158 -154 -332 -154q-130 0 -195 50t-83 138q-59 -85 -162.5 -136.5t-209.5 -51.5q-137 0 -208 68t-71 180q0 57 28 190l222 1053h297l-222 -1053q-25 -119 -25 -138q0 -95 106 -95q107 0 191 113q61 81 104 287l187 886h297
l-220 -1046q-23 -109 -23 -144q0 -96 107 -96q105 0 185 105q37 49 64 126q12 35 39 163l188 892h297z" />
    <glyph glyph-name="uni019D" unicode="&#x19d;" horiz-adv-x="1479" 
d="M1562 1466l-306 -1466h-281l-396 985l-171 -823q-81 -388 -134 -466q-87 -127 -273 -127q-118 0 -216 32l45 237q69 -17 116 -17q91 0 138 144q13 52 47 217l267 1284h282l397 -981l205 981h280z" />
    <glyph glyph-name="uni019E" unicode="&#x19e;" 
d="M1211 813q0 -53 -33 -212l-209 -1006h-287l210 1008q28 134 28 161q0 118 -123 118q-75 0 -154 -63q-69 -56 -107 -130q-32 -64 -72 -253l-91 -436h-287l222 1062h272l-28 -138q189 163 377 163q129 0 205.5 -73t76.5 -201z" />
    <glyph glyph-name="uni019F" unicode="&#x19f;" horiz-adv-x="1593" 
d="M179 0zM1606 874q0 -369 -226 -628q-237 -271 -600 -271q-270 0 -435.5 165t-165.5 435q0 228 98 441q104 226 282 347q189 128 440 128q278 0 442.5 -169.5t164.5 -447.5zM1305 855v14q2 161 -89 267q-89 103 -241 103q-218 0 -358 -203q-58 -84 -93 -181h781zM1255 610
h-778v-29q0 -152 91 -252q94 -103 244 -103q156 0 280 120q107 104 163 264z" />
    <glyph glyph-name="Ohorn" unicode="&#x1a0;" horiz-adv-x="1715" 
d="M477 581q0 -153 93 -254t241 -101q126 0 234 81q115 85 187 244q73 163 73 318q0 170 -93 272q-91 98 -237 98q-213 0 -359 -206q-139 -195 -139 -452zM1676 1466h289l-48 -229q-69 -328 -311 -362v-1q0 -236 -109 -449q-111 -218 -297 -334.5t-422 -116.5
q-197 0 -344 93q-136 86 -197 231q-58 137 -58 277q0 128 39 274q106 397 419 560q159 82 362 82q272 0 440 -169q125 -126 156 -314q122 34 154 181h-132z" />
    <glyph glyph-name="ohorn" unicode="&#x1a1;" horiz-adv-x="1375" 
d="M942 646q0 101 -59 163t-154 62q-195 0 -277 -224q-40 -110 -40 -202q0 -112 61.5 -180t156.5 -68q118 0 198 101q114 143 114 348zM1308 1062h289l-48 -229q-72 -342 -335 -364q-34 -171 -152 -306q-165 -188 -442 -188q-320 0 -439 230q-57 110 -57 236q0 294 166 470
t438 176q234 0 366.5 -128.5t132.5 -349.5v-5q121 34 154 181h-132z" />
    <glyph glyph-name="uni01A2" unicode="&#x1a2;" horiz-adv-x="1851" 
d="M1938 1466l-397 -1871h-296l346 1631h-164l-243 -1143q-189 -108 -427 -108q-338 0 -484 207q-94 133 -94 315q0 219 83 426q87 218 242 358q232 210 571 210q194 0 381 -130l426 105h56zM1131 1226q-46 12 -106 12q-211 0 -349 -152q-87 -96 -137 -245
q-47 -139 -47 -279q0 -99 38 -178q75 -156 280 -156q59 0 112 13z" />
    <glyph glyph-name="uni01A3" unicode="&#x1a3;" horiz-adv-x="1502" 
d="M1551 1062l-312 -1466h-281l268 1258h-140l-173 -814q-180 -64 -377 -64t-304.5 104t-107.5 297q0 150 69 309q66 153 166 244q170 156 418 156q195 0 336 -103l377 79h61zM805 854q-31 11 -71 11q-230 0 -297 -315q-17 -80 -17 -143q0 -202 178 -202q38 0 71 10z" />
    <glyph glyph-name="uni01A4" unicode="&#x1a4;" horiz-adv-x="1516" 
d="M1588 1098q0 -102 -39 -206q-40 -109 -109 -178q-114 -115 -329 -145q-71 -10 -266 -10h-193l-117 -559h-302l258 1221q-112 0 -149 -72q-24 -48 -24 -170l-204 -38q-5 50 -5 103q0 196 103 305q111 117 331 117h593q297 0 398 -161q54 -87 54 -207zM1286 1073
q0 105 -89 137q-41 15 -190 15h-216l-89 -423h93q179 0 242 11q140 25 203 115q46 66 46 145z" />
    <glyph glyph-name="uni01A5" unicode="&#x1a5;" 
d="M1240 629q0 -287 -175 -485q-150 -169 -355 -169q-211 0 -319 171l-115 -551h-287l330 1576q28 134 53 181q74 139 278 139q132 0 278 -48l-56 -205q-103 35 -167 35q-49 0 -73 -31q-15 -18 -33 -105l-34 -159q132 109 305 109q191 0 287 -138q83 -120 83 -320zM961 636
q0 105 -47 171q-54 75 -155 75q-179 0 -254 -230q-37 -114 -37 -199q0 -102 49 -176q56 -85 154 -85q166 0 247 223q43 118 43 221z" />
    <glyph glyph-name="uni01A6" unicode="&#x1a6;" horiz-adv-x="1366" 
d="M1401 921q0 -99 -40 -203q-41 -108 -109 -176q-111 -111 -306 -142l390 -719h-341l-366 706h-165l-79 -387h-302l312 1466h301l-37 -173h289q134 0 188 -10q157 -29 228 -184q37 -81 37 -178zM1099 902q0 106 -88 137q-37 13 -191 13h-214l-90 -423h92q178 0 242 12
q140 25 203 116q46 67 46 145z" />
    <glyph glyph-name="uni01A7" unicode="&#x1a7;" horiz-adv-x="1366" 
d="M1422 1154q0 -378 -571 -512q-172 -40 -244 -64q-180 -59 -180 -194q0 -87 90 -129q67 -31 159 -31q270 0 380 281l282 -28q-166 -503 -712 -503q-500 0 -500 389q0 149 82 266t230 181q95 41 338 101q158 39 217 63q143 58 143 137q0 135 -220 135q-123 0 -196.5 -49
t-117.5 -163l-293 13q56 226 243 341q167 103 413 103q194 0 315 -76q142 -89 142 -261z" />
    <glyph glyph-name="uni01A8" unicode="&#x1a8;" horiz-adv-x="1139" 
d="M1137 830q0 -199 -184 -309q-102 -61 -461 -137q-135 -29 -135 -117t179 -88q197 0 262 167l273 -43q-154 -327 -578 -327q-161 0 -271 55q-145 71 -145 218q0 216 188 322q91 51 293 95q163 35 179 40q141 42 141 97q0 81 -174 81q-166 0 -228 -128l-254 49
q79 158 219 224q119 57 311 57q149 0 253 -54q132 -68 132 -202z" />
    <glyph glyph-name="uni01A9" unicode="&#x1a9;" horiz-adv-x="1209" 
d="M39 0zM353 1466h1038l-53 -245h-704l360 -485l-503 -491h638l-53 -245h-1037l57 271l515 500l-317 425z" />
    <glyph glyph-name="uni01AA" unicode="&#x1aa;" horiz-adv-x="737" 
d="M727 1230q0 -55 -16 -131l-233 -1101q-25 -118 -25 -138q0 -70 97 -70q19 0 95 7l-45 -213q-74 -15 -152 -15q-151 0 -221 59q-62 53 -62 162q0 51 37 226l231 1094q-17 -5 -46 -5q-81 0 -137 54t-56 134q0 88 65.5 143t177.5 55q290 0 290 -261zM471 1298q0 35 -24.5 60
t-59.5 25t-59.5 -25t-24.5 -60t24.5 -59.5t59.5 -24.5t59.5 24.5t24.5 59.5z" />
    <glyph glyph-name="uni01AB" unicode="&#x1ab;" horiz-adv-x="682" 
d="M800 1062l-44 -213h-176l-93 -445q-25 -120 -25 -138q0 -70 97 -70q19 0 95 7l-47 -226q-42 -204 -104 -288q-88 -120 -271 -120q-118 0 -216 32l45 237q69 -17 116 -17q58 0 93 45q24 30 49 126q-152 44 -152 204q0 48 37 226l89 427h-139l44 213h140l35 170l329 198
l-77 -368h175z" />
    <glyph glyph-name="uni01AC" unicode="&#x1ac;" 
d="M1452 1466l-51 -245h-424l-255 -1221h-302l256 1221h-154q-113 0 -150 -72q-24 -48 -24 -170l-204 -38q-5 50 -5 103q0 422 432 422h881z" />
    <glyph glyph-name="uni01AD" unicode="&#x1ad;" horiz-adv-x="682" 
d="M969 1443l-56 -205q-103 35 -167 35q-49 0 -73 -31q-16 -21 -33 -105l-15 -75h175l-44 -213h-176l-93 -445q-25 -120 -25 -138q0 -70 97 -70q19 0 95 7l-45 -213q-74 -15 -152 -15q-290 0 -290 221q0 48 37 226l89 427h-139l44 213h140l22 109q26 131 53 181
q74 139 278 139q132 0 278 -48z" />
    <glyph glyph-name="uni01AE" unicode="&#x1ae;" 
d="M1452 1466l-51 -245h-424l-256 -1224q-25 -120 -25 -137q0 -70 97 -70q19 0 95 7l-45 -213q-74 -15 -152 -15q-305 0 -305 221q0 50 37 226l253 1205h-430l51 245h1155z" />
    <glyph glyph-name="Uhorn" unicode="&#x1af;" horiz-adv-x="1656" 
d="M1654 1466h289l-48 -229q-42 -199 -130 -279t-322 -85l-43 -209q-54 -260 -122 -387q-72 -136 -209 -218q-140 -84 -354 -84q-250 0 -392 126q-136 120 -136 322q0 38 7 89q6 44 35 182l162 772h301l-207 -992q-4 -19 -4 -47q0 -90 64 -143q66 -57 184 -57q212 0 290 163
q38 78 79 275l168 801h301l-96 -461q144 0 198 57q39 41 58 127h-132z" />
    <glyph glyph-name="uhorn" unicode="&#x1b0;" horiz-adv-x="1462" 
d="M1354 1062h289l-48 -229q-41 -199 -129.5 -279t-321.5 -85l-98 -469h-268l30 144q-176 -169 -383 -169q-130 0 -205.5 74.5t-75.5 201.5q0 57 34 219l124 592h287l-131 -629q-24 -115 -24 -141q0 -47 34.5 -79.5t86.5 -32.5q74 0 151 59q84 63 128 167q19 44 41 150
l106 506h287l-96 -461q143 0 197 57q39 41 58 127h-132z" />
    <glyph glyph-name="uni01B1" unicode="&#x1b1;" horiz-adv-x="1599" 
d="M1768 1466l-51 -237h-336q191 -178 191 -462q0 -335 -224 -563.5t-558 -228.5q-274 0 -437 171t-163 446q0 367 350 637h-305l50 237h679l-44 -207q-203 -47 -323 -265q-105 -191 -105 -418q0 -154 86 -250q90 -99 242 -99q228 0 362 224q113 190 113 434q0 262 -224 374
l45 207h652z" />
    <glyph glyph-name="uni01B2" unicode="&#x1b2;" horiz-adv-x="1479" 
d="M1514 1233q0 -459 -203 -821q-244 -437 -668 -437q-210 0 -330 114q-126 118 -126 334q0 71 42 271l162 772h301l-166 -796q-42 -201 -42 -245q0 -198 208 -198q236 0 396 370q130 300 130 570q0 108 -91 108q-62 0 -132 -16v196q123 36 246 36q128 0 199 -65
q74 -68 74 -193z" />
    <glyph glyph-name="uni01B3" unicode="&#x1b3;" horiz-adv-x="1466" 
d="M1750 1270l-169 -144q-79 107 -143 109q-58 2 -118 -81l-445 -611l-114 -543h-301l119 571l-404 895h321l269 -629l328 477q123 179 322 177q200 -2 335 -221z" />
    <glyph glyph-name="uni01B4" unicode="&#x1b4;" horiz-adv-x="1139" 
d="M1698 1369l-172 -209q-60 42 -102 42q-74 0 -173 -176l-636 -1130q-73 -129 -99 -166q-64 -90 -140 -128q-66 -33 -158 -33q-91 0 -205 32l25 214q52 -15 101 -15q132 0 217 200l-185 1062h286l102 -815l466 886q88 168 147 236q106 122 238 122q140 0 288 -122z" />
    <glyph glyph-name="uni01B5" unicode="&#x1b5;" 
d="M1368 1466l-44 -230l-357 -417h276l-38 -178h-391l-343 -401l157 3q26 0 114.5 1t150.5 1h346l-51 -245h-1137l48 231l350 410h-284l38 178h397l343 402h-683l51 245h1057z" />
    <glyph glyph-name="uni01B6" unicode="&#x1b6;" horiz-adv-x="1024" 
d="M1062 1062l-35 -171l-239 -268h193l-38 -178h-313l-190 -213h511l-49 -232h-868l41 194l227 251h-193l38 178h316l194 215h-475l47 224h833z" />
    <glyph glyph-name="uni01B7" unicode="&#x1b7;" 
d="M1394 1466l-48 -227l-533 -480q355 -57 355 -435q0 -304 -183 -521q-198 -234 -514 -234q-202 0 -327 89q-142 101 -145 295l286 47q0 -93 66 -149q62 -53 156 -53q166 0 274 166q93 143 93 309q0 125 -67 195t-189 70h-189l47 221l516 462h-723l52 245h1073z" />
    <glyph glyph-name="uni01B8" unicode="&#x1b8;" 
d="M1431 1466l-52 -245h-723l319 -462l-47 -221h-190q-184 0 -300 -154q-106 -140 -106 -327q0 -105 52 -177q59 -82 162 -82q97 0 179 56t119 146l266 -47q-169 -384 -629 -384q-205 0 -330 135q-116 125 -116 309q0 289 150 490q163 218 453 256l-328 477l48 230h1073z
" />
    <glyph glyph-name="uni01B9" unicode="&#x1b9;" horiz-adv-x="1078" 
d="M1159 1062l-48 -224h-546l231 -305l-36 -165h-99q-171 0 -260 -113q-79 -101 -79 -272q0 -185 182 -185q165 0 246 202l266 -47q-169 -384 -573 -384q-186 0 -297 89q-119 96 -119 275q0 223 114 389q125 180 340 211l-242 330l42 199h878z" />
    <glyph glyph-name="uni01BA" unicode="&#x1ba;" horiz-adv-x="1078" 
d="M1164 1062l-43 -199l-347 -260q98 -15 159 -77t61 -152q0 -27 -6 -56q-50 -233 -397 -310q-67 -13 -200 -42q-132 -33 -132 -103q0 -91 170 -91q189 0 263 167l273 -43q-154 -327 -582 -327q-422 0 -422 262q0 272 326 355q83 17 247 53q156 37 168 95q2 10 2 19
q0 85 -191 85h-99l35 165l315 235h-527l49 224h878z" />
    <glyph glyph-name="uni01BB" unicode="&#x1bb;" horiz-adv-x="1139" 
d="M1176 1098q0 -168 -130 -339h117l-38 -178h-247q-131 -125 -168 -162q-93 -93 -156 -174h513l-52 -245h-891q14 107 64 206q79 155 312 375h-315l38 178h464q55 54 82 84q129 143 129 257q0 71 -42 118.5t-112 47.5q-150 0 -196 -238l-281 42q33 196 151 306
q124 115 319 115q190 0 310 -100q129 -107 129 -293z" />
    <glyph glyph-name="uni01BC" unicode="&#x1bc;" horiz-adv-x="1139" 
d="M1237 1466l-50 -245h-464l-53 -240h95q160 0 258.5 -103.5t98.5 -264.5q0 -270 -176 -454t-439 -184q-194 0 -300 102q-109 104 -109 300l286 29q0 -87 42 -143q47 -63 131 -63q129 0 207 134q65 111 65 243q0 82 -45 132.5t-126 50.5h-331l100 461h-148l50 245h908z" />
    <glyph glyph-name="uni01BD" unicode="&#x1bd;" horiz-adv-x="1018" 
d="M1055 1062l-48 -224h-420l-39 -182h92q332 0 332 -259q0 -204 -168 -320q-148 -101 -363 -101q-380 0 -402 297l267 47q29 -156 172 -156q85 0 146 51q65 55 65 138q0 123 -150 123h-310l77 362h-147l48 224h848z" />
    <glyph glyph-name="uni01BE" unicode="&#x1be;" horiz-adv-x="1139" 
d="M1056 348q0 -182 -158 -285q-135 -88 -327 -88q-431 0 -526 322l278 44q68 -161 242 -161q98 0 157 44q41 30 41 73q0 45 -51 72q-18 10 -89 34q-260 86 -322 136q-97 78 -97 204q0 36 7 67l9 39h-139l44 213h140l35 170l329 198l-77 -368h175l-44 -213h-176l-8 -41
q-2 -10 -2 -29q0 -50 69 -79q55 -16 109 -32q210 -61 281 -120q100 -83 100 -200z" />
    <glyph glyph-name="uni01BF" unicode="&#x1bf;" horiz-adv-x="1264" 
d="M1253 714q0 -129 -67 -273q-62 -132 -159 -231q-134 -137 -351 -252q-11 -6 -369 -187l-37 -176h-281l312 1467h262l-34 -156q64 78 167 129t203 51q354 0 354 -372zM962 679q0 185 -186 185q-115 0 -203 -106q-75 -90 -100 -209l-117 -549q293 170 373 237
q100 84 163 197q70 124 70 245z" />
    <glyph glyph-name="uni01C0" unicode="&#x1c0;" horiz-adv-x="573" 
d="M399 0h-223v1491h223v-1491z" />
    <glyph glyph-name="uni01C1" unicode="&#x1c1;" horiz-adv-x="1019" 
d="M845 0h-223v1491h223v-1491zM399 0h-223v1491h223v-1491z" />
    <glyph glyph-name="uni01C1" unicode="&#x2016;" horiz-adv-x="1019" 
d="M845 0h-223v1491h223v-1491zM399 0h-223v1491h223v-1491z" />
    <glyph glyph-name="uni01C2" unicode="&#x1c2;" horiz-adv-x="1197" 
d="M1111 372h-401v-372h-223v372h-401v259h401v185h-401v258h401v417h223v-417h401v-258h-401v-185h401v-259z" />
    <glyph glyph-name="uni01C3" unicode="&#x1c3;" horiz-adv-x="682" 
d="M126 0zM418 373h-158l90 748l72 345h301l-77 -371zM184 277h284l-58 -277h-284z" />
    <glyph glyph-name="uni01C4" unicode="&#x1c4;" horiz-adv-x="2730" 
d="M89 0zM89 0l307 1466h395q165 0 211 -5q91 -9 162.5 -37t130 -78.5t101 -121.5t65.5 -163.5t23 -202.5q0 -237 -90.5 -420.5t-227.5 -291.5q-105 -84 -271 -124q-94 -22 -289 -22h-517zM440 236h153q166 0 240.5 20.5t136.5 76.5q89 81 150 216t61 318q0 156 -50.5 234.5
t-124.5 104.5q-52 18 -185 18h-175zM1530 0l48 231l844 990h-683l51 245h1057l-44 -230l-853 -996q136 3 157 3q96 0 265 2h346l-51 -245h-1137zM2328 1676l176 178h236l-297 -301h-268l-122 301h198z" />
    <glyph glyph-name="uni01C5" unicode="&#x1c5;" horiz-adv-x="2503" 
d="M89 0zM89 0l307 1466h395q165 0 211 -5q91 -9 162.5 -37t130 -78.5t101 -121.5t65.5 -163.5t23 -202.5q0 -237 -90.5 -420.5t-227.5 -291.5q-105 -84 -271 -124q-94 -22 -289 -22h-517zM440 236h153q166 0 240.5 20.5t136.5 76.5q89 81 150 216t61 318q0 156 -50.5 234.5
t-124.5 104.5q-52 18 -185 18h-175zM1513 0l41 194l582 644h-475l47 224h833l-35 -171l-587 -659h511l-49 -232h-868zM2137 1320l176 178h236l-297 -301h-268l-122 301h198z" />
    <glyph glyph-name="uni01C6" unicode="&#x1c6;" horiz-adv-x="2275" 
d="M121 0zM1063 0h-272l24 115q-78 -75 -153.5 -107.5t-170.5 -32.5q-165 0 -267.5 112.5t-102.5 332.5q0 255 144 461t381 206q214 0 321 -170l115 549h287zM400 432q0 -114 57.5 -178t141.5 -64q78 0 145.5 53.5t108 163.5t40.5 211q0 115 -62 186t-143 71
q-126 0 -207 -140t-81 -303zM1285 0l41 194l582 644h-475l47 224h833l-35 -171l-587 -659h511l-49 -232h-868zM1922 1320l176 178h236l-297 -301h-268l-122 301h198z" />
    <glyph glyph-name="uni01C7" unicode="&#x1c7;" horiz-adv-x="2390" 
d="M92 0zM92 0l307 1466h301l-255 -1221h746l-51 -245h-1048zM2183 1466h296l-185 -888q-74 -353 -194 -478t-369 -125q-211 0 -316 97t-105 264q0 35 5 78l279 30q-6 -44 -6 -73q0 -70 40 -107t123 -37q116 0 163 68q35 52 85 293z" />
    <glyph glyph-name="uni01C8" unicode="&#x1c8;" horiz-adv-x="1820" 
d="M92 0zM92 0l307 1466h301l-255 -1221h746l-51 -245h-1048zM1641 1466h288l-54 -260h-288zM1557 1062h288l-189 -899q-80 -385 -137 -467q-86 -127 -276 -127q-118 0 -216 32l45 237q69 -17 116 -17q58 0 93 45t92 316z" />
    <glyph glyph-name="uni01C9" unicode="&#x1c9;" horiz-adv-x="1138" 
d="M80 0zM80 0l307 1466h286l-306 -1466h-287zM959 1466h288l-54 -260h-288zM875 1062h288l-189 -899q-80 -385 -137 -467q-86 -127 -276 -127q-118 0 -216 32l45 237q69 -17 116 -17q58 0 93 45t92 316z" />
    <glyph glyph-name="uni01CA" unicode="&#x1ca;" horiz-adv-x="2618" 
d="M92 0zM1256 0h-281l-396 985l-206 -985h-281l306 1466h282l397 -981l205 981h280zM2411 1466h296l-185 -888q-74 -353 -194 -478t-369 -125q-211 0 -316 97t-105 264q0 35 5 78l279 30q-6 -44 -6 -73q0 -70 40 -107t123 -37q116 0 163 68q35 52 85 293z" />
    <glyph glyph-name="uni01CB" unicode="&#x1cb;" horiz-adv-x="2048" 
d="M92 0zM1256 0h-281l-396 985l-206 -985h-281l306 1466h282l397 -981l205 981h280zM1869 1466h288l-54 -260h-288zM1785 1062h288l-189 -899q-80 -385 -137 -467q-86 -127 -276 -127q-118 0 -216 32l45 237q69 -17 116 -17q58 0 93 45t92 316z" />
    <glyph glyph-name="uni01CC" unicode="&#x1cc;" horiz-adv-x="1820" 
d="M86 0zM308 1062h272l-28 -138q102 88 190.5 125.5t186.5 37.5q131 0 206.5 -75t75.5 -199q0 -56 -33 -212l-125 -601h-287l126 603q28 135 28 161q0 55 -32.5 86.5t-90.5 31.5q-63 0 -140 -53t-121 -140q-32 -62 -72 -253l-91 -436h-287zM1641 1466h288l-54 -260h-288z
M1557 1062h288l-189 -899q-80 -385 -137 -467q-86 -127 -276 -127q-118 0 -216 32l45 237q69 -17 116 -17q58 0 93 45t92 316z" />
    <glyph glyph-name="uni01CD" unicode="&#x1cd;" horiz-adv-x="1479" 
d="M0 0zM1044 324h-581l-176 -324h-310l829 1466h335l238 -1466h-286zM1007 568l-85 590l-354 -590h439zM1009 1682l176 178h236l-297 -301h-268l-122 301h198z" />
    <glyph glyph-name="uni01CE" unicode="&#x1ce;" horiz-adv-x="1139" 
d="M92 0zM487 761l-280 24q48 142 167.5 222t316.5 80q205 0 303 -82.5t98 -201.5q0 -48 -8.5 -102t-59.5 -284q-42 -190 -42 -266q0 -68 24 -151h-279q-17 58 -21 120q-63 -70 -145 -107.5t-165 -37.5q-132 0 -218 86.5t-86 222.5q0 152 94.5 243t337.5 110q205 17 274 41
q18 60 18 96q0 46 -37 77t-110 31q-77 0 -121.5 -31.5t-60.5 -89.5zM760 495q-26 -7 -69 -13q-216 -26 -282 -76q-47 -36 -47 -97q0 -50 36 -84.5t95 -34.5q65 0 122.5 31.5t86 81t50.5 154.5zM739 1320l176 178h236l-297 -301h-268l-122 301h198z" />
    <glyph glyph-name="uni01CF" unicode="&#x1cf;" horiz-adv-x="569" 
d="M71 0zM71 0l307 1466h301l-306 -1466h-302zM572 1682l176 178h236l-297 -301h-268l-122 301h198z" />
    <glyph glyph-name="uni01D0" unicode="&#x1d0;" horiz-adv-x="569" 
d="M82 0zM304 1062h287l-222 -1062h-287zM499 1320l176 178h236l-297 -301h-268l-122 301h198z" />
    <glyph glyph-name="uni01D1" unicode="&#x1d1;" horiz-adv-x="1593" 
d="M179 0zM179 575q0 130 39 274q51 193 155.5 335t263.5 224.5t362 82.5q272 0 439.5 -169t167.5 -448q0 -232 -109 -449t-296 -334t-423 -117q-205 0 -344 93t-197 230.5t-58 277.5zM477 581q0 -151 92 -253t242 -102q122 0 234.5 80.5t186 244t73.5 318.5
q0 173 -93 271.5t-237 98.5q-221 0 -359.5 -206t-138.5 -452zM1043 1682l176 178h236l-297 -301h-268l-122 301h198z" />
    <glyph glyph-name="uni01D2" unicode="&#x1d2;" 
d="M124 0zM124 441q0 295 166.5 470.5t437.5 175.5q235 0 367 -129.5t132 -348.5q0 -258 -165 -446t-442 -188q-150 0 -266 60t-173 170t-57 236zM942 646q0 102 -59.5 163.5t-153.5 61.5q-93 0 -165 -57.5t-112 -167t-40 -201.5q0 -114 62 -181t156 -67q118 0 198 101
q114 143 114 348zM789 1320l176 178h236l-297 -301h-268l-122 301h198z" />
    <glyph glyph-name="uni01D3" unicode="&#x1d3;" horiz-adv-x="1479" 
d="M187 0zM391 1466h301l-166 -796l-41 -196q-4 -25 -4 -47q0 -87 63.5 -143.5t184.5 -56.5q109 0 180 41t110 122t79 275l168 801h301l-167 -802q-53 -253 -122 -387t-209 -218t-354 -84q-256 0 -392 125.5t-136 322.5q0 41 7 89q4 32 35 182zM1024 1682l176 178h236
l-297 -301h-268l-122 301h198z" />
    <glyph glyph-name="uni01D4" unicode="&#x1d4;" 
d="M144 0zM302 1062h287l-131 -629q-24 -113 -24 -141q0 -46 34 -79t87 -33q38 0 75 14.5t76 44t70 67.5t58 100q19 46 41 150l106 506h287l-222 -1062h-268l30 144q-176 -169 -383 -169q-131 0 -206 75t-75 201q0 55 34 219zM830 1320l176 178h236l-297 -301h-268l-122 301
h198z" />
    <glyph glyph-name="uni01D5" unicode="&#x1d5;" horiz-adv-x="1479" 
d="M187 0zM391 1466h301l-166 -796l-41 -196q-4 -25 -4 -47q0 -87 63.5 -143.5t184.5 -56.5q109 0 180 41t110 122t79 275l168 801h301l-167 -802q-53 -253 -122 -387t-209 -218t-354 -84q-256 0 -392 125.5t-136 322.5q0 41 7 89q4 32 35 182zM1288 1721h-516l24 122h516z
M1249 1496h-140l30 152h140zM863 1496h-140l30 152h140z" />
    <glyph glyph-name="uni01D6" unicode="&#x1d6;" 
d="M144 0zM302 1062h287l-131 -629q-24 -113 -24 -141q0 -46 34 -79t87 -33q38 0 75 14.5t76 44t70 67.5t58 100q19 46 41 150l106 506h287l-222 -1062h-268l30 144q-176 -169 -383 -169q-131 0 -206 75t-75 201q0 55 34 219zM537 1468h246l-51 -245h-246zM958 1468h246
l-51 -245h-246zM624 1827h640l-40 -193h-640z" />
    <glyph glyph-name="uni01D7" unicode="&#x1d7;" horiz-adv-x="1479" 
d="M187 0zM391 1466h301l-166 -796l-41 -196q-4 -25 -4 -47q0 -87 63.5 -143.5t184.5 -56.5q109 0 180 41t110 122t79 275l168 801h301l-167 -802q-53 -253 -122 -387t-209 -218t-354 -84q-256 0 -392 125.5t-136 322.5q0 41 7 89q4 32 35 182zM1327 1844l-266 -178h-150
l170 178h246zM1249 1496h-140l30 152h140zM863 1496h-140l30 152h140z" />
    <glyph glyph-name="uni01D8" unicode="&#x1d8;" 
d="M144 0zM302 1062h287l-131 -629q-24 -113 -24 -141q0 -46 34 -79t87 -33q38 0 75 14.5t76 44t70 67.5t58 100q19 46 41 150l106 506h287l-222 -1062h-268l30 144q-176 -169 -383 -169q-131 0 -206 75t-75 201q0 55 34 219zM537 1468h246l-51 -245h-246zM958 1468h246
l-51 -245h-246zM955 1896h306l-324 -300h-191z" />
    <glyph glyph-name="uni01D9" unicode="&#x1d9;" horiz-adv-x="1479" 
d="M187 0zM391 1466h301l-166 -796l-41 -196q-4 -25 -4 -47q0 -87 63.5 -143.5t184.5 -56.5q109 0 180 41t110 122t79 275l168 801h301l-167 -802q-53 -253 -122 -387t-209 -218t-354 -84q-256 0 -392 125.5t-136 322.5q0 41 7 89q4 32 35 182zM1249 1496h-140l30 152h140z
M1322 1844l-197 -177h-218l-121 177h189l62 -98l98 98h187zM863 1496h-140l30 152h140z" />
    <glyph glyph-name="uni01DA" unicode="&#x1da;" 
d="M144 0zM302 1062h287l-131 -629q-24 -113 -24 -141q0 -46 34 -79t87 -33q38 0 75 14.5t76 44t70 67.5t58 100q19 46 41 150l106 506h287l-222 -1062h-268l30 144q-176 -169 -383 -169q-131 0 -206 75t-75 201q0 55 34 219zM537 1468h246l-51 -245h-246zM958 1468h246
l-51 -245h-246zM909 1720l176 178h236l-297 -301h-268l-122 301h198z" />
    <glyph glyph-name="uni01DB" unicode="&#x1db;" horiz-adv-x="1479" 
d="M187 0zM391 1466h301l-166 -796l-41 -196q-4 -25 -4 -47q0 -87 63.5 -143.5t184.5 -56.5q109 0 180 41t110 122t79 275l168 801h301l-167 -802q-53 -253 -122 -387t-209 -218t-354 -84q-256 0 -392 125.5t-136 322.5q0 41 7 89q4 32 35 182zM1249 1496h-140l30 152h140z
M1127 1666h-150l-196 178h246zM863 1496h-140l30 152h140z" />
    <glyph glyph-name="uni01DC" unicode="&#x1dc;" 
d="M144 0zM302 1062h287l-131 -629q-24 -113 -24 -141q0 -46 34 -79t87 -33q38 0 75 14.5t76 44t70 67.5t58 100q19 46 41 150l106 506h287l-222 -1062h-268l30 144q-176 -169 -383 -169q-131 0 -206 75t-75 201q0 55 34 219zM537 1468h246l-51 -245h-246zM958 1468h246
l-51 -245h-246zM630 1899h276l128 -299h-194z" />
    <glyph glyph-name="uni01DD" unicode="&#x1dd;" horiz-adv-x="1139" 
d="M101 0zM1118 593q0 -219 -121 -388q-164 -230 -471 -230q-204 0 -317 129q-108 122 -108 329q0 104 20 187h720q1 17 1 26q0 98 -54 164q-58 72 -154 72q-143 0 -223 -148l-257 43q150 310 482 310q219 0 352 -138q130 -136 130 -356zM812 445h-449q-1 -19 -1 -29
q0 -236 195 -236q105 0 175 83q59 70 80 182z" />
    <glyph glyph-name="uni01DE" unicode="&#x1de;" horiz-adv-x="1479" 
d="M0 0zM1044 324h-581l-176 -324h-310l829 1466h335l238 -1466h-286zM1007 568l-85 590l-354 -590h439zM1270 1721h-516l24 122h516zM1231 1496h-140l30 152h140zM845 1496h-140l30 152h140z" />
    <glyph glyph-name="uni01DF" unicode="&#x1df;" horiz-adv-x="1139" 
d="M92 0zM487 761l-280 24q48 142 167.5 222t316.5 80q205 0 303 -82.5t98 -201.5q0 -48 -8.5 -102t-59.5 -284q-42 -190 -42 -266q0 -68 24 -151h-279q-17 58 -21 120q-63 -70 -145 -107.5t-165 -37.5q-132 0 -218 86.5t-86 222.5q0 152 94.5 243t337.5 110q205 17 274 41
q18 60 18 96q0 46 -37 77t-110 31q-77 0 -121.5 -31.5t-60.5 -89.5zM760 495q-26 -7 -69 -13q-216 -26 -282 -76q-47 -36 -47 -97q0 -50 36 -84.5t95 -34.5q65 0 122.5 31.5t86 81t50.5 154.5zM439 1468h246l-51 -245h-246zM860 1468h246l-51 -245h-246zM502 1797h640
l-40 -193h-640z" />
    <glyph glyph-name="uni01E0" unicode="&#x1e0;" horiz-adv-x="1479" 
d="M0 0zM1044 324h-581l-176 -324h-310l829 1466h335l238 -1466h-286zM1007 568l-85 590l-354 -590h439zM1292 1843l-24 -122h-516l24 122h516zM1078 1648l-30 -152h-140l30 152h140z" />
    <glyph glyph-name="uni01E1" unicode="&#x1e1;" horiz-adv-x="1139" 
d="M92 0zM487 761l-280 24q48 142 167.5 222t316.5 80q205 0 303 -82.5t98 -201.5q0 -48 -8.5 -102t-59.5 -284q-42 -190 -42 -266q0 -68 24 -151h-279q-17 58 -21 120q-63 -70 -145 -107.5t-165 -37.5q-132 0 -218 86.5t-86 222.5q0 152 94.5 243t337.5 110q205 17 274 41
q18 60 18 96q0 46 -37 77t-110 31q-77 0 -121.5 -31.5t-60.5 -89.5zM760 495q-26 -7 -69 -13q-216 -26 -282 -76q-47 -36 -47 -97q0 -50 36 -84.5t95 -34.5q65 0 122.5 31.5t86 81t50.5 154.5zM611 1490h287l-55 -263h-287zM502 1797h640l-40 -193h-640z" />
    <glyph glyph-name="uni01E2" unicode="&#x1e2;" horiz-adv-x="2048" 
d="M0 0zM941 367h-489l-208 -367h-310l852 1466h1383l-51 -245h-718l-70 -335h690l-52 -245h-689l-83 -396h775l-51 -245h-1056zM992 612l127 609h-179l-346 -609h398zM1194 1763h640l-40 -193h-640z" />
    <glyph glyph-name="uni01E3" unicode="&#x1e3;" horiz-adv-x="1821" 
d="M63 0zM1754 440h-732q4 -116 67.5 -183t153.5 -67q144 0 221 138l258 -41q-172 -312 -490 -312q-282 0 -396 248q-184 -248 -439 -248q-154 0 -244 86.5t-90 224.5q0 119 57.5 198t145 109.5t250.5 45.5q212 19 272 42q8 33 8 57q0 71 -39 107.5t-122 36.5
q-75 0 -116.5 -29t-63.5 -95l-275 28q38 133 159.5 217t318.5 84q144 0 231 -42q62 -30 100 -91q138 133 353 133q195 0 313 -121t118 -334q0 -97 -19 -192zM1512 615q1 20 1 33q0 114 -53.5 174t-140.5 60q-93 0 -169.5 -68t-104.5 -199h467zM751 501q-286 -31 -375 -92
q-54 -37 -54 -97q0 -49 37 -84t99 -35q94 0 167 71q97 92 126 237zM754 1427h640l-40 -193h-640z" />
    <glyph glyph-name="uni01E4" unicode="&#x1e4;" horiz-adv-x="1593" 
d="M1609 1029l-281 -32q-75 250 -327 250q-324 0 -459 -311q-69 -159 -69 -347q0 -362 330 -362q188 0 367 89h-364l30 137h369l18 85h-374l51 245h656l-69 -330h99l-30 -137h-98l-34 -162q-277 -179 -628 -179q-272 0 -417 123q-198 168 -198 487q0 214 85 410
q102 237 288 365q190 131 444 131q509 0 611 -462z" />
    <glyph glyph-name="uni01E5" unicode="&#x1e5;" 
d="M1275 1062l-184 -885q-21 -99 -40 -177h91l-19 -92h-97q-7 -23 -11 -35q-60 -176 -196 -246q-111 -58 -310 -58q-195 0 -318 58q-154 72 -154 224h303q0 -77 175 -77q180 0 226 134h-734l19 92h738l38 175q-138 -124 -308 -124q-179 0 -279 121q-90 107 -90 271
q0 173 59 316q68 162 200 248q123 80 251 80q228 0 331 -213l40 188h269zM887 631q0 100 -47 170q-55 81 -155 81q-134 0 -214 -148q-66 -121 -66 -259q0 -211 194 -211q128 0 214 130q74 112 74 237z" />
    <glyph glyph-name="Gcaron" unicode="&#x1e6;" horiz-adv-x="1593" 
d="M181 0zM900 783h656l-132 -629q-116 -75 -284.5 -127t-343.5 -52q-272 0 -417 123q-198 168 -198 487q0 214 85 410q102 236 290 366t442 130t407.5 -118t203.5 -344l-281 -32q-37 124 -119.5 187t-207.5 63q-146 0 -268 -76t-191 -235t-69 -347q0 -185 84 -273.5
t246 -88.5q97 0 199 27.5t176 65.5l45 218h-374zM1025 1671l176 178h236l-297 -301h-268l-122 301h198z" />
    <glyph glyph-name="gcaron" unicode="&#x1e7;" 
d="M64 0zM67 -56l303 -44q0 -46 15 -69.5t48.5 -40t91.5 -16.5q91 0 146 36q41 28 67 90q16 39 41 170l10 50q-149 -124 -308 -124q-156 0 -256 110t-100 322q0 187 68 343t191 236t251 80q106 0 194 -56t137 -157l40 188h269l-184 -885q-45 -213 -76 -304t-71 -145
t-101 -90.5t-144 -52.5t-180 -16q-225 0 -340 77t-115 256q0 19 3 42zM405 457q0 -121 54.5 -184.5t136.5 -63.5q75 0 145.5 57t108 162t37.5 203q0 113 -61 182t-141 69q-77 0 -141.5 -61t-106.5 -188q-32 -98 -32 -176zM689 1320l176 178h236l-297 -301h-268l-122 301h198
z" />
    <glyph glyph-name="uni01E8" unicode="&#x1e8;" horiz-adv-x="1479" 
d="M81 0zM81 0l306 1466h302l-130 -623l678 623h404l-658 -575l483 -891h-341l-362 698l-285 -249l-94 -449h-303zM979 1671l176 178h236l-297 -301h-268l-122 301h198z" />
    <glyph glyph-name="uni01E9" unicode="&#x1e9;" horiz-adv-x="1139" 
d="M77 0zM77 0l307 1466h287l-160 -763l374 359h373l-427 -386l227 -676h-287l-146 491l-194 -172l-67 -319h-287zM799 1671l176 178h236l-297 -301h-268l-122 301h198z" />
    <glyph glyph-name="uni01EA" unicode="&#x1ea;" horiz-adv-x="1593" 
d="M179 0zM179 575q0 130 39 274q51 193 155.5 335t263.5 224.5t362 82.5q272 0 439.5 -169t167.5 -448q0 -232 -109 -449t-296 -334t-423 -117q-205 0 -344 93t-197 230.5t-58 277.5zM477 581q0 -151 92 -253t242 -102q122 0 234.5 80.5t186 244t73.5 318.5
q0 173 -93 271.5t-237 98.5q-221 0 -359.5 -206t-138.5 -452zM1007 -215l-35 -167q-93 -40 -160 -40q-106 0 -153 56q-31 37 -31 91q0 79 65 164q48 62 118 111h167q-43 -28 -76 -72q-44 -60 -44 -106q0 -56 62 -56q17 0 42 7z" />
    <glyph glyph-name="uni01EB" unicode="&#x1eb;" 
d="M124 0zM124 441q0 295 166.5 470.5t437.5 175.5q235 0 367 -129.5t132 -348.5q0 -258 -165 -446t-442 -188q-150 0 -266 60t-173 170t-57 236zM942 646q0 102 -59.5 163.5t-153.5 61.5q-93 0 -165 -57.5t-112 -167t-40 -201.5q0 -114 62 -181t156 -67q118 0 198 101
q114 143 114 348zM827 -215l-35 -167q-93 -40 -160 -40q-106 0 -153 56q-31 37 -31 91q0 79 65 164q48 62 118 111h167q-43 -28 -76 -72q-44 -60 -44 -106q0 -56 62 -56q17 0 42 7z" />
    <glyph glyph-name="uni01EC" unicode="&#x1ec;" horiz-adv-x="1593" 
d="M179 0zM179 575q0 130 39 274q51 193 155.5 335t263.5 224.5t362 82.5q272 0 439.5 -169t167.5 -448q0 -232 -109 -449t-296 -334t-423 -117q-205 0 -344 93t-197 230.5t-58 277.5zM477 581q0 -151 92 -253t242 -102q122 0 234.5 80.5t186 244t73.5 318.5
q0 173 -93 271.5t-237 98.5q-221 0 -359.5 -206t-138.5 -452zM1007 -215l-35 -167q-93 -40 -160 -40q-106 0 -153 56q-31 37 -31 91q0 79 65 164q48 62 118 111h167q-43 -28 -76 -72q-44 -60 -44 -106q0 -56 62 -56q17 0 42 7zM714 1778h640l-40 -193h-640z" />
    <glyph glyph-name="uni01ED" unicode="&#x1ed;" 
d="M124 0zM124 441q0 295 166.5 470.5t437.5 175.5q235 0 367 -129.5t132 -348.5q0 -258 -165 -446t-442 -188q-150 0 -266 60t-173 170t-57 236zM942 646q0 102 -59.5 163.5t-153.5 61.5q-93 0 -165 -57.5t-112 -167t-40 -201.5q0 -114 62 -181t156 -67q118 0 198 101
q114 143 114 348zM827 -215l-35 -167q-93 -40 -160 -40q-106 0 -153 56q-31 37 -31 91q0 79 65 164q48 62 118 111h167q-43 -28 -76 -72q-44 -60 -44 -106q0 -56 62 -56q17 0 42 7zM464 1427h640l-40 -193h-640z" />
    <glyph glyph-name="uni01EE" unicode="&#x1ee;" 
d="M0 0zM1394 1466l-48 -227l-533 -480q355 -57 355 -435q0 -304 -183 -521q-198 -234 -514 -234q-202 0 -327 89q-142 101 -145 295l286 47q0 -93 66 -149q62 -53 156 -53q166 0 274 166q93 143 93 309q0 125 -67 195t-189 70h-189l47 221l516 462h-723l52 245h1073z
M859 1671l176 178h236l-297 -301h-268l-122 301h198z" />
    <glyph glyph-name="uni01EF" unicode="&#x1ef;" horiz-adv-x="1078" 
d="M0 0zM1164 1062l-43 -199l-382 -330q263 -40 263 -319q0 -137 -61 -273.5t-162 -225.5q-166 -146 -412 -146q-405 0 -410 384l286 47q-5 -202 160 -202q143 0 230 125q77 111 77 260q0 62 -33 108q-55 77 -189 77h-99l35 165l362 305h-546l46 224h878zM699 1320l176 178
h236l-297 -301h-268l-122 301h198z" />
    <glyph glyph-name="uni01F0" unicode="&#x1f0;" horiz-adv-x="569" 
d="M0 0zM594 1062l-189 -899q-81 -385 -137 -467q-87 -127 -276 -127q-118 0 -216 32l45 237q69 -17 116 -17q91 0 138 144q15 53 47 217l184 880h288zM499 1320l176 178h236l-297 -301h-268l-122 301h198z" />
    <glyph glyph-name="uni01F1" unicode="&#x1f1;" horiz-adv-x="2730" 
d="M89 0zM89 0l307 1466h395q165 0 211 -5q91 -9 162.5 -37t130 -78.5t101 -121.5t65.5 -163.5t23 -202.5q0 -237 -90.5 -420.5t-227.5 -291.5q-105 -84 -271 -124q-94 -22 -289 -22h-517zM440 236h153q166 0 240.5 20.5t136.5 76.5q89 81 150 216t61 318q0 156 -50.5 234.5
t-124.5 104.5q-52 18 -185 18h-175zM1530 0l48 231l844 990h-683l51 245h1057l-44 -230l-853 -996q136 3 157 3q96 0 265 2h346l-51 -245h-1137z" />
    <glyph glyph-name="uni01F2" unicode="&#x1f2;" horiz-adv-x="2503" 
d="M89 0zM89 0l307 1466h395q165 0 211 -5q91 -9 162.5 -37t130 -78.5t101 -121.5t65.5 -163.5t23 -202.5q0 -237 -90.5 -420.5t-227.5 -291.5q-105 -84 -271 -124q-94 -22 -289 -22h-517zM440 236h153q166 0 240.5 20.5t136.5 76.5q89 81 150 216t61 318q0 156 -50.5 234.5
t-124.5 104.5q-52 18 -185 18h-175zM1513 0l41 194l582 644h-475l47 224h833l-35 -171l-587 -659h511l-49 -232h-868z" />
    <glyph glyph-name="uni01F3" unicode="&#x1f3;" horiz-adv-x="2275" 
d="M121 0zM1063 0h-272l24 115q-78 -75 -153.5 -107.5t-170.5 -32.5q-165 0 -267.5 112.5t-102.5 332.5q0 255 144 461t381 206q214 0 321 -170l115 549h287zM400 432q0 -114 57.5 -178t141.5 -64q78 0 145.5 53.5t108 163.5t40.5 211q0 115 -62 186t-143 71
q-126 0 -207 -140t-81 -303zM1285 0l41 194l582 644h-475l47 224h833l-35 -171l-587 -659h511l-49 -232h-868z" />
    <glyph glyph-name="uni01F4" unicode="&#x1f4;" horiz-adv-x="1593" 
d="M181 0zM900 783h656l-132 -629q-116 -75 -284.5 -127t-343.5 -52q-272 0 -417 123q-198 168 -198 487q0 214 85 410q102 236 290 366t442 130t407.5 -118t203.5 -344l-281 -32q-37 124 -119.5 187t-207.5 63q-146 0 -268 -76t-191 -235t-69 -347q0 -185 84 -273.5
t246 -88.5q97 0 199 27.5t176 65.5l45 218h-374zM1115 1858h306l-324 -300h-191z" />
    <glyph glyph-name="uni01F5" unicode="&#x1f5;" 
d="M64 0zM67 -56l303 -44q0 -46 15 -69.5t48.5 -40t91.5 -16.5q91 0 146 36q41 28 67 90q16 39 41 170l10 50q-149 -124 -308 -124q-156 0 -256 110t-100 322q0 187 68 343t191 236t251 80q106 0 194 -56t137 -157l40 188h269l-184 -885q-45 -213 -76 -304t-71 -145
t-101 -90.5t-144 -52.5t-180 -16q-225 0 -340 77t-115 256q0 19 3 42zM405 457q0 -121 54.5 -184.5t136.5 -63.5q75 0 145.5 57t108 162t37.5 203q0 113 -61 182t-141 69q-77 0 -141.5 -61t-106.5 -188q-32 -98 -32 -176zM765 1496h306l-324 -300h-191z" />
    <glyph glyph-name="uni01F6" unicode="&#x1f6;" horiz-adv-x="2120" 
d="M2162 1062l-118 -562q-56 -268 -178 -392q-130 -133 -368 -133q-244 0 -349 107q-108 110 -108 250q0 64 20 160l34 163h-567l-137 -655h-302l307 1466h301l-118 -566h567l119 566h301l-214 -1022q-15 -72 -15 -111q0 -144 168 -144q187 0 249 296l121 577h287z" />
    <glyph glyph-name="uni01F7" unicode="&#x1f7;" horiz-adv-x="1410" 
d="M1429 1104q0 -228 -138 -483q-117 -214 -304 -405q-291 -296 -658 -469l-32 -151h-291l397 1870h272l-33 -156q170 181 400 181q191 0 293 -111q94 -103 94 -276zM1110 1022q0 216 -193 216q-136 0 -234 -111q-80 -91 -106 -214l-194 -913q251 145 456 407
q271 345 271 615z" />
    <glyph glyph-name="uni01F8" unicode="&#x1f8;" horiz-adv-x="1479" 
d="M92 0zM1256 0h-281l-396 985l-206 -985h-281l306 1466h282l397 -981l205 981h280zM700 1861h276l128 -299h-194z" />
    <glyph glyph-name="uni01F9" unicode="&#x1f9;" 
d="M86 0zM308 1062h272l-28 -138q102 88 190.5 125.5t186.5 37.5q131 0 206.5 -75t75.5 -199q0 -56 -33 -212l-125 -601h-287l126 603q28 135 28 161q0 55 -32.5 86.5t-90.5 31.5q-63 0 -140 -53t-121 -140q-32 -62 -72 -253l-91 -436h-287zM544 1499h276l128 -299h-194z
" />
    <glyph glyph-name="Aringacute" unicode="&#x1fa;" horiz-adv-x="1479" 
d="M0 0zM0 0zM1044 305h-581l-176 -324h-310l829 1466h335l238 -1466h-286zM1007 549l-85 590l-354 -590h439zM781 1556q0 80 56.5 136.5t136.5 56.5t136.5 -56.5t56.5 -136.5t-56.5 -136.5t-136.5 -56.5t-136.5 56.5t-56.5 136.5zM890 1556q0 -35 24.5 -59.5t59.5 -24.5
t59.5 24.5t24.5 59.5t-24.5 60t-59.5 25t-59.5 -25t-24.5 -60zM1072 2049h306l-324 -300h-191z" />
    <glyph glyph-name="aringacute" unicode="&#x1fb;" horiz-adv-x="1139" 
d="M92 0zM92 0zM487 761l-280 24q48 142 167.5 222t316.5 80q205 0 303 -82.5t98 -201.5q0 -48 -8.5 -102t-59.5 -284q-42 -190 -42 -266q0 -68 24 -151h-279q-17 58 -21 120q-63 -70 -145 -107.5t-165 -37.5q-132 0 -218 86.5t-86 222.5q0 152 94.5 243t337.5 110
q205 17 274 41q18 60 18 96q0 46 -37 77t-110 31q-77 0 -121.5 -31.5t-60.5 -89.5zM760 495q-26 -7 -69 -13q-216 -26 -282 -76q-47 -36 -47 -97q0 -50 36 -84.5t95 -34.5q65 0 122.5 31.5t86 81t50.5 154.5zM538 1351q0 80 56.5 136.5t136.5 56.5t136.5 -56.5t56.5 -136.5
t-56.5 -136.5t-136.5 -56.5t-136.5 56.5t-56.5 136.5zM647 1351q0 -35 24.5 -59.5t59.5 -24.5t59.5 24.5t24.5 59.5t-24.5 60t-59.5 25t-59.5 -25t-24.5 -60zM899 1898h306l-324 -300h-191z" />
    <glyph glyph-name="AEacute" unicode="&#x1fc;" horiz-adv-x="2048" 
d="M0 0zM941 367h-489l-208 -367h-310l852 1466h1383l-51 -245h-718l-70 -335h690l-52 -245h-689l-83 -396h775l-51 -245h-1056zM992 612l127 609h-179l-346 -609h398zM1405 1898h306l-324 -300h-191z" />
    <glyph glyph-name="aeacute" unicode="&#x1fd;" horiz-adv-x="1821" 
d="M63 0zM1754 440h-732q4 -116 67.5 -183t153.5 -67q144 0 221 138l258 -41q-172 -312 -490 -312q-282 0 -396 248q-184 -248 -439 -248q-154 0 -244 86.5t-90 224.5q0 119 57.5 198t145 109.5t250.5 45.5q212 19 272 42q8 33 8 57q0 71 -39 107.5t-122 36.5
q-75 0 -116.5 -29t-63.5 -95l-275 28q38 133 159.5 217t318.5 84q144 0 231 -42q62 -30 100 -91q138 133 353 133q195 0 313 -121t118 -334q0 -97 -19 -192zM1512 615q1 20 1 33q0 114 -53.5 174t-140.5 60q-93 0 -169.5 -68t-104.5 -199h467zM751 501q-286 -31 -375 -92
q-54 -37 -54 -97q0 -49 37 -84t99 -35q94 0 167 71q97 92 126 237zM1154 1496h306l-324 -300h-191z" />
    <glyph glyph-name="Oslashacute" unicode="&#x1fe;" horiz-adv-x="1593" 
d="M159 0zM309 172q-138 167 -138 398q0 234 105 460t292 343.5t421 117.5q206 0 344 -89l140 168l138 -114l-144 -173q131 -160 131 -410q0 -238 -112.5 -455t-298 -330t-411.5 -113q-198 0 -329 80l-147 -177l-141 114zM506 409l646 775q-79 55 -186 55q-125 0 -241 -83
t-185.5 -245t-69.5 -320q0 -95 36 -182zM1265 1040l-638 -768q84 -55 181 -55q118 0 230.5 80t189 244t76.5 332q0 81 -39 167zM1178 1898h306l-324 -300h-191z" />
    <glyph glyph-name="oslashacute" unicode="&#x1ff;" 
d="M108 0zM1002 1026l124 144l111 -94l-122 -142q109 -125 109 -326q0 -257 -165 -445t-441 -188q-156 0 -275 64l-127 -146l-108 96l122 141q-109 129 -109 324q0 229 126 406q161 227 479 227q165 0 276 -61zM846 845q-54 34 -125 34q-62 0 -112 -25.5t-97.5 -81.5
t-78.5 -134q-44 -110 -44 -213q0 -47 15 -93zM937 728l-442 -512q55 -31 125 -31q93 0 169 58.5t120.5 174t44.5 213.5q0 46 -17 97zM869 1496h306l-324 -300h-191z" />
    <glyph glyph-name="uni0200" unicode="&#x200;" horiz-adv-x="1479" 
d="M0 0zM1044 324h-581l-176 -324h-310l829 1466h335l238 -1466h-286zM1007 568l-85 590l-354 -590h439zM1302 1562h-194l-210 299h276zM952 1562h-194l-210 299h276z" />
    <glyph glyph-name="uni0201" unicode="&#x201;" horiz-adv-x="1139" 
d="M92 0zM487 761l-280 24q48 142 167.5 222t316.5 80q205 0 303 -82.5t98 -201.5q0 -48 -8.5 -102t-59.5 -284q-42 -190 -42 -266q0 -68 24 -151h-279q-17 58 -21 120q-63 -70 -145 -107.5t-165 -37.5q-132 0 -218 86.5t-86 222.5q0 152 94.5 243t337.5 110q205 17 274 41
q18 60 18 96q0 46 -37 77t-110 31q-77 0 -121.5 -31.5t-60.5 -89.5zM760 495q-26 -7 -69 -13q-216 -26 -282 -76q-47 -36 -47 -97q0 -50 36 -84.5t95 -34.5q65 0 122.5 31.5t86 81t50.5 154.5zM1002 1200h-194l-210 299h276zM652 1200h-194l-210 299h276z" />
    <glyph glyph-name="uni0202" unicode="&#x202;" horiz-adv-x="1479" 
d="M0 0zM1044 324h-581l-176 -324h-310l829 1466h335l238 -1466h-286zM1007 568l-85 590l-354 -590h439zM1300 1560h-139q-23 82 -61 113.5t-98 31.5q-119 0 -197 -145h-132q37 126 121 204q93 86 217 86q249 0 289 -290z" />
    <glyph glyph-name="uni0203" unicode="&#x203;" horiz-adv-x="1139" 
d="M92 0zM487 761l-280 24q48 142 167.5 222t316.5 80q205 0 303 -82.5t98 -201.5q0 -48 -8.5 -102t-59.5 -284q-42 -190 -42 -266q0 -68 24 -151h-279q-17 58 -21 120q-63 -70 -145 -107.5t-165 -37.5q-132 0 -218 86.5t-86 222.5q0 152 94.5 243t337.5 110q205 17 274 41
q18 60 18 96q0 46 -37 77t-110 31q-77 0 -121.5 -31.5t-60.5 -89.5zM760 495q-26 -7 -69 -13q-216 -26 -282 -76q-47 -36 -47 -97q0 -50 36 -84.5t95 -34.5q65 0 122.5 31.5t86 81t50.5 154.5zM1020 1198h-139q-23 82 -61 113.5t-98 31.5q-119 0 -197 -145h-132
q37 126 121 204q93 86 217 86q249 0 289 -290z" />
    <glyph glyph-name="uni0204" unicode="&#x204;" horiz-adv-x="1366" 
d="M84 0zM84 0l306 1466h1087l-51 -245h-785l-70 -333h759l-51 -245h-759l-92 -398h853l-52 -245h-1145zM1302 1562h-194l-210 299h276zM952 1562h-194l-210 299h276z" />
    <glyph glyph-name="uni0205" unicode="&#x205;" horiz-adv-x="1139" 
d="M119 0zM1116 442h-720q-1 -17 -1 -26q0 -106 60.5 -171t147.5 -65q143 0 223 148l257 -43q-75 -155 -200.5 -232.5t-281.5 -77.5q-214 0 -348 135.5t-134 358.5q0 218 121 388q165 230 471 230q195 0 310 -120.5t115 -337.5q0 -104 -20 -187zM874 617q1 19 1 29
q0 118 -53 177t-142 59t-159.5 -67t-95.5 -198h449zM1002 1200h-194l-210 299h276zM652 1200h-194l-210 299h276z" />
    <glyph glyph-name="uni0206" unicode="&#x206;" horiz-adv-x="1366" 
d="M84 0zM84 0l306 1466h1087l-51 -245h-785l-70 -333h759l-51 -245h-759l-92 -398h853l-52 -245h-1145zM1300 1560h-139q-23 82 -61 113.5t-98 31.5q-119 0 -197 -145h-132q37 126 121 204q93 86 217 86q249 0 289 -290z" />
    <glyph glyph-name="uni0207" unicode="&#x207;" horiz-adv-x="1139" 
d="M119 0zM1116 442h-720q-1 -17 -1 -26q0 -106 60.5 -171t147.5 -65q143 0 223 148l257 -43q-75 -155 -200.5 -232.5t-281.5 -77.5q-214 0 -348 135.5t-134 358.5q0 218 121 388q165 230 471 230q195 0 310 -120.5t115 -337.5q0 -104 -20 -187zM874 617q1 19 1 29
q0 118 -53 177t-142 59t-159.5 -67t-95.5 -198h449zM1040 1198h-139q-23 82 -61 113.5t-98 31.5q-119 0 -197 -145h-132q37 126 121 204q93 86 217 86q249 0 289 -290z" />
    <glyph glyph-name="uni0208" unicode="&#x208;" horiz-adv-x="569" 
d="M71 0zM71 0l307 1466h301l-306 -1466h-302zM842 1562h-194l-210 299h276zM492 1562h-194l-210 299h276z" />
    <glyph glyph-name="uni0209" unicode="&#x209;" horiz-adv-x="569" 
d="M38 0zM304 1062h287l-222 -1062h-287zM792 1200h-194l-210 299h276zM442 1200h-194l-210 299h276z" />
    <glyph glyph-name="uni020A" unicode="&#x20a;" horiz-adv-x="569" 
d="M71 0zM71 0l307 1466h301l-306 -1466h-302zM860 1560h-139q-23 82 -61 113.5t-98 31.5q-119 0 -197 -145h-132q37 126 121 204q93 86 217 86q249 0 289 -290z" />
    <glyph glyph-name="uni020B" unicode="&#x20b;" horiz-adv-x="569" 
d="M82 0zM304 1062h287l-222 -1062h-287zM786 1198h-139q-23 82 -61 113.5t-98 31.5q-119 0 -197 -145h-132q37 126 121 204q93 86 217 86q249 0 289 -290z" />
    <glyph glyph-name="uni020C" unicode="&#x20c;" horiz-adv-x="1593" 
d="M179 0zM179 575q0 130 39 274q51 193 155.5 335t263.5 224.5t362 82.5q272 0 439.5 -169t167.5 -448q0 -232 -109 -449t-296 -334t-423 -117q-205 0 -344 93t-197 230.5t-58 277.5zM477 581q0 -151 92 -253t242 -102q122 0 234.5 80.5t186 244t73.5 318.5
q0 173 -93 271.5t-237 98.5q-221 0 -359.5 -206t-138.5 -452zM1302 1562h-194l-210 299h276zM952 1562h-194l-210 299h276z" />
    <glyph glyph-name="uni020D" unicode="&#x20d;" 
d="M124 0zM124 441q0 295 166.5 470.5t437.5 175.5q235 0 367 -129.5t132 -348.5q0 -258 -165 -446t-442 -188q-150 0 -266 60t-173 170t-57 236zM942 646q0 102 -59.5 163.5t-153.5 61.5q-93 0 -165 -57.5t-112 -167t-40 -201.5q0 -114 62 -181t156 -67q118 0 198 101
q114 143 114 348zM1022 1200h-194l-210 299h276zM672 1200h-194l-210 299h276z" />
    <glyph glyph-name="uni020E" unicode="&#x20e;" horiz-adv-x="1593" 
d="M179 0zM179 575q0 130 39 274q51 193 155.5 335t263.5 224.5t362 82.5q272 0 439.5 -169t167.5 -448q0 -232 -109 -449t-296 -334t-423 -117q-205 0 -344 93t-197 230.5t-58 277.5zM477 581q0 -151 92 -253t242 -102q122 0 234.5 80.5t186 244t73.5 318.5
q0 173 -93 271.5t-237 98.5q-221 0 -359.5 -206t-138.5 -452zM1340 1560h-139q-23 82 -61 113.5t-98 31.5q-119 0 -197 -145h-132q37 126 121 204q93 86 217 86q249 0 289 -290z" />
    <glyph glyph-name="uni020F" unicode="&#x20f;" 
d="M124 0zM124 441q0 295 166.5 470.5t437.5 175.5q235 0 367 -129.5t132 -348.5q0 -258 -165 -446t-442 -188q-150 0 -266 60t-173 170t-57 236zM942 646q0 102 -59.5 163.5t-153.5 61.5q-93 0 -165 -57.5t-112 -167t-40 -201.5q0 -114 62 -181t156 -67q118 0 198 101
q114 143 114 348zM1080 1198h-139q-23 82 -61 113.5t-98 31.5q-119 0 -197 -145h-132q37 126 121 204q93 86 217 86q249 0 289 -290z" />
    <glyph glyph-name="uni0210" unicode="&#x210;" horiz-adv-x="1479" 
d="M90 0zM392 0h-302l307 1466h651q168 0 261.5 -34.5t151 -126.5t57.5 -223q0 -187 -112 -308.5t-339 -150.5q58 -52 109 -137q101 -172 225 -486h-324q-39 124 -153 387q-62 142 -132 191q-43 29 -150 29h-123zM565 827h160q243 0 322.5 29t124.5 91t45 130q0 80 -65 120
q-40 24 -173 24h-332zM1202 1562h-194l-210 299h276zM852 1562h-194l-210 299h276z" />
    <glyph glyph-name="uni0211" unicode="&#x211;" horiz-adv-x="797" 
d="M66 0zM288 1062h268l-43 -206q150 231 325 231q62 0 133 -31l-110 -235q-39 14 -83 14q-74 0 -150.5 -56t-119.5 -149.5t-85 -296.5l-70 -333h-287zM902 1200h-194l-210 299h276zM552 1200h-194l-210 299h276z" />
    <glyph glyph-name="uni0212" unicode="&#x212;" horiz-adv-x="1479" 
d="M90 0zM392 0h-302l307 1466h651q168 0 261.5 -34.5t151 -126.5t57.5 -223q0 -187 -112 -308.5t-339 -150.5q58 -52 109 -137q101 -172 225 -486h-324q-39 124 -153 387q-62 142 -132 191q-43 29 -150 29h-123zM565 827h160q243 0 322.5 29t124.5 91t45 130q0 80 -65 120
q-40 24 -173 24h-332zM1250 1560h-139q-23 82 -61 113.5t-98 31.5q-119 0 -197 -145h-132q37 126 121 204q93 86 217 86q249 0 289 -290z" />
    <glyph glyph-name="uni0213" unicode="&#x213;" horiz-adv-x="797" 
d="M66 0zM288 1062h268l-43 -206q150 231 325 231q62 0 133 -31l-110 -235q-39 14 -83 14q-74 0 -150.5 -56t-119.5 -149.5t-85 -296.5l-70 -333h-287zM960 1198h-139q-23 82 -61 113.5t-98 31.5q-119 0 -197 -145h-132q37 126 121 204q93 86 217 86q249 0 289 -290z" />
    <glyph glyph-name="uni0214" unicode="&#x214;" horiz-adv-x="1479" 
d="M187 0zM391 1466h301l-166 -796l-41 -196q-4 -25 -4 -47q0 -87 63.5 -143.5t184.5 -56.5q109 0 180 41t110 122t79 275l168 801h301l-167 -802q-53 -253 -122 -387t-209 -218t-354 -84q-256 0 -392 125.5t-136 322.5q0 41 7 89q4 32 35 182zM1262 1562h-194l-210 299h276
zM912 1562h-194l-210 299h276z" />
    <glyph glyph-name="uni0215" unicode="&#x215;" 
d="M144 0zM302 1062h287l-131 -629q-24 -113 -24 -141q0 -46 34 -79t87 -33q38 0 75 14.5t76 44t70 67.5t58 100q19 46 41 150l106 506h287l-222 -1062h-268l30 144q-176 -169 -383 -169q-131 0 -206 75t-75 201q0 55 34 219zM1106 1200h-194l-210 299h276zM756 1200h-194
l-210 299h276z" />
    <glyph glyph-name="uni0216" unicode="&#x216;" horiz-adv-x="1479" 
d="M187 0zM391 1466h301l-166 -796l-41 -196q-4 -25 -4 -47q0 -87 63.5 -143.5t184.5 -56.5q109 0 180 41t110 122t79 275l168 801h301l-167 -802q-53 -253 -122 -387t-209 -218t-354 -84q-256 0 -392 125.5t-136 322.5q0 41 7 89q4 32 35 182zM1300 1560h-139
q-23 82 -61 113.5t-98 31.5q-119 0 -197 -145h-132q37 126 121 204q93 86 217 86q249 0 289 -290z" />
    <glyph glyph-name="uni0217" unicode="&#x217;" 
d="M144 0zM302 1062h287l-131 -629q-24 -113 -24 -141q0 -46 34 -79t87 -33q38 0 75 14.5t76 44t70 67.5t58 100q19 46 41 150l106 506h287l-222 -1062h-268l30 144q-176 -169 -383 -169q-131 0 -206 75t-75 201q0 55 34 219zM1130 1198h-139q-23 82 -61 113.5t-98 31.5
q-119 0 -197 -145h-132q37 126 121 204q93 86 217 86q249 0 289 -290z" />
    <glyph glyph-name="uni0218" unicode="&#x218;" horiz-adv-x="1366" 
d="M126 0zM130 475l287 15q6 -137 47 -185q66 -78 244 -78q148 0 214 53t66 128q0 65 -54 110q-38 33 -208.5 107t-249 123.5t-123.5 128.5t-45 185q0 185 134 307t388 122q258 0 399.5 -121t155.5 -322l-289 -13q-11 105 -76 161t-192 56q-125 0 -178.5 -44t-53.5 -111
q0 -63 49 -104q49 -42 217 -115q253 -109 322 -177q103 -100 103 -257q0 -194 -153.5 -331.5t-427.5 -137.5q-189 0 -327.5 63.5t-195.5 176.5t-53 260zM531 -109h308l-30 -146q-60 -287 -360 -306l32 156q121 15 135 113h-123z" />
    <glyph glyph-name="uni0219" unicode="&#x219;" horiz-adv-x="1139" 
d="M45 0zM45 297l278 44q37 -88 92 -124.5t150 -36.5q98 0 157 44q41 30 41 73q0 29 -21 52q-22 22 -119 54q-260 86 -322 136q-97 78 -97 204t94 217q131 127 389 127q205 0 310 -75t133 -203l-265 -46q-21 58 -68 87q-64 39 -154 39t-129.5 -30t-39.5 -69q0 -40 40 -66
q25 -16 161 -56q210 -61 281 -120q100 -83 100 -200q0 -151 -127 -262t-358 -111q-230 0 -355.5 84.5t-170.5 237.5zM391 -109h308l-30 -146q-60 -287 -360 -306l32 156q121 15 135 113h-123z" />
    <glyph glyph-name="uni021A" unicode="&#x21a;" 
d="M722 0h-302l256 1221h-430l51 245h1155l-51 -245h-424zM402 -121h289l-47 -229q-26 -122 -113 -190t-222 -71l28 133q71 17 98.5 35.5t40.5 44.5h-132z" />
    <glyph glyph-name="uni021B" unicode="&#x21b;" horiz-adv-x="682" 
d="M154 849l45 213h139l36 170l328 198l-77 -368h176l-45 -213h-175l-93 -445q-25 -121 -25 -138q0 -33 20.5 -51.5t75.5 -18.5q19 0 95 7l-44 -213q-74 -15 -152 -15q-153 0 -222 58.5t-69 162.5q0 49 37 226l90 427h-140zM219 -121h261l-43 -206q-23 -110 -102 -171.5
t-199 -63.5l25 119q63 15 88 32t37 41h-119z" />
    <glyph glyph-name="uni021C" unicode="&#x21c;" horiz-adv-x="1182" 
d="M1253 1145q0 -287 -227 -493q78 -82 78 -215q0 -310 -271 -519q-161 -124 -440 -218q-20 -7 -457 -131l54 253q313 89 458 158q341 163 341 401q0 68 -32 116q-191 -103 -673 -233l55 260q333 94 447 146q350 159 350 410q0 158 -204 158q-163 0 -347 -168l-129 213
q99 96 241 152t281 56q475 0 475 -346z" />
    <glyph glyph-name="uni021D" unicode="&#x21d;" horiz-adv-x="1065" 
d="M1083 790q0 -117 -62.5 -217.5t-166.5 -158.5q110 -64 110 -193q0 -226 -220 -386q-165 -120 -424 -186q-62 -16 -407 -80l49 229q280 42 415 91q290 105 290 291q0 74 -63 111q-183 -67 -565 -130l50 235q287 46 392 78q305 93 305 263q0 120 -153 120q-134 0 -288 -163
l-160 160q101 101 235 165q144 67 278 67q169 0 271 -70q114 -78 114 -226z" />
    <glyph glyph-name="uni021E" unicode="&#x21e;" horiz-adv-x="1479" 
d="M89 0zM1095 655h-567l-137 -655h-302l307 1466h301l-118 -566h567l119 566h301l-306 -1466h-302zM1019 1682l176 178h236l-297 -301h-268l-122 301h198z" />
    <glyph glyph-name="uni021F" unicode="&#x21f;" 
d="M86 0zM373 0h-287l307 1466h287l-110 -522q97 76 181 109.5t180 33.5q129 0 204 -74t75 -194q0 -64 -28 -198l-130 -621h-287l133 633q21 103 21 132q0 53 -33 85t-90 32q-72 0 -138 -50q-86 -66 -131 -162q-25 -53 -66 -249zM859 1682l176 178h236l-297 -301h-268
l-122 301h198z" />
    <glyph glyph-name="uni0220" unicode="&#x220;" horiz-adv-x="1450" 
d="M1501 1177q0 -94 -29 -226l-298 -1356h-297l285 1306q28 128 28 171q0 170 -221 170q-163 0 -316 -97l-247 -1145h-297l314 1466h297l-16 -68q202 93 378 93q178 0 286 -66q133 -81 133 -248z" />
    <glyph glyph-name="uni0221" unicode="&#x221;" horiz-adv-x="1620" 
d="M1627 -34q0 -181 -133 -292q-124 -105 -307 -105q-163 0 -277 97q-38 -39 -90 -97l-164 145q56 61 139 140q-7 27 -7 58q0 132 17 203q-146 -140 -314 -140q-186 0 -284 133q-86 119 -86 312q0 253 133 448q150 219 392 219q214 0 321 -170l115 549h287l-290 -1383
q150 128 284 128q122 0 192 -62q72 -65 72 -183zM893 618q0 99 -52 173q-58 84 -153 84q-136 0 -219 -161q-69 -132 -69 -282q0 -99 49 -167q54 -75 150 -75q174 0 254 217q40 109 40 211zM1380 -95q0 63 -76 63q-51 0 -174 -112q53 -58 119 -58q131 0 131 107z" />
    <glyph glyph-name="uni0222" unicode="&#x222;" horiz-adv-x="1292" 
d="M1351 1222q0 -138 -85 -249q-80 -104 -215 -158l-3 -15q96 -19 148 -95q48 -70 48 -170q0 -269 -212 -423q-188 -137 -463 -137q-478 0 -478 346q0 168 93 304q99 146 258 175l3 15q-164 65 -164 231q0 184 187 284q152 80 357 80l-53 -251q-75 0 -130 -33
q-65 -39 -65 -108q0 -102 192 -102q110 0 180 47q81 54 81 159q0 118 -150 118l54 251q417 0 417 -269zM936 509q0 161 -219 161q-141 0 -224 -67q-89 -72 -89 -206q0 -169 219 -169q139 0 223 71q90 75 90 210z" />
    <glyph glyph-name="uni0223" unicode="&#x223;" horiz-adv-x="1292" 
d="M1381 1185q0 -127 -84.5 -230t-211.5 -140l-3 -15q194 -52 194 -285q0 -260 -211 -408q-187 -132 -462 -132q-478 0 -478 355q0 164 87 288q94 134 264 182l3 15q-161 78 -161 252q0 286 395 424l74 -154q-167 -93 -167 -273q0 -148 183 -148q122 0 196.5 68.5
t74.5 186.5q0 101 -75 166l138 154q101 -39 168 -117q76 -88 76 -189zM970 505q0 165 -219 165q-141 0 -224 -68q-89 -72 -89 -206q0 -168 219 -168q140 0 224 69q89 74 89 208z" />
    <glyph glyph-name="uni0224" unicode="&#x224;" 
d="M1368 1466l-44 -230l-853 -996l157 3q26 0 114.5 1t150.5 1h66q295 0 295 -214q0 -131 -93 -308l-188 38q48 106 48 163q0 50 -37 66q-24 10 -83 10h-850l48 231l844 990h-683l51 245h1057z" />
    <glyph glyph-name="uni0225" unicode="&#x225;" horiz-adv-x="1024" 
d="M1062 1062l-35 -171l-587 -659h289q162 0 213 -20q87 -35 87 -157q0 -148 -99 -336l-188 38q48 106 48 171q0 72 -118 72h-638l41 194l582 644h-475l47 224h833z" />
    <glyph glyph-name="uni0226" unicode="&#x226;" horiz-adv-x="1479" 
d="M0 0zM1044 324h-581l-176 -324h-310l829 1466h335l238 -1466h-286zM1007 568l-85 590l-354 -590h439zM909 1852h287l-55 -263h-287z" />
    <glyph glyph-name="uni0227" unicode="&#x227;" horiz-adv-x="1139" 
d="M92 0zM487 761l-280 24q48 142 167.5 222t316.5 80q205 0 303 -82.5t98 -201.5q0 -48 -8.5 -102t-59.5 -284q-42 -190 -42 -266q0 -68 24 -151h-279q-17 58 -21 120q-63 -70 -145 -107.5t-165 -37.5q-132 0 -218 86.5t-86 222.5q0 152 94.5 243t337.5 110q205 17 274 41
q18 60 18 96q0 46 -37 77t-110 31q-77 0 -121.5 -31.5t-60.5 -89.5zM760 495q-26 -7 -69 -13q-216 -26 -282 -76q-47 -36 -47 -97q0 -50 36 -84.5t95 -34.5q65 0 122.5 31.5t86 81t50.5 154.5zM609 1490h287l-55 -263h-287z" />
    <glyph glyph-name="uni0228" unicode="&#x228;" horiz-adv-x="1366" 
d="M84 0zM84 0l306 1466h1087l-51 -245h-785l-70 -333h759l-51 -245h-759l-92 -398h853l-52 -245h-1145zM519 -26q72 2 97 2q145 0 200.5 -50t55.5 -117q0 -98 -118 -166.5t-326 -68.5q-47 0 -89 4l48 118q301 0 301 95q0 62 -137 62q-24 0 -56 -1z" />
    <glyph glyph-name="uni0229" unicode="&#x229;" horiz-adv-x="1139" 
d="M119 0zM1116 442h-720q-1 -17 -1 -26q0 -106 60.5 -171t147.5 -65q143 0 223 148l257 -43q-75 -155 -200.5 -232.5t-281.5 -77.5q-214 0 -348 135.5t-134 358.5q0 218 121 388q165 230 471 230q195 0 310 -120.5t115 -337.5q0 -104 -20 -187zM874 617q1 19 1 29
q0 118 -53 177t-142 59t-159.5 -67t-95.5 -198h449zM459 -26q72 2 97 2q145 0 200.5 -50t55.5 -117q0 -98 -118 -166.5t-326 -68.5q-47 0 -89 4l48 118q301 0 301 95q0 62 -137 62q-24 0 -56 -1z" />
    <glyph glyph-name="uni022A" unicode="&#x22a;" horiz-adv-x="1593" 
d="M179 0zM179 575q0 130 39 274q51 193 155.5 335t263.5 224.5t362 82.5q272 0 439.5 -169t167.5 -448q0 -232 -109 -449t-296 -334t-423 -117q-205 0 -344 93t-197 230.5t-58 277.5zM477 581q0 -151 92 -253t242 -102q122 0 234.5 80.5t186 244t73.5 318.5
q0 173 -93 271.5t-237 98.5q-221 0 -359.5 -206t-138.5 -452zM1290 1721h-516l24 122h516zM1251 1496h-140l30 152h140zM865 1496h-140l30 152h140z" />
    <glyph glyph-name="uni022B" unicode="&#x22b;" 
d="M124 0zM124 441q0 295 166.5 470.5t437.5 175.5q235 0 367 -129.5t132 -348.5q0 -258 -165 -446t-442 -188q-150 0 -266 60t-173 170t-57 236zM942 646q0 102 -59.5 163.5t-153.5 61.5q-93 0 -165 -57.5t-112 -167t-40 -201.5q0 -114 62 -181t156 -67q118 0 198 101
q114 143 114 348zM459 1468h246l-51 -245h-246zM880 1468h246l-51 -245h-246zM522 1797h640l-40 -193h-640z" />
    <glyph glyph-name="uni022C" unicode="&#x22c;" horiz-adv-x="1593" 
d="M179 0zM179 575q0 130 39 274q51 193 155.5 335t263.5 224.5t362 82.5q272 0 439.5 -169t167.5 -448q0 -232 -109 -449t-296 -334t-423 -117q-205 0 -344 93t-197 230.5t-58 277.5zM477 581q0 -151 92 -253t242 -102q122 0 234.5 80.5t186 244t73.5 318.5
q0 173 -93 271.5t-237 98.5q-221 0 -359.5 -206t-138.5 -452zM1314 1843l-24 -122h-516l24 122h516zM1287 1671q-41 -172 -188 -172q-35 0 -104 36.5t-99 36.5q-47 0 -73 -76h-90q15 74 68 123.5t127 49.5q36 0 100.5 -34t100.5 -34q45 0 68 70h90z" />
    <glyph glyph-name="uni022D" unicode="&#x22d;" 
d="M124 0zM124 441q0 295 166.5 470.5t437.5 175.5q235 0 367 -129.5t132 -348.5q0 -258 -165 -446t-442 -188q-150 0 -266 60t-173 170t-57 236zM942 646q0 102 -59.5 163.5t-153.5 61.5q-93 0 -165 -57.5t-112 -167t-40 -201.5q0 -114 62 -181t156 -67q118 0 198 101
q114 143 114 348zM558 1213h-126q27 122 64 171q54 70 134 70q52 0 186 -49q78 -28 107 -28q23 0 39 14.5t30 63.5h128q-19 -123 -75.5 -181.5t-126.5 -58.5q-45 0 -144 40t-126 40q-30 0 -52 -17.5t-38 -64.5zM536 1797h640l-40 -193h-640z" />
    <glyph glyph-name="uni022E" unicode="&#x22e;" horiz-adv-x="1593" 
d="M179 0zM179 575q0 130 39 274q51 193 155.5 335t263.5 224.5t362 82.5q272 0 439.5 -169t167.5 -448q0 -232 -109 -449t-296 -334t-423 -117q-205 0 -344 93t-197 230.5t-58 277.5zM477 581q0 -151 92 -253t242 -102q122 0 234.5 80.5t186 244t73.5 318.5
q0 173 -93 271.5t-237 98.5q-221 0 -359.5 -206t-138.5 -452zM929 1852h287l-55 -263h-287z" />
    <glyph glyph-name="uni022F" unicode="&#x22f;" 
d="M124 0zM124 441q0 295 166.5 470.5t437.5 175.5q235 0 367 -129.5t132 -348.5q0 -258 -165 -446t-442 -188q-150 0 -266 60t-173 170t-57 236zM942 646q0 102 -59.5 163.5t-153.5 61.5q-93 0 -165 -57.5t-112 -167t-40 -201.5q0 -114 62 -181t156 -67q118 0 198 101
q114 143 114 348zM649 1490h287l-55 -263h-287z" />
    <glyph glyph-name="uni0230" unicode="&#x230;" horiz-adv-x="1593" 
d="M179 0zM179 575q0 130 39 274q51 193 155.5 335t263.5 224.5t362 82.5q272 0 439.5 -169t167.5 -448q0 -232 -109 -449t-296 -334t-423 -117q-205 0 -344 93t-197 230.5t-58 277.5zM477 581q0 -151 92 -253t242 -102q122 0 234.5 80.5t186 244t73.5 318.5
q0 173 -93 271.5t-237 98.5q-221 0 -359.5 -206t-138.5 -452zM1302 1843l-24 -122h-516l24 122h516zM1088 1648l-30 -152h-140l30 152h140z" />
    <glyph glyph-name="uni0231" unicode="&#x231;" 
d="M124 0zM124 441q0 295 166.5 470.5t437.5 175.5q235 0 367 -129.5t132 -348.5q0 -258 -165 -446t-442 -188q-150 0 -266 60t-173 170t-57 236zM942 646q0 102 -59.5 163.5t-153.5 61.5q-93 0 -165 -57.5t-112 -167t-40 -201.5q0 -114 62 -181t156 -67q118 0 198 101
q114 143 114 348zM651 1490h287l-55 -263h-287zM516 1797h640l-40 -193h-640z" />
    <glyph glyph-name="uni0232" unicode="&#x232;" horiz-adv-x="1366" 
d="M235 0zM821 0h-301l119 571l-404 895h321l182 -414q65 -149 87 -215q37 65 86 138l139 194l207 297h350l-672 -923zM634 1778h640l-40 -193h-640z" />
    <glyph glyph-name="uni0233" unicode="&#x233;" horiz-adv-x="1139" 
d="M13 0zM171 1062h286l72 -529q27 -204 30 -286q56 163 154 344l254 471h304l-656 -1166q-81 -145 -127.5 -203t-112 -91t-157.5 -33q-91 0 -205 32l25 214q52 -15 101 -15q132 0 217 200zM454 1427h640l-40 -193h-640z" />
    <glyph glyph-name="uni0234" unicode="&#x234;" horiz-adv-x="926" 
d="M933 -34q0 -181 -133 -292q-124 -105 -307 -105q-163 0 -277 97q-38 -39 -90 -97l-164 145q56 61 139 140q-7 27 -7 58q0 140 14 208l279 1346h286l-288 -1383q150 128 284 128q122 0 192 -62q72 -65 72 -183zM686 -95q0 63 -76 63q-51 0 -174 -112q53 -58 119 -58
q131 0 131 107z" />
    <glyph glyph-name="uni0235" unicode="&#x235;" horiz-adv-x="1608" 
d="M1615 -34q0 -181 -133 -292q-124 -105 -307 -105q-163 0 -277 97q-38 -39 -90 -97l-164 145q56 61 139 140q-7 27 -7 58q0 142 14 208l102 483q28 133 28 161q0 118 -123 118q-75 0 -154 -63q-69 -56 -107 -130q-32 -64 -72 -253l-91 -436h-287l222 1062h272l-28 -138
q189 163 377 163q129 0 205.5 -73t76.5 -201q0 -58 -33 -212l-111 -518q150 128 284 128q122 0 192 -62q72 -65 72 -183zM1368 -95q0 63 -76 63q-51 0 -174 -112q53 -58 119 -58q131 0 131 107z" />
    <glyph glyph-name="uni0236" unicode="&#x236;" horiz-adv-x="1043" 
d="M1050 372q0 -181 -133 -292q-124 -105 -307 -105q-163 0 -277 97q-38 -39 -90 -97l-164 145q56 61 139 140q-7 27 -7 58q0 147 16 222l66 309h-139l44 213h140l35 170l329 198l-77 -368h175l-44 -213h-176l-78 -360q150 128 284 128q122 0 192 -62q72 -65 72 -183z
M803 311q0 63 -76 63q-51 0 -174 -112q53 -58 119 -58q131 0 131 107z" />
    <glyph glyph-name="uni0237" unicode="&#x237;" horiz-adv-x="569" 
d="M594 1062l-189 -899q-81 -385 -137 -467q-87 -127 -276 -127q-118 0 -216 32l45 237q69 -17 116 -17q91 0 138 144q15 53 47 217l184 880h288z" />
    <glyph glyph-name="uni0238" unicode="&#x238;" horiz-adv-x="1953" 
d="M1934 647q0 -316 -174 -503q-157 -169 -351 -169q-228 0 -335 200l-37 -175h-246l24 115q-146 -140 -324 -140q-186 0 -284 133q-86 119 -86 312q0 253 133 448q150 219 392 219q214 0 321 -170l115 549h288l-103 -490q146 111 297 111q187 0 284 -130q86 -116 86 -310z
M1656 640q0 100 -49 167q-55 75 -151 75q-108 0 -186 -100q-107 -137 -107 -349q0 -95 53 -165q58 -76 150 -76q164 0 247 218q43 113 43 230zM893 618q0 99 -52 173q-58 84 -153 84q-136 0 -219 -161q-69 -132 -69 -282q0 -99 49 -167q54 -75 150 -75q174 0 254 217
q40 109 40 211z" />
    <glyph glyph-name="uni0239" unicode="&#x239;" horiz-adv-x="1949" 
d="M1938 629q0 -287 -175 -485q-150 -169 -355 -169q-211 0 -319 171l-115 -551h-287l103 495q-141 -115 -295 -115q-188 0 -286 131q-87 117 -87 311q0 168 64 323q71 170 197 260q122 87 265 87q230 0 333 -192l35 167h249l-23 -109q162 134 326 134q191 0 287 -138
q83 -120 83 -320zM1659 636q0 105 -47 171q-54 75 -155 75q-179 0 -254 -230q-37 -114 -37 -199q0 -102 49 -176q56 -85 154 -85q166 0 247 223q43 118 43 221zM891 621q0 101 -49 172q-57 82 -153 82q-165 0 -246 -223q-44 -121 -44 -230q0 -95 50 -161q55 -72 148 -72
q173 0 252 213q42 113 42 219z" />
    <glyph glyph-name="uni023A" unicode="&#x23a;" horiz-adv-x="1479" 
d="M1598 1484l-380 -490l161 -994h-286l-49 324h-348l-293 -378h-159l42 54h-309l829 1466h335l49 -303l249 321h159zM963 872l-41 286l-354 -590h159zM1007 568l-19 131l-102 -131h121zM537 324h-74l-173 -318z" />
    <glyph glyph-name="uni023B" unicode="&#x23b;" horiz-adv-x="1479" 
d="M1549 1499l-145 -186q102 -118 123 -297l-289 -28q-8 44 -23 82l-606 -780q75 -63 177 -63q132 0 229 88q88 80 131 213l304 -46q-86 -238 -258 -370q-179 -138 -426 -138q-199 0 -334 89l-90 -117h-159l154 199q-143 161 -143 461q0 238 93 439q101 221 290 336
q180 110 392 110q205 0 342 -94l79 102h159zM1140 1178q-67 53 -177 53q-281 0 -407 -313q-65 -161 -65 -323q0 -119 39 -202z" />
    <glyph glyph-name="uni023C" unicode="&#x23c;" horiz-adv-x="1139" 
d="M1380 1484l-351 -494l1 -1q113 -113 126 -258l-273 -29q-4 34 -14 64l-385 -541q37 -25 85 -25q161 0 233 200l279 -45q-141 -380 -517 -380q-129 0 -223 48l-303 -426h-159l358 504q-114 120 -114 328q0 177 70 324q77 159 220 246.5t317 87.5q105 0 187 -31l304 428
h159zM780 864q-29 11 -68 11q-188 0 -265 -247q-39 -125 -39 -232q0 -25 4 -50z" />
    <glyph glyph-name="uni023D" unicode="&#x23d;" 
d="M1191 245l-51 -245h-1048l134 641h-151l38 178h151l135 647h301l-135 -647h313l-38 -178h-312l-83 -396h746z" />
    <glyph glyph-name="uni023E" unicode="&#x23e;" 
d="M1464 1520l-46 -54h34l-51 -245h-190l-311 -368l-178 -853h-302l79 378l-365 -432h-159l577 683l124 592h-430l51 245h962l46 54h159zM1052 1221h-75l-25 -118z" />
    <glyph glyph-name="uni023F" unicode="&#x23f;" horiz-adv-x="1139" 
d="M1130 809l-265 -46q-46 126 -222 126q-169 0 -169 -99q0 -40 40 -66q25 -16 161 -56q210 -61 281 -120q100 -83 100 -200q0 -157 -120 -257q-133 -111 -370 -111q-34 0 -79 7l71 -118q43 -71 97 -71q76 0 155 91l70 -214q-118 -106 -247 -106q-154 0 -250 162l-159 269
q-45 75 -170 169l146 195q56 -71 149 -123q109 -61 216 -61q68 0 125 25q73 32 73 92q0 45 -51 72q-18 10 -89 34q-260 86 -322 136q-97 78 -97 204t94 217q131 127 389 127q382 0 443 -278z" />
    <glyph glyph-name="uni0240" unicode="&#x240;" horiz-adv-x="1024" 
d="M1062 1062l-35 -171l-618 -692q96 -19 184 -160l94 -150q44 -71 95 -71q54 0 141 98l51 -234q-115 -113 -244 -113q-85 0 -145 45q-45 34 -99 117l-98 150q-78 119 -198 119h-155l40 194l582 644h-475l47 224h833z" />
    <glyph glyph-name="uni0241" unicode="&#x241;" horiz-adv-x="1321" 
d="M734 345l-73 -345h-281l122 576q51 -16 132 -16q184 0 299 141q107 132 107 319q0 123 -74 188q-70 62 -193 62q-93 0 -187 -61q-90 -57 -135 -139l-246 107q96 143 267 228.5t358 85.5q246 0 377 -110q128 -108 128 -309q0 -271 -165 -476q-170 -211 -436 -251z" />
    <glyph glyph-name="uni0242" unicode="&#x242;" horiz-adv-x="991" 
d="M1001 790q0 -142 -95 -267q-93 -121 -230 -171l-74 -352h-281l95 450q117 0 218 95.5t101 209.5q0 61 -36.5 100t-97.5 39q-148 0 -232 -138l-227 51q64 137 211 212q133 68 294 68q148 0 246 -73q108 -81 108 -224z" />
    <glyph glyph-name="uni0243" unicode="&#x243;" horiz-adv-x="1479" 
d="M1454 1110q0 -257 -278 -347q107 -29 172 -104q68 -78 68 -186q0 -138 -77.5 -254.5t-204.5 -166.5q-132 -52 -361 -52h-691l71 341h-149l38 178h149l198 947h501q159 0 228 -10q220 -32 297 -180q39 -75 39 -166zM1155 1075q0 116 -123 140q-31 6 -159 6h-234l-73 -347
h230q120 0 176 11q106 19 149 83q34 50 34 107zM1107 451q0 168 -234 168h-360l-21 -100h315l-38 -178h-314l-22 -105h291q138 0 189 10q107 20 157 91q37 53 37 114z" />
    <glyph glyph-name="uni0244" unicode="&#x244;" horiz-adv-x="1479" 
d="M1567 1466l-122 -588h121l-38 -178h-121l-7 -36q-48 -229 -100 -342q-80 -173 -231 -263q-140 -84 -354 -84q-228 0 -370 108q-158 119 -158 340q0 38 7 89q6 44 36 188h-122l38 178h122l123 588h301l-123 -588h574l123 588h301zM1105 700h-573l-6 -30l-41 -196
q-4 -19 -4 -47q0 -99 77 -153q67 -47 171 -47q212 0 290 163q38 78 79 275z" />
    <glyph glyph-name="uni0245" unicode="&#x245;" horiz-adv-x="1366" 
d="M0 0zM729 1466h322l263 -1466h-301l-186 1109l-607 -1109h-299z" />
    <glyph glyph-name="uni0246" unicode="&#x246;" horiz-adv-x="1366" 
d="M1497 1541l-53 -75h33l-51 -245h-154l-233 -333h291l-51 -245h-412l-280 -398h694l-52 -245h-814l-75 -107h-157l75 107h-174l306 1466h897l53 75h157zM1115 1221h-474l-70 -333h311zM710 643h-190l-92 -398h7z" />
    <glyph glyph-name="uni0247" unicode="&#x247;" horiz-adv-x="1139" 
d="M1280 1484l-289 -490q145 -123 145 -365q0 -104 -20 -187h-450l-145 -245q38 -17 82 -17q143 0 223 148l257 -43q-150 -310 -482 -310q-104 0 -191 33l-242 -411h-159l282 479q-17 14 -38 35q-134 136 -134 358q0 219 121 388q164 230 471 230q89 0 161 -25l249 422h159z
M875 646q0 69 -19 119l-87 -148h105q1 19 1 29zM758 868q-35 14 -78 14q-104 0 -174 -83q-60 -71 -81 -182h185zM507 442h-111q-1 -17 -1 -26q0 -69 26 -121z" />
    <glyph glyph-name="uni0248" unicode="&#x248;" horiz-adv-x="1139" 
d="M1233 819l-38 -178h-139l-13 -63q-65 -311 -158 -433q-129 -170 -405 -170q-191 0 -300 83q-121 93 -121 278q0 35 5 78l279 30q-6 -44 -6 -73q0 -144 163 -144q117 0 163 68q34 50 85 293l11 53h-174l38 178h173l136 647h296l-135 -647h140z" />
    <glyph glyph-name="uni0249" unicode="&#x249;" horiz-adv-x="569" 
d="M678 1466l-54 -260h-288l54 260h288zM622 652l-40 -187h-114l-63 -302q-81 -385 -137 -467q-87 -127 -276 -127q-118 0 -216 32l45 237q69 -17 116 -17q91 0 138 144q4 11 47 217l59 283h-119l40 187h118l86 410h288l-86 -410h114z" />
    <glyph glyph-name="uni024A" unicode="&#x24a;" horiz-adv-x="1599" 
d="M1683 1491l-307 -1445q-23 -108 -23 -139q0 -77 93 -77q25 0 72 9v-240q-120 -30 -203 -30q-272 0 -272 219q0 85 27 212q-154 -25 -303 -25q-270 0 -425 135q-163 142 -163 404q0 212 87 416q89 210 242 347q240 214 587 214q235 0 390 -61l142 61h56zM1323 1191
q-133 47 -279 47q-213 0 -359 -152q-90 -94 -142 -234q-50 -135 -50 -271q0 -161 83 -254q87 -99 249 -99t301 32z" />
    <glyph glyph-name="uni024B" unicode="&#x24b;" 
d="M1280 1062l-224 -1065q-25 -119 -25 -137q0 -70 97 -70q19 0 95 7l-45 -213q-74 -15 -152 -15q-288 0 -288 221q0 56 36 225l16 75q-141 -115 -295 -115q-188 0 -286 131q-87 117 -87 311q0 168 64 323q71 170 197 260q122 87 265 87q230 0 333 -192l35 167h264zM891 621
q0 101 -49 172q-57 82 -153 82q-165 0 -246 -223q-44 -121 -44 -230q0 -95 50 -161q55 -72 148 -72q173 0 252 213q42 113 42 219z" />
    <glyph glyph-name="uni024C" unicode="&#x24c;" horiz-adv-x="1479" 
d="M1518 1082q0 -203 -126 -322q-117 -110 -325 -137q60 -53 109 -137q100 -168 225 -486h-324q-40 126 -153 387q-62 143 -132 191q-42 29 -150 29h-123l-127 -607h-302l127 607h-151l47 220h150l134 639h651q152 0 232 -24q118 -36 181 -137q57 -91 57 -223zM1217 1077
q0 80 -65 120q-39 24 -173 24h-332l-82 -394h160q181 0 242 10q142 23 205 110q45 62 45 130z" />
    <glyph glyph-name="uni024D" unicode="&#x24d;" horiz-adv-x="797" 
d="M971 1056l-110 -235q-39 14 -83 14q-83 0 -162 -65q-70 -58 -108 -140q-12 -26 -26 -68h170l-40 -187h-180l-9 -42l-70 -333h-287l78 375h-122l40 187h121l105 500h268l-43 -206q150 231 325 231q62 0 133 -31z" />
    <glyph glyph-name="uni024E" unicode="&#x24e;" horiz-adv-x="1366" 
d="M1607 1466l-155 -213h135l-38 -178h-227l-387 -532l-114 -543h-301l119 571l-228 504h-252l38 178h134l-96 213h321l91 -213h464l146 213h350zM988 1075h-265l102 -238z" />
    <glyph glyph-name="uni024F" unicode="&#x24f;" horiz-adv-x="1139" 
d="M1271 1062l-163 -290h124l-40 -187h-189l-388 -689q-73 -129 -99 -166q-64 -90 -140 -128q-66 -33 -158 -33q-91 0 -205 32l25 214q52 -15 101 -15q132 0 217 200l-102 585h-182l40 187h110l-51 290h286l43 -290h308l159 290h304zM706 585h-178l38 -255z" />
    <glyph glyph-name="uni0259" unicode="&#x4d9;" horiz-adv-x="1139" 
d="M1118 593q0 -219 -121 -388q-164 -230 -471 -230q-204 0 -317 129q-108 122 -108 329q0 104 20 187h720q1 17 1 26q0 98 -54 164q-58 72 -154 72q-143 0 -223 -148l-257 43q150 310 482 310q219 0 352 -138q130 -136 130 -356zM812 445h-449q-1 -19 -1 -29
q0 -236 195 -236q105 0 175 83q59 70 80 182z" />
    <glyph glyph-name="uni0292" horiz-adv-x="1078" 
d="M1164 1062l-43 -199l-382 -330q263 -40 263 -319q0 -137 -61 -273.5t-162 -225.5q-166 -146 -412 -146q-405 0 -410 384l286 47q-5 -202 160 -202q143 0 230 125q77 111 77 260q0 62 -33 108q-55 77 -189 77h-99l35 165l362 305h-546l46 224h878z" />
    <glyph glyph-name="uni02BE" horiz-adv-x="682" 
d="M605 1351q0 -83 -56.5 -139.5t-139.5 -56.5v107q37 0 63 26t26 63t-26 63t-63 26v107q83 0 139.5 -56.5t56.5 -139.5z" />
    <glyph glyph-name="circumflex" unicode="&#x2c6;" horiz-adv-x="682" 
d="M527 1375l-176 -178h-236l297 301h268l122 -301h-198z" />
    <glyph glyph-name="caron" horiz-adv-x="682" 
d="M499 1320l176 178h236l-297 -301h-268l-122 301h198z" />
    <glyph glyph-name="uni02C9" horiz-adv-x="682" 
d="M214 1427h640l-40 -193h-640z" />
    <glyph glyph-name="breve" horiz-adv-x="682" 
d="M173 1488h139q23 -81 61.5 -113t97.5 -32q119 0 197 145h132q-41 -138 -133 -214t-205 -76q-117 0 -193 72.5t-96 217.5z" />
    <glyph glyph-name="dotaccent" horiz-adv-x="682" 
d="M389 1490h287l-55 -263h-287z" />
    <glyph glyph-name="ring" unicode="&#x2da;" horiz-adv-x="682" 
d="M308 1351q0 80 56.5 136.5t136.5 56.5t136.5 -56.5t56.5 -136.5t-56.5 -136.5t-136.5 -56.5t-136.5 56.5t-56.5 136.5zM417 1351q0 -35 24.5 -59.5t59.5 -24.5t59.5 24.5t24.5 59.5t-24.5 60t-59.5 25t-59.5 -25t-24.5 -60z" />
    <glyph glyph-name="ogonek" horiz-adv-x="682" 
d="M427 -215l-35 -167q-93 -40 -160 -40q-106 0 -153 56q-31 37 -31 91q0 79 65 164q48 62 118 111h167q-43 -28 -76 -72q-44 -60 -44 -106q0 -56 62 -56q17 0 42 7z" />
    <glyph glyph-name="tilde" unicode="&#x2dc;" horiz-adv-x="682" 
d="M316 1213h-126q27 122 64 171q54 70 134 70q52 0 186 -49q78 -28 107 -28q23 0 39 14.5t30 63.5h128q-19 -123 -75.5 -181.5t-126.5 -58.5q-45 0 -144 40t-126 40q-30 0 -52 -17.5t-38 -64.5z" />
    <glyph glyph-name="hungarumlaut" horiz-adv-x="682" 
d="M665 1491h290l-329 -297h-164zM266 1491h297l-336 -297h-159z" />
    <glyph glyph-name="tildecomb" horiz-adv-x="0" 
d="M-661 1562q18 102 87 165t160 63q62 0 157 -60q48 -32 90 -32q61 0 89 95h130q-50 -228 -240 -228q-62 0 -155 56q-60 36 -91 36q-78 0 -94 -95h-133z" />
    <glyph glyph-name="hookabovecomb" horiz-adv-x="0" 
d="M-18 1631q56 18 65 56q5 23 -20 39q-38 23 -129 23q-31 0 -95 -4l9 102q40 8 145 7q121 -1 198 -42q63 -33 63 -94q0 -57 -51 -103q-59 -43 -162 -55l-9 -30h-112l23 90q59 6 75 11z" />
    <glyph glyph-name="uni030F" horiz-adv-x="0" 
d="M602 1200h-194l-210 299h276zM252 1200h-194l-210 299h276z" />
    <glyph glyph-name="uni0311" horiz-adv-x="0" 
d="M500 1198h-139q-23 82 -61 113.5t-98 31.5q-119 0 -197 -145h-132q37 126 121 204q93 86 217 86q249 0 289 -290z" />
    <glyph glyph-name="uni0320" horiz-adv-x="0" 
d="M276 -105l-40 -193h-640l40 193h640z" />
    <glyph glyph-name="uni0324" horiz-adv-x="0" 
d="M295 -160l-51 -245h-246l51 245h246zM-126 -160l-51 -245h-246l51 245h246z" />
    <glyph glyph-name="uni0325" horiz-adv-x="0" 
d="M118 -238q0 -80 -56 -136.5t-137 -56.5q-80 0 -136.5 56.5t-56.5 136.5q0 81 56.5 137t136.5 56q81 0 137 -56t56 -137zM9 -238q0 36 -24 60.5t-60 24.5q-35 0 -59.5 -25t-24.5 -60q0 -34 25 -59t59 -25q35 0 59.5 24.5t24.5 59.5z" />
    <glyph glyph-name="uni0326" horiz-adv-x="0" 
d="M72 -109l-30 -146q-59 -287 -360 -306l32 156q121 15 135 113h-123l38 183h308z" />
    <glyph glyph-name="uni032D" horiz-adv-x="0" 
d="M175 -405h-198l-77 178l-176 -178h-236l297 301h268z" />
    <glyph glyph-name="uni032E" horiz-adv-x="0" 
d="M226 -115q-37 -126 -121 -204q-93 -86 -217 -86q-249 0 -289 290h139q41 -145 159 -145q119 0 197 145h132z" />
    <glyph glyph-name="uni0330" horiz-adv-x="0" 
d="M198 -163q-37 -240 -202 -240q-45 0 -141.5 40t-128.5 40q-62 0 -90 -82h-126q27 123 64 171q54 70 134 70q51 0 186 -49q77 -28 107 -28q47 0 69 78h128z" />
    <glyph glyph-name="Lambda" horiz-adv-x="1366" 
d="M729 1466h322l263 -1466h-301l-186 1109l-607 -1109h-299z" />
    <glyph glyph-name="Sigma" horiz-adv-x="1209" 
d="M353 1466h1038l-53 -245h-704l360 -485l-503 -491h638l-53 -245h-1037l57 271l515 500l-317 425z" />
    <glyph glyph-name="epsilon" horiz-adv-x="980" 
d="M1050 929l-210 -155q-92 86 -201 86q-58 0 -89 -27t-31 -63q0 -55 61 -88t165 -35l-47 -221q-40 2 -60 2q-127 0 -194.5 -42.5t-67.5 -101.5q0 -40 35 -61t79 -21q96 0 278 115l174 -190q-199 -152 -475 -152q-190 0 -284.5 88t-94.5 199q0 105 82 183.5t211 116.5
q-148 90 -148 219q0 130 107 218t302 88q265 0 408 -158z" />
    <glyph glyph-name="uni0400" unicode="&#x400;" horiz-adv-x="1366" 
d="M84 0zM84 0l306 1466h1087l-51 -245h-785l-70 -333h759l-51 -245h-759l-92 -398h853l-52 -245h-1145zM659 1861h276l128 -299h-194z" />
    <glyph glyph-name="uni0401" unicode="&#x401;" horiz-adv-x="1366" 
d="M84 0zM84 0zM84 0l306 1466h1087l-51 -245h-785l-70 -333h759l-51 -245h-759l-92 -398h853l-52 -245h-1145zM649 1794h246l-51 -245h-246zM1070 1794h246l-51 -245h-246z" />
    <glyph glyph-name="uni0402" unicode="&#x402;" horiz-adv-x="1814" 
d="M316 1466h1164l-53 -253h-435l-67 -322q170 94 377 94t347.5 -126.5t140.5 -339.5q0 -232 -161.5 -382t-396.5 -150q-111 0 -225 32l52 245q88 -19 154 -19q130 0 207 77t77 201q0 93 -66.5 143.5t-162.5 50.5q-201 0 -404 -118l-129 -599h-300l260 1213h-431z" />
    <glyph glyph-name="uni0403" unicode="&#x403;" horiz-adv-x="1257" 
d="M91 0zM404 1466h1076l-50 -245h-779l-262 -1221h-298zM897 1853h306l-324 -300h-191z" />
    <glyph glyph-name="uni0404" unicode="&#x404;" horiz-adv-x="1472" 
d="M523 854h474l-54 -249h-464q0 -191 84 -287t212 -96q255 0 359 304l300 -47q-57 -199 -236.5 -351.5t-445.5 -152.5q-272 0 -422.5 168t-150.5 460q0 383 219.5 635.5t560.5 252.5q474 0 554 -479l-289 -30q-40 249 -279 249q-131 0 -245.5 -90t-176.5 -287z" />
    <glyph glyph-name="uni0405" unicode="&#x405;" horiz-adv-x="1366" 
d="M126 0zM130 475l287 15q6 -137 47 -185q66 -78 244 -78q148 0 214 53t66 128q0 65 -54 110q-38 33 -208.5 107t-249 123.5t-123.5 128.5t-45 185q0 185 134 307t388 122q258 0 399.5 -121t155.5 -322l-289 -13q-11 105 -76 161t-192 56q-125 0 -178.5 -44t-53.5 -111
q0 -63 49 -104q49 -42 217 -115q253 -109 322 -177q103 -100 103 -257q0 -194 -153.5 -331.5t-427.5 -137.5q-189 0 -327.5 63.5t-195.5 176.5t-53 260z" />
    <glyph glyph-name="uni0406" unicode="&#x406;" horiz-adv-x="569" 
d="M71 0zM71 0l307 1466h301l-306 -1466h-302z" />
    <glyph glyph-name="uni0407" unicode="&#x407;" horiz-adv-x="569" 
d="M71 0zM71 0zM71 0l307 1466h301l-306 -1466h-302zM239 1794h246l-51 -245h-246zM660 1794h246l-51 -245h-246z" />
    <glyph glyph-name="uni0408" unicode="&#x408;" horiz-adv-x="1139" 
d="M59 0zM932 1466h296l-185 -888q-74 -353 -194 -478t-369 -125q-211 0 -316 97t-105 264q0 35 5 78l279 30q-6 -44 -6 -73q0 -70 40 -107t123 -37q116 0 163 68q35 52 85 293z" />
    <glyph glyph-name="uni0409" unicode="&#x409;" horiz-adv-x="2241" 
d="M1383 909h236q217 0 336.5 -37t181.5 -134t62 -240q0 -218 -147 -358t-449 -140h-713l259 1221h-406l-167 -776q-51 -241 -142.5 -355.5t-265.5 -114.5q-112 0 -212 40l56 253q67 -28 105 -28q121 0 162 214q2 12 5 25l208 987h1009zM1240 240h300q132 0 197 17.5
t114 75.5t49 138q0 70 -39 118.5t-101 63t-189 14.5h-238z" />
    <glyph glyph-name="uni040A" unicode="&#x40a;" horiz-adv-x="2134" 
d="M1276 909h237q225 0 343 -39t177 -135.5t59 -228.5q0 -224 -147 -365t-449 -141h-711l137 667h-394l-137 -667h-302l307 1466h301l-118 -557h394l118 557h301zM1134 240h301q145 0 212 24t107.5 79t40.5 131q0 66 -36 114t-97 63.5t-196 15.5h-241z" />
    <glyph glyph-name="uni040B" unicode="&#x40b;" horiz-adv-x="1748" 
d="M297 1466h1162l-51 -253h-427l-67 -307q202 67 372 67q211 0 315 -88.5t104 -235.5q0 -64 -30 -200l-97 -449h-297l89 415q18 84 18 148q0 82 -56 122.5t-169 40.5q-152 0 -300 -71l-141 -655h-299l260 1213h-437z" />
    <glyph glyph-name="uni040C" unicode="&#x40c;" horiz-adv-x="1259" 
d="M89 0zM402 1466h299l-132 -622q85 0 132 35.5t146 206.5q105 181 162 249.5t129 99.5t218 31h80l-66 -220h-49q-55 0 -84.5 -18t-67.5 -88q-119 -219 -190 -295t-155 -97q150 -48 199 -264q3 -12 6 -23l132 -461h-310l-123 454q-2 8 -35 96q-40 85 -169 87l-137 -637
h-298zM899 1853h306l-324 -300h-191z" />
    <glyph glyph-name="uni040D" unicode="&#x40d;" horiz-adv-x="1473" 
d="M89 0zM402 1466h280l-192 -909l794 909h282l-311 -1466h-284l199 919l-800 -919h-281zM679 1861h276l128 -299h-194z" />
    <glyph glyph-name="uni040E" unicode="&#x40e;" horiz-adv-x="1387" 
d="M156 0zM265 1466h339l186 -748l509 748h328l-897 -1234q-114 -156 -193.5 -205t-188.5 -49q-118 0 -192 22l37 232q68 -13 116 -13q57 0 121.5 23t160.5 181zM671 1842h139q23 -81 61.5 -113t97.5 -32q119 0 197 145h132q-41 -138 -133 -214t-205 -76q-117 0 -193 72.5
t-96 217.5z" />
    <glyph glyph-name="uni040F" unicode="&#x40f;" horiz-adv-x="1473" 
d="M792 0l-86 -405h-245l86 405h-458l312 1466h300l-261 -1221h564l261 1221h300l-314 -1466h-459z" />
    <glyph glyph-name="uni0410" unicode="&#x410;" horiz-adv-x="1479" 
d="M0 0zM1044 324h-581l-176 -324h-310l829 1466h335l238 -1466h-286zM1007 568l-85 590l-354 -590h439z" />
    <glyph glyph-name="uni0411" unicode="&#x411;" horiz-adv-x="1450" 
d="M655 1221l-65 -312h237q227 0 341.5 -38t176 -139.5t61.5 -237.5q0 -215 -151 -354.5t-445 -139.5h-718l315 1466h1045l-56 -245h-741zM447 240h300q131 0 196 17.5t114 75.5t49 138q0 70 -38.5 118.5t-101 63t-189.5 14.5h-238z" />
    <glyph glyph-name="uni0412" unicode="&#x412;" horiz-adv-x="1479" 
d="M82 0zM82 0l307 1466h501q163 0 228 -10q108 -15 183 -60t114 -120t39 -166q0 -122 -68 -211.5t-210 -135.5q113 -31 176.5 -110.5t63.5 -179.5q0 -132 -75 -250.5t-207 -170.5t-361 -52h-691zM566 874h230q155 0 223 22t102 72t34 107q0 56 -32 92t-91 48q-33 6 -159 6
h-234zM433 236h291q183 0 245.5 23.5t100 77.5t37.5 114q0 73 -54 120.5t-180 47.5h-360z" />
    <glyph glyph-name="uni0413" unicode="&#x413;" horiz-adv-x="1257" 
d="M404 1466h1076l-50 -245h-779l-262 -1221h-298z" />
    <glyph glyph-name="uni0414" unicode="&#x414;" horiz-adv-x="1479" 
d="M523 1466h1026l-260 -1221h129l-139 -650h-245l88 405h-943l-88 -405h-245l141 650h132q251 425 404 1221zM1199 1221h-434q-134 -596 -332 -976h558z" />
    <glyph glyph-name="uni0415" unicode="&#x415;" horiz-adv-x="1366" 
d="M84 0zM84 0l306 1466h1087l-51 -245h-785l-70 -333h759l-51 -245h-759l-92 -398h853l-52 -245h-1145z" />
    <glyph glyph-name="uni0416" unicode="&#x416;" horiz-adv-x="1899" 
d="M1051 1466h300l-132 -621q72 0 119 52.5t168 263.5q74 129 121 184.5t131 92t211 36.5q53 0 112 -8l-50 -220q-47 5 -73 5q-89 0 -126 -38q-38 -38 -115 -189q-121 -236 -271 -277q132 -47 193 -263l137 -484h-309l-112 416q-37 139 -80 179.5t-101 40.5l-135 -636h-298
l133 636q-49 -1 -92 -29.5t-79 -78.5l-58 -80l-16 -21l-297 -427h-362l377 532q130 182 297 215q-59 30 -95 102t-62 233q-18 114 -42 141q-25 27 -100 27q-24 0 -77 -4l46 224q49 5 94 5q109 0 165.5 -36.5t91.5 -106.5t69 -212q47 -192 73.5 -234t91.5 -42q7 0 21 1z" />
    <glyph glyph-name="uni0417" unicode="&#x417;" horiz-adv-x="1316" 
d="M567 1066l-287 66q66 193 215.5 276t324.5 83q205 0 357.5 -106.5t152.5 -281.5q0 -120 -76 -220.5t-237 -145.5q110 -51 164.5 -129.5t54.5 -185.5q0 -180 -162 -313.5t-442 -133.5q-476 0 -556 363l291 90q15 -86 83 -146.5t180 -60.5q125 0 212.5 59t87.5 166
q0 89 -72 139.5t-181 50.5q-32 0 -68 -5l54 254q55 -11 104 -11q111 0 180.5 61t69.5 144q0 75 -59 118t-139 43q-199 0 -252 -174z" />
    <glyph glyph-name="uni0418" unicode="&#x418;" horiz-adv-x="1473" 
d="M402 1466h280l-192 -909l794 909h282l-311 -1466h-284l199 919l-800 -919h-281z" />
    <glyph glyph-name="uni0419" unicode="&#x419;" horiz-adv-x="1473" 
d="M89 0zM402 1466h280l-192 -909l794 909h282l-311 -1466h-284l199 919l-800 -919h-281zM738 1842h139q23 -81 61.5 -113t97.5 -32q119 0 197 145h132q-41 -138 -133 -214t-205 -76q-117 0 -193 72.5t-96 217.5z" />
    <glyph glyph-name="uni041A" unicode="&#x41a;" horiz-adv-x="1259" 
d="M402 1466h299l-132 -622q85 0 132 35.5t146 206.5q105 181 162 249.5t129 99.5t218 31h80l-66 -220h-49q-55 0 -84.5 -18t-67.5 -88q-119 -219 -190 -295t-155 -97q150 -48 199 -264q3 -12 6 -23l132 -461h-310l-123 454q-2 8 -35 96q-40 85 -169 87l-137 -637h-298z" />
    <glyph glyph-name="uni041B" unicode="&#x41b;" horiz-adv-x="1407" 
d="M489 1466h1009l-311 -1466h-300l259 1221h-407l-166 -776q-30 -138 -78.5 -249.5t-126 -164.5t-205.5 -53q-86 0 -201 22l54 251q79 -12 94 -12q124 0 165 215q2 12 5 25z" />
    <glyph glyph-name="uni041C" unicode="&#x41c;" horiz-adv-x="1706" 
d="M83 0zM927 0h-286l-53 1225l-233 -1225h-272l306 1466h430l45 -1027l500 1027h435l-307 -1466h-275l289 1216z" />
    <glyph glyph-name="uni041D" unicode="&#x41d;" horiz-adv-x="1479" 
d="M89 0zM1095 655h-567l-137 -655h-302l307 1466h301l-118 -566h567l119 566h301l-306 -1466h-302z" />
    <glyph glyph-name="uni041E" unicode="&#x41e;" horiz-adv-x="1593" 
d="M179 0zM179 575q0 130 39 274q51 193 155.5 335t263.5 224.5t362 82.5q272 0 439.5 -169t167.5 -448q0 -232 -109 -449t-296 -334t-423 -117q-205 0 -344 93t-197 230.5t-58 277.5zM477 581q0 -151 92 -253t242 -102q122 0 234.5 80.5t186 244t73.5 318.5
q0 173 -93 271.5t-237 98.5q-221 0 -359.5 -206t-138.5 -452z" />
    <glyph glyph-name="uni041F" unicode="&#x41f;" horiz-adv-x="1473" 
d="M403 1466h1162l-312 -1466h-301l261 1221h-563l-261 -1221h-300z" />
    <glyph glyph-name="uni0420" unicode="&#x420;" horiz-adv-x="1366" 
d="M83 0zM385 0h-302l307 1466h596q159 0 251.5 -37.5t146.5 -124t54 -206.5q0 -111 -43 -216t-105.5 -168t-134.5 -95.5t-194 -49.5q-71 -10 -266 -10h-193zM552 802h93q239 0 319 30t126 96t46 145q0 53 -23.5 87t-66 49.5t-189.5 15.5h-216z" />
    <glyph glyph-name="uni0421" unicode="&#x421;" horiz-adv-x="1479" 
d="M194 0zM1146 528l304 -46q-89 -247 -267 -377.5t-417 -130.5q-269 0 -420.5 162t-151.5 470q0 250 101.5 457.5t281.5 317.5t392 110q238 0 385 -127.5t173 -347.5l-289 -28q-24 128 -92.5 185.5t-182.5 57.5q-125 0 -233.5 -76t-173.5 -237.5t-65 -322.5
q0 -176 84.5 -272t210.5 -96q117 0 214.5 76t145.5 225z" />
    <glyph glyph-name="uni0422" unicode="&#x422;" 
d="M246 0zM722 0h-302l256 1221h-430l51 245h1155l-51 -245h-424z" />
    <glyph glyph-name="uni0423" unicode="&#x423;" horiz-adv-x="1387" 
d="M265 1466h339l186 -748l509 748h328l-897 -1234q-114 -156 -193.5 -205t-188.5 -49q-118 0 -192 22l37 232q68 -13 116 -13q57 0 121.5 23t160.5 181z" />
    <glyph glyph-name="uni0424" unicode="&#x424;" horiz-adv-x="1599" 
d="M909 1466h282l-37 -173q217 -1 340 -125.5t123 -318.5q0 -163 -82 -316t-242.5 -250.5t-380.5 -109.5l-39 -186h-281l40 186q-251 31 -355 163t-104 304q0 241 189 433.5t511 224.5zM969 428q136 9 242.5 133t106.5 262q0 205 -215 226zM820 1047q-136 -27 -243 -133.5
t-107 -267.5q0 -106 63.5 -162.5t151.5 -60.5z" />
    <glyph glyph-name="uni0425" unicode="&#x425;" horiz-adv-x="1366" 
d="M0 0zM328 0h-390l647 742l-364 724h315l143 -275q7 -15 98 -203q6 -10 13 -27q122 149 205 244l231 261h379l-671 -772l361 -694h-340l-110 221q-86 175 -114 251q-39 -59 -201 -244z" />
    <glyph glyph-name="uni0426" unicode="&#x426;" horiz-adv-x="1493" 
d="M395 1466h299l-261 -1221h567l263 1221h298l-261 -1221h131l-139 -650h-245l87 405h-1052z" />
    <glyph glyph-name="uni0427" unicode="&#x427;" horiz-adv-x="1450" 
d="M386 1466h297l-83 -389q-2 -7 -5 -22q-19 -76 -19 -127q0 -75 55.5 -122.5t165.5 -47.5q171 0 310 72l137 636h297l-314 -1466h-297l126 577q-227 -67 -372 -67q-208 0 -313.5 85t-105.5 228q0 94 29 226z" />
    <glyph glyph-name="uni0428" unicode="&#x428;" horiz-adv-x="2005" 
d="M401 1466h300l-260 -1221h394l260 1221h299l-258 -1221h399l262 1221h295l-312 -1466h-1691z" />
    <glyph glyph-name="uni0429" unicode="&#x429;" horiz-adv-x="2025" 
d="M1833 245h128l-141 -650h-245l87 405h-1573l312 1466h300l-260 -1221h394l260 1221h299l-258 -1221h399l262 1221h295z" />
    <glyph glyph-name="uni042A" unicode="&#x42a;" horiz-adv-x="1749" 
d="M269 1466h738l-116 -557h237q227 0 344.5 -40t176 -139t58.5 -231q0 -234 -156 -366.5t-440 -132.5h-718l264 1221h-441zM748 240h300q229 0 294 74t65 157q0 67 -37 116t-98 64.5t-194 15.5h-238z" />
    <glyph glyph-name="uni042B" unicode="&#x42b;" horiz-adv-x="2048" 
d="M1825 1466h297l-312 -1466h-300zM397 1466h299l-116 -557h237q232 0 349 -41.5t173.5 -139.5t56.5 -237q0 -226 -157 -358.5t-439 -132.5h-718zM437 240h300q230 0 294.5 74t64.5 157q0 68 -37 116.5t-98 64t-194 15.5h-238z" />
    <glyph glyph-name="uni042C" unicode="&#x42c;" horiz-adv-x="1450" 
d="M397 1466h299l-116 -557h237q232 0 349 -41.5t173.5 -139.5t56.5 -237q0 -225 -156 -358t-440 -133h-718zM437 240h300q230 0 294.5 74t64.5 157q0 68 -37 116.5t-98 64t-194 15.5h-238z" />
    <glyph glyph-name="uni042D" unicode="&#x42d;" horiz-adv-x="1472" 
d="M722 854h460q0 197 -94.5 288t-219.5 91q-129 0 -211.5 -67.5t-109.5 -166.5l-291 63q38 179 210 304t407 125q278 0 445 -162.5t167 -476.5q0 -359 -214 -618t-585 -259q-443 0 -536 446l284 97q21 -170 107 -230t180 -60q124 0 243 93.5t180 288.5h-464z" />
    <glyph glyph-name="uni042E" unicode="&#x42e;" horiz-adv-x="2134" 
d="M400 1466h298l-129 -608h236q55 288 255 460.5t480 172.5q264 0 432.5 -163t168.5 -465q0 -354 -194 -621t-576 -267q-311 0 -465 184t-154 408q0 13 1 40h-239l-129 -607h-296zM1059 596q0 -164 92.5 -266.5t240.5 -102.5q201 0 326 176t125 450q0 196 -96 290.5
t-227 94.5q-195 0 -328 -192t-133 -450z" />
    <glyph glyph-name="uni042F" unicode="&#x42f;" horiz-adv-x="1493" 
d="M1586 1466l-315 -1466h-296l131 611l-34 1q-132 0 -205 -37.5t-170 -150.5l-365 -424h-374l409 477q122 142 212 169q-151 26 -224 126.5t-73 229.5q0 187 144.5 325.5t423.5 138.5h736zM1233 1221h-236q-247 0 -330.5 -48.5t-83.5 -152.5q0 -69 50 -121.5t222 -52.5h299
z" />
    <glyph glyph-name="uni0430" unicode="&#x430;" horiz-adv-x="1139" 
d="M92 0zM487 761l-280 24q48 142 167.5 222t316.5 80q205 0 303 -82.5t98 -201.5q0 -48 -8.5 -102t-59.5 -284q-42 -190 -42 -266q0 -68 24 -151h-279q-17 58 -21 120q-63 -70 -145 -107.5t-165 -37.5q-132 0 -218 86.5t-86 222.5q0 152 94.5 243t337.5 110q205 17 274 41
q18 60 18 96q0 46 -37 77t-110 31q-77 0 -121.5 -31.5t-60.5 -89.5zM760 495q-26 -7 -69 -13q-216 -26 -282 -76q-47 -36 -47 -97q0 -50 36 -84.5t95 -34.5q65 0 122.5 31.5t86 81t50.5 154.5z" />
    <glyph glyph-name="uni0431" unicode="&#x431;" horiz-adv-x="1268" 
d="M1145 1531h197q-5 -125 -37 -186.5t-94.5 -86t-233.5 -27.5q-154 -2 -223 -20t-129.5 -77.5t-110.5 -171.5q144 100 288 100q194 0 312.5 -127t118.5 -340q0 -230 -156.5 -424.5t-447.5 -194.5q-230 0 -363.5 135.5t-133.5 343.5q0 213 95 443.5t215.5 361t229 163.5
t323.5 38q101 2 123.5 12t26.5 58zM423 447q0 -128 68 -188.5t152 -60.5q129 0 217 129t88 287q0 104 -57 170t-160 66q-137 0 -222.5 -125.5t-85.5 -277.5z" />
    <glyph glyph-name="uni0432" unicode="&#x432;" horiz-adv-x="1237" 
d="M923 535q100 -31 150 -89.5t50 -144.5q0 -131 -121 -228t-378 -97q-240 0 -367 122.5t-127 340.5q0 270 163.5 458.5t477.5 188.5q217 0 303.5 -85.5t86.5 -196.5q0 -99 -59.5 -166t-178.5 -103zM414 616h219q160 0 215.5 38t55.5 114q0 56 -40.5 83.5t-122.5 27.5
q-137 0 -219 -65.5t-108 -197.5zM399 446q2 -127 56.5 -194t203.5 -67q95 0 142 30t47 90q0 65 -55.5 103t-123.5 38h-270z" />
    <glyph glyph-name="uni0433" unicode="&#x433;" horiz-adv-x="1093" 
d="M456 761l-252 44q88 281 410 281q238 0 339.5 -89t101.5 -213q0 -132 -94 -206t-357 -135q-177 -42 -225 -69t-48 -82q0 -49 49.5 -81t130.5 -32q192 0 237 155l270 -44q-44 -160 -170 -237t-353 -77q-220 0 -324.5 98.5t-104.5 222.5q0 84 43.5 147.5t116 99.5t269.5 85
q209 51 255 77q46 25 46 87q0 44 -37 65.5t-111 21.5q-152 0 -192 -119z" />
    <glyph glyph-name="uni0434" unicode="&#x434;" horiz-adv-x="1266" 
d="M572 1322l51 209h91q343 0 455 -130t112 -413q0 -435 -159.5 -723.5t-510.5 -288.5q-213 0 -351 117.5t-138 339.5q0 266 173.5 459.5t433.5 193.5q85 0 158.5 -27.5t136.5 -82.5q3 59 3 95q0 146 -70.5 198.5t-250.5 52.5h-134zM770 875q-166 0 -263 -147.5t-97 -303.5
q0 -108 58 -166.5t149 -58.5q157 0 255 164t98 323q0 90 -54.5 139.5t-145.5 49.5z" />
    <glyph glyph-name="uni0435" unicode="&#x435;" horiz-adv-x="1139" 
d="M119 0zM1116 442h-720q-1 -17 -1 -26q0 -106 60.5 -171t147.5 -65q143 0 223 148l257 -43q-75 -155 -200.5 -232.5t-281.5 -77.5q-214 0 -348 135.5t-134 358.5q0 218 121 388q165 230 471 230q195 0 310 -120.5t115 -337.5q0 -104 -20 -187zM874 617q1 19 1 29
q0 118 -53 177t-142 59t-159.5 -67t-95.5 -198h449z" />
    <glyph glyph-name="uni0436" unicode="&#x436;" horiz-adv-x="1508" 
d="M773 1062h283l-96 -452q71 0 117.5 41.5t106.5 166.5q71 148 128 196t178 48h124l-34 -158h-39q-47 0 -69 -23.5t-68 -121.5q-49 -103 -99.5 -150t-135.5 -70q113 -28 157 -183l100 -356h-269l-86 314q-25 90 -52 116.5t-93 26.5l-98 -457h-281l98 457q-47 0 -73 -17.5
t-71 -83.5l-240 -356h-313l259 363q71 100 117.5 136t112.5 40q-56 55 -74.5 96t-28.5 122q-13 99 -28.5 123t-66.5 24h-54l33 158h98q73 0 136.5 -40t93.5 -230q19 -119 49 -148t82 -34z" />
    <glyph glyph-name="uni0437" unicode="&#x437;" horiz-adv-x="1045" 
d="M417 777l-236 40q111 269 442 269q191 0 284.5 -80t93.5 -204q0 -103 -70 -172.5t-159 -89.5q83 -18 136.5 -85t53.5 -151q0 -126 -115 -227t-367 -101q-377 0 -452 297l269 27q51 -147 203 -147q75 0 123.5 44.5t48.5 109.5q0 73 -48 104t-158 31l24 175q100 0 143 8.5
t76 48.5t33 94q0 55 -41.5 92.5t-101.5 37.5q-111 0 -182 -121z" />
    <glyph glyph-name="uni0438" unicode="&#x438;" 
d="M144 0zM302 1062h287l-131 -629q-24 -113 -24 -141q0 -46 34 -79t87 -33q38 0 75 14.5t76 44t70 67.5t58 100q19 46 41 150l106 506h287l-222 -1062h-268l30 144q-176 -169 -383 -169q-131 0 -206 75t-75 201q0 55 34 219z" />
    <glyph glyph-name="uni0439" unicode="&#x439;" 
d="M144 0zM302 1062h287l-131 -629q-24 -113 -24 -141q0 -46 34 -79t87 -33q38 0 75 14.5t76 44t70 67.5t58 100q19 46 41 150l106 506h287l-222 -1062h-268l30 144q-176 -169 -383 -169q-131 0 -206 75t-75 201q0 55 34 219zM510 1488h139q23 -81 61.5 -113t97.5 -32
q119 0 197 145h132q-41 -138 -133 -214t-205 -76q-117 0 -193 72.5t-96 217.5z" />
    <glyph glyph-name="uni043A" unicode="&#x43a;" horiz-adv-x="1038" 
d="M301 1062h282l-96 -452q80 1 116 28.5t94 129.5q113 201 177 247.5t213 46.5h74l-39 -196h-35q-44 0 -63.5 -16.5t-54.5 -72.5q-93 -151 -141 -187.5t-106 -51.5q105 -19 151 -182l100 -356h-270l-85 314q-26 94 -56.5 117.5t-106.5 23.5l-100 -455h-280z" />
    <glyph glyph-name="uni043B" unicode="&#x43b;" horiz-adv-x="1274" 
d="M390 1062h906l-226 -1062h-283l178 838h-362l-118 -559q-34 -162 -118 -232.5t-234 -70.5q-71 0 -183 24l45 239q58 -13 105 -13q73 0 103 48t62 196z" />
    <glyph glyph-name="uni043C" unicode="&#x43c;" horiz-adv-x="1515" 
d="M306 1062h349l110 -734l426 734h341l-227 -1062h-241l149 694l-402 -694h-240l-100 707l-152 -707h-239z" />
    <glyph glyph-name="uni043D" unicode="&#x43d;" horiz-adv-x="1237" 
d="M298 1062h284l-84 -393h395l84 393h284l-226 -1062h-284l95 446h-396l-95 -446h-283z" />
    <glyph glyph-name="uni043E" unicode="&#x43e;" 
d="M124 0zM124 441q0 295 166.5 470.5t437.5 175.5q235 0 367 -129.5t132 -348.5q0 -258 -165 -446t-442 -188q-150 0 -266 60t-173 170t-57 236zM942 646q0 102 -59.5 163.5t-153.5 61.5q-93 0 -165 -57.5t-112 -167t-40 -201.5q0 -114 62 -181t156 -67q118 0 198 101
q114 143 114 348z" />
    <glyph glyph-name="uni043F" unicode="&#x43f;" 
d="M305 1062h963l-226 -1062h-284l176 838h-396l-176 -838h-283z" />
    <glyph glyph-name="uni0440" unicode="&#x440;" 
d="M0 0zM295 1062h272l-23 -109q87 72 163 103t163 31q167 0 268.5 -115t101.5 -343q0 -287 -175 -485q-150 -169 -355 -169q-211 0 -319 171l-115 -551h-287zM468 453q0 -124 60.5 -192.5t142.5 -68.5q71 0 137 51.5t109.5 171t43.5 221.5q0 119 -57 182.5t-145 63.5
q-82 0 -149.5 -58.5t-104.5 -172t-37 -198.5z" />
    <glyph glyph-name="uni0441" unicode="&#x441;" horiz-adv-x="1139" 
d="M123 0zM802 400l279 -45q-69 -186 -204 -283t-313 -97q-203 0 -322 121t-119 333q0 173 72 327t217 242.5t318 88.5q188 0 300 -98t126 -258l-273 -29q-10 89 -54.5 131t-116.5 42q-83 0 -155 -62t-110.5 -185.5t-38.5 -231.5q0 -94 46 -145t115 -51t133 50t100 150z" />
    <glyph glyph-name="uni0442" unicode="&#x442;" horiz-adv-x="1821" 
d="M73 0zM295 1062h270l-27 -129q158 154 332 154q120 0 185 -50t83 -138q55 80 158 134t214 54q127 0 198 -68t71 -180q0 -55 -28 -190l-136 -649h-287l136 649q25 122 25 138q0 44 -26.5 69.5t-79.5 25.5q-107 0 -191 -113q-61 -81 -104 -287l-101 -482h-287l134 642
q23 111 23 144q0 42 -28.5 69t-78.5 27q-47 0 -97 -28t-87.5 -77t-64.5 -126q-12 -36 -39 -163l-102 -488h-287z" />
    </font>
</defs>
</svg>
